<?xml version="1.0" encoding="utf-8"?>
<!-- Generator: Adobe Illustrator 16.0.3, SVG Export Plug-In . SVG Version: 6.00 Build 0)  -->
<!DOCTYPE svg PUBLIC "-//W3C//DTD SVG 1.1//EN" "http://www.w3.org/Graphics/SVG/1.1/DTD/svg11.dtd" [
	<!ENTITY ns_flows "http://ns.adobe.com/Flows/1.0/">
	<!ENTITY ns_extend "http://ns.adobe.com/Extensibility/1.0/">
	<!ENTITY ns_ai "http://ns.adobe.com/AdobeIllustrator/10.0/">
	<!ENTITY ns_graphs "http://ns.adobe.com/Graphs/1.0/">
]>
<svg version="1.1" id="Layer_1" xmlns:x="&ns_extend;" xmlns:i="&ns_ai;" xmlns:graph="&ns_graphs;"
	 xmlns="http://www.w3.org/2000/svg" xmlns:xlink="http://www.w3.org/1999/xlink" xmlns:a="http://ns.adobe.com/AdobeSVGViewerExtensions/3.0/"
	 x="0px" y="0px" width="103px" height="103px" viewBox="0 0 103 103" enable-background="new 0 0 103 103" xml:space="preserve">
<path fill="#FFFFFF" d="M15.084,87.917L15.084,87.917C-5.028,67.805-5.028,35.196,15.083,15.085l0.001-0.001
	c20.111-20.112,52.719-20.112,72.831,0l0.001,0.001c20.111,20.111,20.111,52.72,0,72.832h-0.001
	C67.804,108.028,35.196,108.028,15.084,87.917z"/>
<g>
	<g>
		<path fill="#E43625" d="M55.59,63.602c-0.518,0.519-0.969,1.09-1.351,1.694L37.113,54.901c0.45-1.134,0.707-2.368,0.707-3.66
			c0-1.296-0.257-2.526-0.707-3.663L54.245,37.26c1.756,2.765,4.839,4.607,8.353,4.607c5.463,0,9.911-4.447,9.911-9.91
			c0-5.464-4.448-9.912-9.911-9.912c-5.464,0-9.912,4.448-9.912,9.912c0,1.243,0.242,2.434,0.663,3.527L36.194,45.817
			c-1.772-2.701-4.821-4.487-8.286-4.487c-5.463,0-9.911,4.442-9.911,9.911c0,5.465,4.447,9.911,9.911,9.911
			c3.465,0,6.514-1.79,8.286-4.491l17.149,10.411c-0.425,1.117-0.658,2.308-0.658,3.537c0,2.647,1.031,5.14,2.904,7.007
			c1.931,1.932,4.472,2.899,7.008,2.899s5.077-0.968,7.007-2.899c1.873-1.872,2.904-4.359,2.904-7.007
			c0-2.646-1.031-5.134-2.904-7.008C65.742,59.735,59.457,59.735,55.59,63.602L55.59,63.602z M62.598,24.03
			c4.374,0,7.932,3.557,7.932,7.927c0,4.369-3.558,7.926-7.932,7.926c-4.37,0-7.927-3.557-7.927-7.926
			C54.671,27.587,58.228,24.03,62.598,24.03L62.598,24.03z M27.908,59.169c-4.37,0-7.927-3.557-7.927-7.928
			c0-4.374,3.557-7.931,7.927-7.931c4.375,0,7.932,3.557,7.932,7.931C35.84,55.612,32.283,59.169,27.908,59.169L27.908,59.169z
			 M68.206,76.219c-3.093,3.093-8.125,3.093-11.213,0c-1.5-1.5-2.322-3.49-2.322-5.609c0-2.115,0.822-4.108,2.322-5.604
			c1.544-1.55,3.576-2.318,5.604-2.318c2.032,0,4.06,0.769,5.608,2.318c1.495,1.495,2.323,3.488,2.323,5.604
			C70.529,72.729,69.701,74.719,68.206,76.219L68.206,76.219z M68.206,76.219"/>
	</g>
</g>
</svg>
