<?xml version="1.0" encoding="utf-8"?>
<!-- Generator: Adobe Illustrator 16.0.3, SVG Export Plug-In . SVG Version: 6.00 Build 0)  -->
<!DOCTYPE svg PUBLIC "-//W3C//DTD SVG 1.1//EN" "http://www.w3.org/Graphics/SVG/1.1/DTD/svg11.dtd" [
	<!ENTITY ns_flows "http://ns.adobe.com/Flows/1.0/">
	<!ENTITY ns_extend "http://ns.adobe.com/Extensibility/1.0/">
	<!ENTITY ns_ai "http://ns.adobe.com/AdobeIllustrator/10.0/">
	<!ENTITY ns_graphs "http://ns.adobe.com/Graphs/1.0/">
]>
<svg version="1.1" id="Layer_1" xmlns:x="&ns_extend;" xmlns:i="&ns_ai;" xmlns:graph="&ns_graphs;"
	 xmlns="http://www.w3.org/2000/svg" xmlns:xlink="http://www.w3.org/1999/xlink" xmlns:a="http://ns.adobe.com/AdobeSVGViewerExtensions/3.0/"
	 x="0px" y="0px" width="103px" height="103px" viewBox="0 0 103 103" enable-background="new 0 0 103 103" xml:space="preserve">
<path fill="#FFFFFF" d="M15.085,87.917L15.085,87.917C-5.028,67.805-5.028,35.196,15.084,15.085l0.001-0.001
	c20.111-20.112,52.72-20.112,72.831,0v0.001c20.112,20.111,20.112,52.72,0,72.832l0,0C67.805,108.028,35.196,108.028,15.085,87.917z
	"/>
<g>
	<path fill="#E43625" d="M32.148,39.888c2.944-0.937,5.753-2.342,8.496-4.215c1.204-0.936,2.007-1.471,2.408-1.471
		c0.402,0.134,0.803,0.602,1.071,1.271c0,0.87-0.334,2.141-1.003,3.813c-0.402,1.204-0.871,2.475-1.473,3.946
		c-0.936,2.14-1.806,4.214-2.675,6.087c0.469,0.401,1.004,0.87,1.538,1.472c2.676,3.21,5.218,5.352,7.693,6.488
		c0.268,0.134,0.469,0.402,0.469,0.803c-0.067,0.335-0.201,0.603-0.334,0.736c-0.268,0.4-0.469,0.602-0.602,0.735
		c-0.268,0.134-0.602,0.201-1.004,0.201c-1.204,0-3.076-1.004-5.485-3.077c-1.338-1.004-2.542-2.208-3.612-3.612
		c0,0.134,0.067,0.2,0.067,0.2c0.133,1.07,0.268,2.142,0.468,3.278c0.402,2.943,0.803,6.086,1.338,9.564
		c0.268,2.209,0.401,4.216,0.401,5.954c0,1.739-0.134,3.346-0.401,4.951c-0.334,1.337-0.602,2.34-0.87,3.143
		c-0.334,1.204-0.803,1.873-1.471,1.873c-0.937,0-1.405-0.468-1.405-1.271c0.133-0.535,0.268-1.338,0.468-2.408
		c0.335-1.872,0.536-3.278,0.536-4.415c0-3.411-0.402-8.16-1.07-14.181c-0.134-0.803-0.201-1.538-0.335-2.275
		c-4.081,8.697-7.893,16.056-11.505,22.075c-0.401,0.87-1.07,1.338-1.873,1.338c-0.736-0.067-1.137-0.4-1.205-0.937
		c0-0.335,0.067-0.603,0.268-0.803c8.161-17.392,14.181-30.437,18.062-39.132c-3.813,2.676-7.76,4.348-11.84,4.883
		c-1.404,0-2.074-0.669-2.074-2.007c0-0.869,0.535-1.404,1.605-1.672C28.67,40.958,30.476,40.557,32.148,39.888z M36.095,28.649
		c-2.274-0.602-3.679-1.137-4.214-1.539c-0.468-0.2-0.668-0.602-0.668-1.271c0-0.469,0.066-0.869,0.268-1.204
		c0.334-0.602,0.936-0.937,1.739-0.937c2.675,0.937,5.887,1.94,9.632,3.078c0.536,0.267,0.87,0.735,0.87,1.337
		c-0.066,1.004-0.468,1.539-1.204,1.539C40.845,29.653,38.704,29.318,36.095,28.649z M55.025,82.096
		c-0.535,0-1.07-0.602-1.605-1.806c-0.937-3.076-1.806-6.89-2.541-11.639c-0.602-3.88-0.87-7.09-0.87-9.699
		c0-1.473,0.535-2.208,1.672-2.274c1.138,0,1.739,0.535,1.739,1.539c0,0.668,0.067,1.271,0.135,1.806
		c3.21-2.074,8.228-4.08,14.983-5.954c3.746-1.069,7.157-1.672,10.168-1.672c1.472,0.134,2.207,1.739,2.207,4.749
		c-0.268,5.753-1.137,11.104-2.475,16.055c-0.67,2.408-1.405,4.481-2.141,6.087c-1.004,2.408-2.609,3.679-4.884,3.746
		c-1.337,0-2.742-0.669-4.08-1.873c-0.469-0.401-0.735-0.668-0.869-0.937c-1.539,0.335-3.145,0.736-4.75,1.137
		c-0.936,0.268-1.806,0.603-2.676,0.87c-0.535,0.067-0.869,0.134-1.003,0.134c-0.401-0.066-0.736-0.2-1.004-0.469
		c-0.133-0.268-0.268-0.468-0.268-0.602C56.497,81.829,55.896,82.096,55.025,82.096z M70.144,25.238
		c-1.872,1.404-4.146,2.81-6.956,4.215c-3.346,1.604-6.489,2.741-9.499,3.545c-0.335,0.134-0.602,0.134-0.736,0.134
		c-0.401,0-0.735-0.2-1.003-0.669c-0.268-0.401-0.401-0.938-0.401-1.605c0-0.535,0.334-1.004,0.87-1.271
		c2.007-0.67,3.68-1.205,5.084-1.606c3.211-1.203,6.154-2.341,8.763-3.545c1.404-0.87,2.341-1.338,2.743-1.472
		c0.268-0.134,0.468-0.2,0.668-0.2c0.402,0.066,0.736,0.268,1.004,0.534c0,0.201,0.067,0.401,0.067,0.669
		C70.679,24.436,70.478,24.837,70.144,25.238z M54.09,67.714c0.066,0.938,0.2,1.807,0.334,2.477
		c0.201-0.067,0.401-0.135,0.669-0.202c3.211-1.069,6.154-2.274,8.83-3.478c-0.067-0.87-0.134-1.739-0.2-2.542
		c-0.268-1.672-0.603-3.077-1.071-4.147c-0.669,0.268-1.203,0.469-1.672,0.669c-3.947,1.807-6.354,2.743-7.225,2.811
		C53.89,64.838,53.955,66.311,54.09,67.714z M56.23,45.439c-0.869-3.277-1.605-6.021-2.141-8.228c0-0.268,0.2-0.603,0.535-1.004
		c0.267-0.401,0.602-0.602,1.07-0.602c0.401,0,0.669,0.066,0.937,0.066c0.468,0.269,0.869,0.602,1.137,1.071
		c0.134,0.534,0.268,1.203,0.469,2.007c5.083-2.609,8.628-4.08,10.636-4.415h0.401c0.669,0,1.203,0.2,1.605,0.602
		c0.602,0.535,0.937,1.271,0.937,2.141c0,1.204-0.535,2.877-1.539,5.017c-0.134,0.268-0.268,0.535-0.401,0.803
		c0.134,0.067,0.201,0.134,0.268,0.2c0,0.135,0.066,0.269,0.066,0.535c-0.066,0.535-0.267,1.071-0.602,1.473
		c-1.337,1.538-3.076,3.076-5.218,4.549c-2.408,1.739-4.749,3.076-6.956,3.879c-0.268,0.135-0.402,0.201-0.535,0.201
		c-0.402,0-0.669-0.201-0.938-0.602c-0.267-0.335-0.334-0.804-0.334-1.405c0-0.401,0.268-0.736,0.803-1.003
		c0.268-0.135,0.469-0.201,0.669-0.335C56.966,49.052,56.632,47.38,56.23,45.439z M56.431,79.221
		c0.134,0.268,0.268,0.534,0.268,0.735c0.134-0.335,0.334-0.603,0.736-0.735c0.535-0.401,1.472-0.67,2.809-0.937
		c0.603-0.134,1.405-0.269,2.342-0.535c0.87-2.743,1.338-5.485,1.405-8.161c-2.609,1.204-5.219,2.274-7.827,3.21
		c-0.401,0.202-0.87,0.336-1.271,0.402C55.361,75.541,55.896,77.548,56.431,79.221z M59.039,43.098
		c0.402,2.543,0.736,4.416,0.938,5.754l0.133-0.067c2.074-1.338,3.946-2.608,5.619-3.947c1.338-2.675,2.342-5.15,3.145-7.425
		c-1.472,0-4.817,1.405-10.102,4.148C58.839,42.095,58.906,42.563,59.039,43.098z M68.538,76.144
		c0.669-0.201,1.07-0.335,1.338-0.335c0.334,0,0.602,0,0.803,0.067c0.401,0.134,0.603,0.468,0.603,0.936
		c0,0.67-0.268,1.204-0.736,1.539c-0.268,0.2-0.669,0.469-1.203,0.735c0.735,0.335,1.271,0.535,1.672,0.535
		c0.468-0.668,1.203-1.939,2.207-3.945c1.739-3.881,3.077-8.43,4.08-13.58c0.201-1.939,0.335-3.679,0.335-5.218v-1.404
		c-3.88,0.469-7.961,1.538-12.107,3.144c0.334,1.003,0.669,2.141,0.937,3.479c0.134,1.07,0.2,2.073,0.268,3.077
		c1.07-0.535,2.141-1.004,3.144-1.539c1.338-0.802,2.274-1.271,2.81-1.271c0.268,0,0.602,0.066,0.87,0.2
		c0.334,0.269,0.535,0.535,0.602,0.737c0,0.468-0.201,0.868-0.602,1.271c-1.07,0.937-2.676,1.939-4.884,2.942
		c-0.669,0.336-1.338,0.669-1.939,0.938c-0.268,3.21-0.669,6.086-1.339,8.494C66.331,76.745,67.401,76.479,68.538,76.144z"/>
</g>
</svg>
