<?xml version="1.0" encoding="utf-8"?>
<!-- Generator: Adobe Illustrator 16.0.3, SVG Export Plug-In . SVG Version: 6.00 Build 0)  -->
<!DOCTYPE svg PUBLIC "-//W3C//DTD SVG 1.1//EN" "http://www.w3.org/Graphics/SVG/1.1/DTD/svg11.dtd" [
	<!ENTITY ns_flows "http://ns.adobe.com/Flows/1.0/">
	<!ENTITY ns_extend "http://ns.adobe.com/Extensibility/1.0/">
	<!ENTITY ns_ai "http://ns.adobe.com/AdobeIllustrator/10.0/">
	<!ENTITY ns_graphs "http://ns.adobe.com/Graphs/1.0/">
]>
<svg version="1.1" id="Layer_1" xmlns:x="&ns_extend;" xmlns:i="&ns_ai;" xmlns:graph="&ns_graphs;"
	 xmlns="http://www.w3.org/2000/svg" xmlns:xlink="http://www.w3.org/1999/xlink" xmlns:a="http://ns.adobe.com/AdobeSVGViewerExtensions/3.0/"
	 x="0px" y="0px" width="103px" height="103px" viewBox="0 0 103 103" enable-background="new 0 0 103 103" xml:space="preserve">
<path fill="#FFFFFF" d="M15.084,87.916L15.084,87.916c-20.111-20.111-20.111-52.72,0-72.832v0c20.112-20.112,52.721-20.112,72.832,0
	v0c20.111,20.112,20.111,52.72,0,72.832l0,0C67.805,108.029,35.196,108.029,15.084,87.916z"/>
<g>
	<g>
		<path fill="#E43625" d="M77.07,74.832H25.744c-4.255,0-7.715-3.461-7.715-7.715V35.829c0-4.254,3.46-7.714,7.715-7.714h10.473
			l0.917-3.092c0.375-1.693,1.921-2.935,3.741-2.935h21.067c1.768,0,3.332,1.236,3.746,2.949l0.025,0.105l0.836,2.972h10.523
			c4.254,0,7.715,3.46,7.715,7.714v31.289C84.785,71.371,81.324,74.832,77.07,74.832L77.07,74.832z M25.744,30.686
			c-2.836,0-5.144,2.307-5.144,5.143v31.289c0,2.838,2.307,5.143,5.144,5.143H77.07c2.836,0,5.143-2.307,5.143-5.143V35.829
			c0-2.836-2.307-5.143-5.143-5.143H64.6l-1.406-5.021c-0.131-0.584-0.656-1.008-1.254-1.008H40.873
			c-0.605,0-1.12,0.415-1.252,1.009l-1.487,5.02H25.744z M51.409,67.059c-8.999,0-16.32-7.318-16.32-16.318
			c0-8.999,7.322-16.32,16.32-16.32c8.998,0,16.318,7.322,16.318,16.32C67.727,59.738,60.404,67.059,51.409,67.059L51.409,67.059z
			 M51.409,36.991c-7.58,0-13.749,6.167-13.749,13.748s6.168,13.747,13.749,13.747c7.58,0,13.746-6.166,13.746-13.747
			S58.988,36.991,51.409,36.991L51.409,36.991z M75.408,35.458c-1.311,0-2.371,1.064-2.371,2.373c0,1.31,1.061,2.372,2.371,2.372
			c1.313,0,2.373-1.062,2.373-2.372C77.779,36.522,76.719,35.458,75.408,35.458L75.408,35.458z M75.408,35.458"/>
	</g>
</g>
</svg>
