<?xml version="1.0" encoding="utf-8"?>
<!-- Generator: Adobe Illustrator 16.0.3, SVG Export Plug-In . SVG Version: 6.00 Build 0)  -->
<!DOCTYPE svg PUBLIC "-//W3C//DTD SVG 1.1//EN" "http://www.w3.org/Graphics/SVG/1.1/DTD/svg11.dtd" [
	<!ENTITY ns_flows "http://ns.adobe.com/Flows/1.0/">
	<!ENTITY ns_extend "http://ns.adobe.com/Extensibility/1.0/">
	<!ENTITY ns_ai "http://ns.adobe.com/AdobeIllustrator/10.0/">
	<!ENTITY ns_graphs "http://ns.adobe.com/Graphs/1.0/">
]>
<svg version="1.1" id="Layer_1" xmlns:x="&ns_extend;" xmlns:i="&ns_ai;" xmlns:graph="&ns_graphs;"
	 xmlns="http://www.w3.org/2000/svg" xmlns:xlink="http://www.w3.org/1999/xlink" xmlns:a="http://ns.adobe.com/AdobeSVGViewerExtensions/3.0/"
	 x="0px" y="0px" width="519px" height="238px" viewBox="0 0 519 238" enable-background="new 0 0 519 238" xml:space="preserve">
<g>
	<g>
		<g>
			<path fill="#FFFFFF" d="M3.471,210.924c0-3.821,0.108-6.378,0.327-7.673c0.233-1.293,0.588-2.339,1.068-3.136
				c0.771-1.511,2.005-2.856,3.706-4.038c1.671-1.196,3.757-1.809,6.257-1.84c2.528,0.031,4.636,0.646,6.322,1.848
				c1.671,1.186,2.877,2.536,3.619,4.053c0.538,0.796,0.908,1.839,1.111,3.13c0.189,1.29,0.283,3.843,0.283,7.656
				c0,3.753-0.094,6.289-0.283,7.61c-0.204,1.32-0.574,2.379-1.112,3.175c-0.742,1.516-1.948,2.853-3.619,4.008
				c-1.687,1.201-3.793,1.831-6.322,1.892c-2.5-0.061-4.585-0.69-6.256-1.892c-1.7-1.155-2.935-2.492-3.706-4.008
				c-0.232-0.495-0.444-0.968-0.632-1.418c-0.174-0.466-0.319-1.052-0.436-1.757C3.579,217.213,3.471,214.677,3.471,210.924z
				 M8.285,210.924c0,3.233,0.116,5.422,0.349,6.566c0.204,1.143,0.619,2.067,1.246,2.774c0.509,0.678,1.179,1.227,2.009,1.647
				c0.816,0.496,1.792,0.745,2.928,0.745c1.15,0,2.148-0.249,2.993-0.745c0.801-0.421,1.441-0.97,1.922-1.647
				c0.626-0.707,1.056-1.632,1.289-2.774c0.219-1.145,0.328-3.333,0.328-6.566c0-3.234-0.109-5.438-0.328-6.612
				c-0.233-1.113-0.662-2.023-1.289-2.73c-0.481-0.677-1.122-1.241-1.922-1.692c-0.845-0.436-1.843-0.669-2.993-0.698
				c-1.136,0.029-2.112,0.263-2.928,0.698c-0.83,0.451-1.5,1.016-2.009,1.692c-0.626,0.707-1.042,1.617-1.246,2.73
				C8.401,205.485,8.285,207.689,8.285,210.924z"/>
			<path fill="#FFFFFF" d="M33.423,203.965h4.543v2.433c1.512-1.741,3.459-2.649,5.842-2.725c2.776,0.075,4.803,1.096,6.082,3.063
				c0.624,0.735,1.051,1.704,1.283,2.904c0.217,1.186,0.326,3.197,0.326,6.034c0,2.763-0.109,4.744-0.327,5.945
				c-0.232,1.2-0.661,2.185-1.286,2.949c-0.625,0.9-1.446,1.621-2.462,2.162c-1.003,0.556-2.208,0.848-3.617,0.878
				c-1.162,0-2.202-0.262-3.116-0.783c-0.988-0.479-1.896-1.136-2.725-1.972v11.941h-4.543V203.965z M42.439,222.927
				c1.076,0,1.927-0.211,2.553-0.633c0.625-0.436,1.069-0.994,1.331-1.672c0.291-0.707,0.487-1.49,0.589-2.35
				c0.029-0.844,0.044-1.71,0.044-2.599c0-0.934-0.015-1.845-0.044-2.733c-0.102-0.89-0.298-1.672-0.589-2.35
				c-0.261-0.708-0.705-1.266-1.331-1.672c-0.625-0.377-1.477-0.564-2.553-0.564c-1.019,0-1.826,0.218-2.422,0.654
				c-0.625,0.438-1.083,1.01-1.374,1.718c-0.277,0.708-0.458,1.477-0.546,2.305c-0.087,0.874-0.131,1.755-0.131,2.643
				c0,0.829,0.044,1.657,0.131,2.485c0.087,0.874,0.269,1.665,0.546,2.372c0.291,0.708,0.749,1.281,1.374,1.718
				C40.614,222.701,41.421,222.927,42.439,222.927z"/>
			<path fill="#FFFFFF" d="M61.93,217.429c0,1.878,0.523,3.305,1.571,4.28c0.974,0.992,2.254,1.488,3.84,1.488
				c1.848,0,3.5-0.759,4.955-2.276l3.295,2.906c-2.311,2.551-5.03,3.811-8.154,3.781c-1.192,0-2.355-0.181-3.488-0.541
				c-0.568-0.194-1.119-0.457-1.657-0.788c-0.567-0.284-1.098-0.637-1.591-1.058c-0.959-0.871-1.738-2.086-2.333-3.648
				c-0.655-1.501-0.981-3.451-0.981-5.854c0-2.312,0.284-4.233,0.851-5.764c0.566-1.561,1.293-2.793,2.18-3.693
				c0.9-0.916,1.911-1.576,3.03-1.981c1.104-0.406,2.194-0.607,3.271-0.607c2.587,0.03,4.774,0.908,6.562,2.636
				c1.817,1.757,2.74,4.173,2.769,7.251v3.869H61.93z M71.504,213.56c-0.058-1.825-0.532-3.205-1.42-4.141
				c-0.875-0.89-1.997-1.335-3.366-1.335c-1.371,0-2.492,0.445-3.367,1.335c-0.86,0.936-1.333,2.315-1.42,4.141H71.504z"/>
			<path fill="#FFFFFF" d="M82.722,203.965h4.545v2.477h0.095c1.498-1.846,3.461-2.769,5.891-2.769
				c1.818,0.03,3.403,0.628,4.756,1.795l-3.319,4.06c-0.96-0.782-1.957-1.173-2.99-1.173c-1.166,0-2.162,0.391-2.992,1.172
				c-0.931,0.768-1.412,2.007-1.44,3.721v14.092h-4.545V203.965z"/>
			<path fill="#FFFFFF" d="M112.877,225.268h-0.087c-0.421,0.795-1.076,1.381-1.961,1.756c-0.873,0.39-2.078,0.585-3.619,0.585
				c-2.529-0.03-4.476-0.721-5.842-2.071c-1.438-1.32-2.158-3.01-2.158-5.066c0-1.965,0.625-3.594,1.875-4.884
				c1.25-1.322,3.081-1.996,5.493-2.027h6.3v-2.466c0.03-2.066-1.518-3.069-4.645-3.01c-1.134,0-2.029,0.12-2.683,0.362
				c-0.683,0.286-1.221,0.769-1.614,1.448l-3.576-2.818c1.729-2.328,4.278-3.464,7.649-3.403c2.847-0.031,5.121,0.524,6.82,1.666
				c1.7,1.172,2.564,3.183,2.593,6.035v15.965h-4.544V225.268z M112.877,217.429h-5.462c-2.651,0.06-3.962,1-3.932,2.816
				c0,0.797,0.342,1.473,1.026,2.028c0.656,0.616,1.741,0.924,3.255,0.924c1.908,0.031,3.255-0.202,4.042-0.698
				c0.713-0.496,1.07-1.623,1.07-3.381V217.429z"/>
			<path fill="#FFFFFF" d="M125.469,196.85h4.544v7.115h3.315v3.602h-3.315v13.626c-0.03,1.187,0.508,1.765,1.615,1.734h1.701v4.412
				h-2.373c-1.597,0-2.903-0.511-3.919-1.53c-1.045-0.975-1.567-2.384-1.567-4.229v-14.014h-2.282v-3.602h2.282V196.85z"/>
			<path fill="#FFFFFF" d="M139.299,194.508h4.544v4.683h-4.544V194.508z M139.299,203.965h4.544v23.374h-4.544V203.965z"/>
			<path fill="#FFFFFF" d="M150.247,215.629c0-2.467,0.196-4.36,0.589-5.684c0.407-1.293,1.032-2.384,1.875-3.271
				c0.625-0.777,1.498-1.472,2.618-2.084c1.105-0.582,2.523-0.889,4.253-0.918c1.788,0.03,3.235,0.338,4.34,0.923
				c1.091,0.616,1.933,1.313,2.53,2.095c0.898,0.886,1.536,1.974,1.913,3.265c0.363,1.321,0.543,3.213,0.543,5.674
				c0,2.463-0.181,4.339-0.545,5.63c-0.377,1.291-1.017,2.409-1.918,3.354c-0.291,0.347-0.646,0.684-1.068,1.014
				c-0.378,0.375-0.865,0.698-1.461,0.968c-1.105,0.646-2.551,0.983-4.339,1.014c-1.729-0.03-3.147-0.368-4.251-1.014
				c-1.119-0.585-1.992-1.245-2.617-1.981c-0.843-0.945-1.468-2.063-1.875-3.354C150.442,219.968,150.247,218.092,150.247,215.629z
				 M164.365,215.674c0-1.671-0.073-2.892-0.219-3.659c-0.146-0.738-0.444-1.387-0.896-1.943c-0.334-0.527-0.83-0.941-1.486-1.242
				c-0.627-0.316-1.355-0.475-2.186-0.475c-0.772,0-1.486,0.158-2.142,0.475c-0.626,0.301-1.137,0.715-1.53,1.242
				c-0.393,0.557-0.677,1.205-0.852,1.943c-0.176,0.768-0.263,1.973-0.263,3.614c0,1.627,0.087,2.816,0.263,3.57
				c0.174,0.769,0.458,1.446,0.852,2.034c0.394,0.45,0.904,0.851,1.53,1.196c0.656,0.332,1.37,0.497,2.142,0.497
				c0.831,0,1.559-0.165,2.186-0.497c0.656-0.346,1.151-0.746,1.486-1.196c0.452-0.588,0.75-1.266,0.896-2.034
				C164.292,218.445,164.365,217.271,164.365,215.674z"/>
			<path fill="#FFFFFF" d="M175.583,203.965h4.545v2.477h0.087c1.496-1.846,3.457-2.769,5.883-2.769c1.874,0,3.588,0.684,5.144,2.05
				c1.539,1.38,2.346,3.407,2.418,6.079v15.537h-4.544v-13.934c0-1.639-0.422-2.887-1.266-3.743
				c-0.829-0.872-1.898-1.308-3.207-1.308s-2.385,0.436-3.229,1.308c-0.858,0.856-1.288,2.104-1.288,3.743v13.934h-4.544V203.965z"
				/>
			<path fill="#FFFFFF" d="M214.119,194.508h20.314v4.683h-15.5v9.708h13.231v4.41h-13.231v14.03h-4.814V194.508z"/>
			<path fill="#FFFFFF" d="M242.221,217.429c0,1.878,0.523,3.305,1.571,4.28c0.975,0.992,2.254,1.488,3.841,1.488
				c1.848,0,3.499-0.759,4.954-2.276l3.295,2.906c-2.311,2.551-5.029,3.811-8.154,3.781c-1.192,0-2.355-0.181-3.489-0.541
				c-0.567-0.194-1.119-0.457-1.657-0.788c-0.566-0.284-1.098-0.637-1.591-1.058c-0.959-0.871-1.738-2.086-2.333-3.648
				c-0.655-1.501-0.981-3.451-0.981-5.854c0-2.312,0.284-4.233,0.851-5.764c0.566-1.561,1.293-2.793,2.18-3.693
				c0.901-0.916,1.911-1.576,3.031-1.981c1.104-0.406,2.194-0.607,3.27-0.607c2.587,0.03,4.774,0.908,6.562,2.636
				c1.817,1.757,2.74,4.173,2.77,7.251v3.869H242.221z M251.794,213.56c-0.058-1.825-0.531-3.205-1.42-4.141
				c-0.875-0.89-1.998-1.335-3.367-1.335c-1.37,0-2.492,0.445-3.367,1.335c-0.86,0.936-1.333,2.315-1.42,4.141H251.794z"/>
			<path fill="#FFFFFF" d="M274.901,225.268h-0.087c-0.422,0.795-1.076,1.381-1.962,1.756c-0.872,0.39-2.078,0.585-3.619,0.585
				c-2.528-0.03-4.476-0.721-5.842-2.071c-1.438-1.32-2.158-3.01-2.158-5.066c0-1.965,0.626-3.594,1.875-4.884
				c1.25-1.322,3.081-1.996,5.493-2.027h6.3v-2.466c0.03-2.066-1.518-3.069-4.645-3.01c-1.135,0-2.028,0.12-2.683,0.362
				c-0.684,0.286-1.222,0.769-1.613,1.448l-3.577-2.818c1.729-2.328,4.278-3.464,7.649-3.403c2.847-0.031,5.12,0.524,6.819,1.666
				c1.7,1.172,2.564,3.183,2.594,6.035v15.965h-4.545V225.268z M274.901,217.429h-5.461c-2.651,0.06-3.963,1-3.933,2.816
				c0,0.797,0.342,1.473,1.026,2.028c0.656,0.616,1.741,0.924,3.255,0.924c1.908,0.031,3.256-0.202,4.043-0.698
				c0.713-0.496,1.069-1.623,1.069-3.381V217.429z"/>
			<path fill="#FFFFFF" d="M287.493,196.85h4.545v7.115h3.315v3.602h-3.315v13.626c-0.03,1.187,0.508,1.765,1.613,1.734h1.702v4.412
				h-2.373c-1.598,0-2.903-0.511-3.919-1.53c-1.046-0.975-1.568-2.384-1.568-4.229v-14.014h-2.281v-3.602h2.281V196.85z"/>
			<path fill="#FFFFFF" d="M301.188,194.508h4.544v11.934h0.088c1.496-1.846,3.457-2.769,5.883-2.769
				c1.874,0,3.589,0.684,5.144,2.05c1.539,1.38,2.347,3.407,2.419,6.079v15.537h-4.544v-13.934c0-1.639-0.423-2.887-1.266-3.743
				c-0.829-0.872-1.899-1.308-3.207-1.308c-1.309,0-2.386,0.436-3.229,1.308c-0.858,0.856-1.288,2.104-1.288,3.743v13.934h-4.544
				V194.508z"/>
			<path fill="#FFFFFF" d="M330.528,217.429c0,1.878,0.524,3.305,1.571,4.28c0.975,0.992,2.256,1.488,3.842,1.488
				c1.848,0,3.498-0.759,4.954-2.276l3.294,2.906c-2.311,2.551-5.028,3.811-8.153,3.781c-1.192,0-2.355-0.181-3.489-0.541
				c-0.566-0.194-1.119-0.457-1.656-0.788c-0.567-0.284-1.098-0.637-1.592-1.058c-0.959-0.871-1.737-2.086-2.333-3.648
				c-0.654-1.501-0.981-3.451-0.981-5.854c0-2.312,0.283-4.233,0.851-5.764c0.566-1.561,1.293-2.793,2.18-3.693
				c0.901-0.916,1.911-1.576,3.03-1.981c1.104-0.406,2.195-0.607,3.271-0.607c2.587,0.03,4.774,0.908,6.563,2.636
				c1.817,1.757,2.74,4.173,2.769,7.251v3.869H330.528z M340.104,213.56c-0.06-1.825-0.533-3.205-1.422-4.141
				c-0.875-0.89-1.997-1.335-3.366-1.335c-1.37,0-2.492,0.445-3.366,1.335c-0.86,0.936-1.334,2.315-1.421,4.141H340.104z"/>
			<path fill="#FFFFFF" d="M351.321,203.965h4.543v2.477h0.096c1.498-1.846,3.462-2.769,5.891-2.769
				c1.819,0.03,3.404,0.628,4.757,1.795l-3.318,4.06c-0.962-0.782-1.958-1.173-2.992-1.173c-1.164,0-2.162,0.391-2.99,1.172
				c-0.933,0.768-1.413,2.007-1.442,3.721v14.092h-4.543V203.965z"/>
			<path fill="#FFFFFF" d="M383.034,194.508h11.127c4.305,0.031,7.534,1.877,9.687,5.54c0.77,1.23,1.256,2.521,1.46,3.872
				c0.159,1.352,0.239,3.687,0.239,7.004c0,3.526-0.124,5.989-0.37,7.386c-0.117,0.706-0.292,1.336-0.524,1.891
				c-0.247,0.541-0.545,1.104-0.894,1.689c-0.931,1.546-2.227,2.821-3.884,3.827c-1.643,1.081-3.657,1.622-6.043,1.622h-10.798
				V194.508z M387.849,222.657h5.766c2.707,0,4.673-0.956,5.896-2.866c0.539-0.706,0.88-1.602,1.026-2.686
				c0.131-1.068,0.196-3.069,0.196-6.002c0-2.857-0.065-4.904-0.196-6.138c-0.175-1.233-0.59-2.233-1.244-3.001
				c-1.341-1.91-3.233-2.835-5.678-2.774h-5.766V222.657z"/>
			<path fill="#FFFFFF" d="M412.829,203.965h4.544v13.935c0,1.577,0.429,2.811,1.287,3.697c0.844,0.887,1.92,1.33,3.229,1.33
				c1.309,0,2.377-0.443,3.207-1.33c0.843-0.887,1.265-2.12,1.265-3.697v-13.935h4.545v23.374h-4.545v-2.5h-0.087
				c-1.497,1.846-3.45,2.77-5.862,2.77c-1.874-0.03-3.566-0.733-5.077-2.112c-1.642-1.348-2.478-3.342-2.506-5.979V203.965z"/>
			<path fill="#FFFFFF" d="M439.411,220.2c1.851,1.998,4.241,2.997,7.173,2.997c1.313,0,2.384-0.263,3.214-0.788
				c0.832-0.524,1.247-1.261,1.247-2.207c0-0.841-0.248-1.426-0.743-1.757c-0.51-0.345-1.188-0.533-2.032-0.563l-4.021-0.36
				c-1.909-0.18-3.46-0.84-4.655-1.981c-1.223-1.111-1.85-2.665-1.879-4.662c0.029-2.402,0.852-4.203,2.466-5.404
				c1.571-1.201,3.565-1.802,5.98-1.802c1.049,0,1.987,0.067,2.816,0.201c0.829,0.151,1.607,0.36,2.335,0.632
				c1.397,0.585,2.649,1.373,3.755,2.363l-2.82,3.397c-0.874-0.652-1.799-1.189-2.774-1.614c-0.963-0.379-2.07-0.568-3.322-0.568
				c-1.429,0-2.427,0.263-2.995,0.789c-0.598,0.526-0.896,1.203-0.896,2.029c-0.03,0.526,0.195,0.984,0.677,1.376
				c0.437,0.435,1.208,0.713,2.316,0.833l3.759,0.294c2.36,0.18,4.064,0.916,5.113,2.209c0.976,1.263,1.465,2.863,1.465,4.802
				c-0.03,2.271-0.924,4.021-2.684,5.253c-1.746,1.263-3.979,1.909-6.698,1.939c-3.694,0-7.018-1.395-9.971-4.187L439.411,220.2z"/>
			<path fill="#FFFFFF" d="M462.308,196.85h4.545v7.115h3.314v3.602h-3.314v13.626c-0.03,1.187,0.508,1.765,1.614,1.734h1.7v4.412
				h-2.372c-1.598,0-2.903-0.511-3.919-1.53c-1.045-0.975-1.568-2.384-1.568-4.229v-14.014h-2.281v-3.602h2.281V196.85z"/>
			<path fill="#FFFFFF" d="M479.421,217.429c0,1.878,0.524,3.305,1.571,4.28c0.976,0.992,2.256,1.488,3.842,1.488
				c1.848,0,3.499-0.759,4.954-2.276l3.294,2.906c-2.311,2.551-5.028,3.811-8.153,3.781c-1.192,0-2.355-0.181-3.489-0.541
				c-0.566-0.194-1.119-0.457-1.656-0.788c-0.566-0.284-1.098-0.637-1.592-1.058c-0.959-0.871-1.737-2.086-2.333-3.648
				c-0.654-1.501-0.981-3.451-0.981-5.854c0-2.312,0.283-4.233,0.851-5.764c0.566-1.561,1.293-2.793,2.18-3.693
				c0.901-0.916,1.911-1.576,3.03-1.981c1.104-0.406,2.195-0.607,3.271-0.607c2.587,0.03,4.774,0.908,6.563,2.636
				c1.816,1.757,2.74,4.173,2.77,7.251v3.869H479.421z M488.996,213.56c-0.06-1.825-0.533-3.205-1.422-4.141
				c-0.875-0.89-1.997-1.335-3.366-1.335s-2.491,0.445-3.366,1.335c-0.859,0.936-1.333,2.315-1.421,4.141H488.996z"/>
			<path fill="#FFFFFF" d="M500.214,203.965h4.544v2.477h0.095c1.498-1.846,3.462-2.769,5.892-2.769
				c1.818,0.03,3.403,0.628,4.756,1.795l-3.318,4.06c-0.962-0.782-1.958-1.173-2.991-1.173c-1.165,0-2.162,0.391-2.991,1.172
				c-0.932,0.768-1.413,2.007-1.441,3.721v14.092h-4.544V203.965z"/>
		</g>
	</g>
	<g>
		<g>
			<path fill="#FFFFFF" d="M85.509,96.738c-7.01,12.997-22.197,25.995-43.373,36.363c-3.213-4.966-6.718-8.032-12.413-11.246
				c18.692-5.548,29.499-11.974,41.035-24.825c8.033-8.762,13.582-23.074,15.188-44.103c-21.613,0.146-38.115,0.584-50.381,1.315
				v-14.02c12.559,0.876,29.062,1.315,50.966,1.461c0.876-18.109,0.73-29.062-0.146-37.385c5.549,0.73,11.829,1.168,16.648,0.876
				c2.336-0.146,2.629,0.73,0.584,2.191c-1.753,1.314-2.336,4.235-2.629,8.616c-0.584,9.638-1.168,18.839-1.752,25.703
				c23.511,0,40.89-0.439,53.887-1.461v14.02c-13.143-0.876-30.813-1.315-54.618-1.315c3.944,17.524,12.705,33.734,25.557,46.293
				c8.907,8.763,22.051,15.626,34.172,17.379c-5.841,4.088-9.492,9.054-12.267,15.625c-12.998-6.426-27.163-18.4-34.61-28.623
				c-7.156-9.639-11.537-20.007-15.48-34.172C93.541,80.82,90.328,87.976,85.509,96.738z"/>
			<path fill="#FFFFFF" d="M206.568,43.144c-9.784,0-17.669,0.438-23.219,1.168V31.753c5.55,0.73,13.435,1.168,23.219,1.168
				c0-14.75-0.73-23.658-1.606-27.893c5.258,0.876,9.055,1.168,13.144,1.022c4.527-0.146,5.111,1.168,2.044,3.651
				c-2.191,1.606-2.483,2.92-2.483,5.403v17.816c8.032-0.146,15.333-0.438,20.006-1.168v12.559
				c-4.673-0.73-11.975-1.022-20.006-1.168V69.43c6.717-2.483,12.997-5.111,18.546-7.886c-0.438,5.111-0.438,8.616,0,12.559
				c-6.133,2.045-12.413,4.235-18.546,6.718v35.925c0,15.334-1.607,16.939-23.658,19.86c-0.438-5.11-2.336-9.93-5.842-14.896
				c17.086,1.606,18.4,0.877,18.4-5.11V85.494c-8.031,3.359-15.188,7.009-20.006,10.222c-0.876-5.403-2.483-10.807-4.527-15.188
				c7.74-2.044,16.21-4.381,24.534-7.155V43.144z M292.875,29.417c-35.34,0-42.935,0.292-49.798,1.168V17.295
				c7.302,1.022,14.75,1.314,31.251,1.314c16.355,0,25.849-0.584,32.127-1.314c-0.729,5.549-1.021,10.222-1.021,20.007v71.411
				c0,8.032,0.291,17.085,1.167,24.534h-13.727v-13.874c-31.251-0.292-41.766,0.146-53.887,1.314v-13.434
				c12.413,0.875,23.073,1.313,53.887,1.167V72.35c-24.973,0-34.756,0.293-43.957,1.169V61.544
				c9.493,0.73,18.984,1.022,43.957,1.022V29.417z"/>
			<path fill="#FFFFFF" d="M370.27,57.163c10.368,11.099,13.289,21.467,13.289,28.331c0,13.727-7.302,20.737-20.443,23.22
				c-1.17-4.965-2.775-8.178-6.572-13.289c11.098,0.438,15.188-2.337,15.771-11.245c0.292-5.257-4.089-16.064-12.852-26.724
				l12.852-34.026h-19.423V136.46h-12.56c1.023-12.705,1.315-21.905,1.315-34.172v-75.5c0-5.549-0.438-11.829-1.023-14.457
				c5.696,0.438,13.728,0.73,24.097,0.73c10.223,0,17.962-0.292,23.658-0.73L370.27,57.163z M400.354,108.275
				c-2.775,4.673-8.032,12.412-12.998,17.962c-3.65-3.212-6.426-4.527-11.244-5.842c8.908-8.177,15.188-17.086,20.884-29.207
				c3.504,2.19,7.446,4.089,10.514,4.965c3.213,0.73,3.067,2.774,0.729,3.505C406.779,100.097,403.566,102.872,400.354,108.275z
				 M400.354,57.455v-8.762c-3.506,3.943-7.449,7.886-12.413,12.559c-2.774-2.921-5.987-5.111-10.369-7.155
				c19.569-15.48,31.105-33.004,36.071-51.843c5.11,2.044,11.391,3.358,15.771,3.797c2.775,0.292,3.066,1.606-0.292,2.92
				c-0.73,0.292-1.606,0.876-2.337,1.607c7.74,17.67,25.849,31.397,42.643,34.318c-4.966,4.672-6.863,7.885-8.324,12.997
				c-4.673-1.606-10.66-5.111-16.794-9.93v9.492c-3.943-0.438-9.639-0.876-16.356-1.022v16.356
				c12.268-0.146,22.344-0.584,29.208-1.461v13.144c-6.864-0.876-16.94-1.315-29.208-1.46v35.632
				c0,12.413-2.92,16.502-21.467,17.378c-0.876-4.381-2.92-9.492-5.549-13.581c13.872,1.46,15.041,0.876,15.041-9.492V83.011
				c-11.975,0.146-20.444,0.584-27.308,1.46V71.328c7.009,0.876,15.333,1.315,27.308,1.461V56.287
				C409.261,56.433,404.441,56.871,400.354,57.455z M421.527,47.232c8.471,0,15.918-0.292,20.738-0.876
				c-8.616-7.301-16.939-17.231-20.738-28.331c-6.863,12.267-11.828,20.007-19.13,28.331
				C407.363,46.94,413.058,47.232,421.527,47.232z M454.678,125.507c-4.526-8.032-13.727-19.568-21.321-27.746l8.616-6.572
				c6.864,7.302,17.671,19.715,23.365,26.871L454.678,125.507z"/>
		</g>
	</g>
</g>
</svg>
