<?xml version="1.0" encoding="utf-8"?>
<!-- Generator: Adobe Illustrator 16.0.3, SVG Export Plug-In . SVG Version: 6.00 Build 0)  -->
<!DOCTYPE svg PUBLIC "-//W3C//DTD SVG 1.1//EN" "http://www.w3.org/Graphics/SVG/1.1/DTD/svg11.dtd" [
	<!ENTITY ns_flows "http://ns.adobe.com/Flows/1.0/">
	<!ENTITY ns_extend "http://ns.adobe.com/Extensibility/1.0/">
	<!ENTITY ns_ai "http://ns.adobe.com/AdobeIllustrator/10.0/">
	<!ENTITY ns_graphs "http://ns.adobe.com/Graphs/1.0/">
]>
<svg version="1.1" id="Layer_1" xmlns:x="&ns_extend;" xmlns:i="&ns_ai;" xmlns:graph="&ns_graphs;"
	 xmlns="http://www.w3.org/2000/svg" xmlns:xlink="http://www.w3.org/1999/xlink" xmlns:a="http://ns.adobe.com/AdobeSVGViewerExtensions/3.0/"
	 x="0px" y="0px" width="64px" height="296px" viewBox="0 0 64 296" enable-background="new 0 0 64 296" xml:space="preserve">
<g>
	<g>
		<path fill="#F6EB16" d="M8.192,31.194c-1.238,2.134-2.667,2.731-4.288,1.792c-0.684-0.426-1.015-1.034-0.992-1.824
			c0.021-0.789,0.373-1.695,1.056-2.72c0.938-1.45,1.824-3.04,2.656-4.768c0.832-1.729,1.6-3.488,2.304-5.28
			s1.322-3.573,1.856-5.344c0.533-1.771,0.949-3.445,1.248-5.024c0.384-2.261,1.344-3.328,2.88-3.2
			c1.108,0.043,1.824,0.396,2.144,1.057c0.32,0.662,0.353,1.61,0.097,2.848c-0.215,0.982-0.471,2.027-0.769,3.136
			c-0.299,1.11-0.64,2.219-1.023,3.328h15.231v-9.92c0-0.981,0.192-1.674,0.576-2.08c0.384-0.405,1.024-0.607,1.92-0.607
			c0.81,0,1.418,0.182,1.824,0.544c0.405,0.362,0.607,1.077,0.607,2.144v9.92h21.248c0.981,0,1.674,0.192,2.08,0.576
			c0.405,0.384,0.608,1.023,0.608,1.92c0,0.811-0.183,1.419-0.544,1.824c-0.363,0.405-1.078,0.607-2.145,0.607H35.52v15.36h18.24
			c0.981,0,1.674,0.192,2.08,0.576c0.405,0.384,0.608,1.023,0.608,1.92c0,0.854-0.183,1.482-0.544,1.888
			c-0.363,0.406-1.078,0.608-2.145,0.608H35.52v16.512h23.809c0.98,0,1.674,0.192,2.08,0.576c0.404,0.384,0.607,1.002,0.607,1.855
			s-0.182,1.482-0.544,1.889c-0.362,0.404-1.078,0.607-2.144,0.607H4.672c-1.066,0-1.782-0.203-2.144-0.607
			c-0.363-0.406-0.544-1.035-0.544-1.889s0.191-1.472,0.575-1.855c0.385-0.384,1.089-0.576,2.112-0.576h25.92V40.475H10.624
			c-1.067,0-1.782-0.202-2.144-0.608c-0.363-0.405-0.545-1.034-0.545-1.888c0-0.896,0.192-1.536,0.576-1.92s1.088-0.576,2.112-0.576
			h19.968v-15.36H13.568c-0.769,1.92-1.611,3.819-2.528,5.696C10.122,27.696,9.173,29.488,8.192,31.194z"/>
		<path fill="#F6EB16" d="M13.248,126.042c-0.47,1.323-0.928,2.496-1.376,3.521c-0.448,1.023-0.939,1.973-1.472,2.848
			c-0.534,0.874-1.143,1.706-1.824,2.496c-0.684,0.789-1.473,1.589-2.368,2.399c-1.024,0.938-1.867,1.408-2.528,1.408
			c-0.662,0-1.291-0.342-1.888-1.023c-0.512-0.684-0.704-1.303-0.576-1.856c0.128-0.555,0.618-1.238,1.473-2.048
			c1.492-1.408,2.688-2.848,3.584-4.32c0.896-1.472,1.642-3.168,2.239-5.088c0.341-1.279,0.8-2.09,1.376-2.432
			c0.576-0.341,1.376-0.277,2.4,0.191c0.853,0.343,1.322,0.812,1.408,1.408C13.781,124.145,13.632,124.977,13.248,126.042z
			 M62.336,97.05c0,0.854-0.16,1.451-0.48,1.792c-0.319,0.343-1.014,0.513-2.079,0.513H4.352c-0.981,0-1.643-0.16-1.983-0.48
			c-0.342-0.319-0.512-0.906-0.512-1.76s0.159-1.482,0.479-1.888s0.992-0.608,2.016-0.608h14.4c-0.171-0.554-0.363-1.13-0.576-1.728
			c-0.214-0.598-0.448-1.237-0.704-1.92c-0.256-0.555-0.342-1.131-0.256-1.729H8c-0.982,0-1.643-0.192-1.984-0.576
			s-0.512-0.98-0.512-1.792c0-0.853,0.16-1.472,0.48-1.855C6.304,84.634,6.976,84.442,8,84.442h21.824
			c-0.128-0.426-0.256-0.842-0.384-1.248c-0.129-0.405-0.278-0.821-0.448-1.248c-0.342-0.981-0.406-1.696-0.192-2.145
			c0.213-0.447,0.704-0.8,1.472-1.056c0.769-0.213,1.419-0.213,1.952,0c0.533,0.214,1.034,0.918,1.504,2.112
			c0.214,0.598,0.427,1.195,0.641,1.792c0.213,0.598,0.404,1.195,0.576,1.792h22.144c0.981,0,1.642,0.182,1.984,0.544
			c0.341,0.363,0.512,0.971,0.512,1.824c0,0.811-0.171,1.419-0.512,1.823c-0.343,0.406-1.003,0.608-1.984,0.608h-9.664
			c0,0.299-0.032,0.608-0.096,0.928c-0.064,0.32-0.14,0.694-0.225,1.12c-0.214,0.556-0.427,1.11-0.64,1.664
			c-0.214,0.555-0.448,1.11-0.704,1.664h14.017c0.938,0,1.6,0.192,1.983,0.576S62.336,96.197,62.336,97.05z M54.656,115.546
			c0,1.878-0.343,3.211-1.024,4c-0.683,0.79-1.984,1.185-3.904,1.185H13.696c-1.878,0-3.147-0.395-3.809-1.185
			c-0.662-0.789-0.992-2.122-0.992-4v-8.447c0-1.834,0.33-3.137,0.992-3.904c0.661-0.769,1.931-1.152,3.809-1.152h36.031
			c1.92,0,3.222,0.374,3.904,1.12c0.682,0.747,1.024,2.06,1.024,3.937V115.546z M49.792,107.482c0-0.641-0.256-0.96-0.769-0.96
			h-34.56c-0.427,0-0.64,0.319-0.64,0.96v1.664h35.968V107.482z M49.792,113.307H13.824v1.92c0,0.683,0.213,1.023,0.64,1.023h34.56
			c0.513,0,0.769-0.341,0.769-1.023V113.307z M49.536,130.395c0,2.261-0.576,4.096-1.729,5.504c-1.151,1.407-2.773,2.368-4.863,2.88
			c-0.896,0.213-2.135,0.352-3.713,0.416c-1.578,0.063-3.222,0.085-4.928,0.063c-1.707-0.021-3.328-0.074-4.863-0.16
			c-1.536-0.086-2.731-0.171-3.585-0.256c-2.901-0.299-5.046-1.322-6.432-3.071c-1.387-1.75-2.08-3.904-2.08-6.464v-5.12
			c0-1.024,0.192-1.686,0.576-1.984c0.384-0.298,1.002-0.448,1.856-0.448c0.896,0,1.535,0.15,1.92,0.448
			c0.384,0.299,0.575,0.96,0.575,1.984v4.224c0,1.792,0.373,3.189,1.12,4.192c0.746,1.002,1.952,1.589,3.616,1.76
			c0.769,0.085,1.792,0.138,3.072,0.16c1.28,0.021,2.634,0.021,4.063,0c1.43-0.022,2.837-0.055,4.225-0.097
			c1.386-0.043,2.549-0.106,3.487-0.191c0.938-0.171,1.601-0.608,1.984-1.313s0.618-1.653,0.704-2.848
			c0.085-0.982,0.288-1.664,0.608-2.048c0.319-0.384,0.97-0.576,1.951-0.576C48.725,127.45,49.536,128.433,49.536,130.395z
			 M42.624,90.139c0.042-0.299,0.148-0.598,0.32-0.896H21.76c0,0.128,0.042,0.235,0.128,0.32c0.256,0.683,0.513,1.439,0.769,2.271
			s0.532,1.76,0.832,2.784h17.216c0.512-0.98,0.906-1.813,1.184-2.496C42.165,91.44,42.41,90.778,42.624,90.139z M38.72,127.706
			c0.726,0.982,1.045,1.813,0.96,2.496c-0.086,0.682-0.534,1.301-1.344,1.856c-1.494,0.896-2.795,0.361-3.904-1.601
			c-0.64-0.981-1.216-1.834-1.728-2.56s-1.195-1.493-2.048-2.305c-0.684-0.64-1.046-1.333-1.088-2.079
			c-0.043-0.746,0.233-1.397,0.832-1.952c0.341-0.342,0.874-0.501,1.6-0.48c0.725,0.022,1.514,0.416,2.368,1.185
			c0.469,0.512,0.885,0.981,1.248,1.407c0.361,0.428,0.714,0.854,1.056,1.28c0.341,0.427,0.672,0.854,0.992,1.28
			C37.984,126.661,38.336,127.152,38.72,127.706z M61.439,133.658c0.513,0.725,0.789,1.418,0.832,2.08
			c0.042,0.661-0.277,1.29-0.96,1.888c-0.811,0.726-1.567,0.949-2.271,0.672s-1.44-1.014-2.208-2.208
			c-0.214-0.342-0.662-0.896-1.344-1.664c-0.684-0.768-1.451-1.61-2.305-2.527c-0.854-0.918-1.728-1.824-2.624-2.721
			c-0.896-0.896-1.686-1.642-2.367-2.239c-1.067-0.938-1.644-1.771-1.729-2.496c-0.086-0.726,0.277-1.473,1.088-2.24
			c0.683-0.469,1.29-0.64,1.824-0.512c0.533,0.128,1.29,0.598,2.271,1.408c0.981,0.896,1.963,1.855,2.944,2.88
			c0.981,1.023,1.909,2.016,2.784,2.976c0.874,0.96,1.664,1.845,2.368,2.656C60.448,132.42,61.013,133.104,61.439,133.658z"/>
		<path fill="#F6EB16" d="M22.976,194.138c0.555,0.428,0.874,0.992,0.96,1.696c0.085,0.704-0.234,1.568-0.96,2.592
			c-0.64,1.024-1.59,2.315-2.848,3.872c-1.259,1.559-2.614,3.179-4.063,4.864c-1.451,1.685-2.924,3.296-4.416,4.832
			c-1.494,1.536-2.774,2.772-3.841,3.712c-2.091,1.706-3.627,1.77-4.607,0.191c-0.47-0.726-0.534-1.397-0.192-2.016
			c0.341-0.619,1.045-1.376,2.112-2.271c0.896-0.727,2.005-1.782,3.328-3.168c1.321-1.388,2.666-2.869,4.031-4.448
			c1.365-1.578,2.646-3.136,3.841-4.672c1.193-1.536,2.111-2.837,2.752-3.904c0.597-0.938,1.248-1.504,1.952-1.696
			C21.728,193.53,22.378,193.669,22.976,194.138z M58.176,186.842c0.896,0,1.546,0.225,1.952,0.672
			c0.405,0.448,0.608,1.015,0.608,1.696c0,0.683-0.215,1.248-0.641,1.696c-0.427,0.447-1.066,0.672-1.92,0.672H5.888
			c-0.811,0-1.439-0.225-1.888-0.672c-0.448-0.448-0.672-1.014-0.672-1.696c0-0.682,0.213-1.248,0.64-1.696
			c0.426-0.447,1.066-0.672,1.92-0.672h35.968c1.834-4.138,3.498-8.245,4.992-12.319c1.493-4.074,2.794-8.054,3.904-11.937
			c0.298-1.023,0.64-1.77,1.024-2.24c0.384-0.469,1.065-0.575,2.048-0.319c0.98,0.299,1.578,0.778,1.792,1.439
			c0.213,0.662,0.148,1.526-0.192,2.592c-1.11,3.542-2.39,7.275-3.84,11.2c-1.451,3.926-3.008,7.787-4.672,11.584H58.176z
			 M18.176,181.274c0.384,1.45,0.469,2.57,0.256,3.359c-0.214,0.79-0.683,1.291-1.407,1.504c-0.939,0.214-1.654,0.107-2.145-0.319
			c-0.491-0.427-0.928-1.365-1.312-2.816c-0.769-2.816-1.644-5.738-2.624-8.768c-0.982-3.029-2.07-5.824-3.265-8.385
			c-0.47-0.98-0.65-1.76-0.544-2.336c0.106-0.575,0.501-1.056,1.185-1.439c0.768-0.469,1.504-0.586,2.208-0.353
			c0.704,0.235,1.248,0.822,1.632,1.761c1.108,2.815,2.197,5.771,3.264,8.863C16.49,175.44,17.408,178.416,18.176,181.274z
			 M35.904,180.186c0.17,1.622,0.116,2.742-0.16,3.36c-0.278,0.619-0.843,1.014-1.696,1.185c-0.981,0.214-1.718,0.043-2.208-0.513
			c-0.491-0.554-0.779-1.6-0.864-3.136c-0.043-0.896-0.182-2.208-0.416-3.936c-0.234-1.729-0.533-3.584-0.896-5.568
			c-0.363-1.984-0.747-3.937-1.152-5.856c-0.406-1.92-0.8-3.477-1.184-4.672c-0.342-1.108-0.438-1.93-0.288-2.464
			c0.148-0.533,0.608-0.928,1.376-1.184c0.896-0.298,1.632-0.256,2.208,0.128s0.992,1.023,1.248,1.92
			c0.469,1.622,0.928,3.424,1.376,5.408c0.448,1.983,0.853,3.946,1.216,5.888c0.362,1.942,0.672,3.755,0.928,5.439
			C35.647,177.872,35.818,179.205,35.904,180.186z M60.479,215.642c-0.683,0.683-1.354,0.96-2.016,0.832
			c-0.662-0.128-1.483-0.811-2.464-2.048c-2.134-2.603-4.512-5.248-7.136-7.936c-2.624-2.688-5.366-5.333-8.225-7.937
			c-0.598-0.597-1.003-1.205-1.216-1.824c-0.214-0.617-0.043-1.247,0.512-1.888c1.109-1.365,2.347-1.386,3.712-0.063
			c3.2,2.943,6.165,5.823,8.896,8.64c2.729,2.816,5.013,5.312,6.848,7.488c1.024,1.236,1.601,2.196,1.729,2.88
			C61.248,214.468,61.034,215.087,60.479,215.642z"/>
		<path fill="#F6EB16" d="M15.616,253.85c-0.256,0.641-0.438,1.163-0.544,1.568c-0.107,0.406-0.15,0.779-0.128,1.12
			c0.021,0.342,0.138,0.704,0.352,1.088c0.213,0.384,0.533,0.896,0.96,1.536c1.152,1.707,2.026,3.499,2.624,5.376
			c0.597,1.878,0.896,3.968,0.896,6.271c0,0.727-0.022,1.431-0.064,2.112c-0.043,0.683-0.107,1.366-0.192,2.048
			c-0.128,1.152-0.427,2.188-0.896,3.104c-0.47,0.918-1.056,1.686-1.76,2.304c-0.704,0.619-1.504,1.099-2.4,1.439
			c-0.896,0.343-1.813,0.513-2.752,0.513s-1.888-0.16-2.848-0.48s-1.59-0.864-1.889-1.632v11.2c0,0.81-0.182,1.386-0.544,1.728
			c-0.362,0.341-0.991,0.513-1.888,0.513c-0.938,0-1.579-0.16-1.92-0.48c-0.342-0.32-0.512-0.907-0.512-1.76v-50.432
			c0-1.921,0.384-3.285,1.151-4.097c0.769-0.81,2.24-1.216,4.416-1.216h8.192c1.792,0,3.008,0.587,3.647,1.76
			c0.641,1.174,0.704,2.528,0.192,4.064L15.616,253.85z M6.976,278.298c0.214-0.769,0.586-1.248,1.12-1.44
			c0.533-0.191,1.162-0.159,1.889,0.097c0.938,0.384,1.737,0.512,2.399,0.384c0.661-0.128,1.194-0.458,1.601-0.992
			c0.404-0.533,0.692-1.237,0.863-2.112c0.17-0.874,0.256-1.865,0.256-2.976c0-0.768-0.054-1.578-0.159-2.432
			c-0.107-0.854-0.246-1.686-0.416-2.496c-0.171-0.811-0.385-1.558-0.641-2.24c-0.256-0.682-0.534-1.237-0.832-1.664
			c-0.938-1.237-1.632-2.261-2.08-3.072c-0.447-0.81-0.672-1.706-0.672-2.688c0-0.683,0.139-1.473,0.416-2.368
			c0.277-0.896,0.629-1.92,1.057-3.072c0.512-1.493,1.013-2.965,1.504-4.416c0.489-1.45,0.97-3.028,1.439-4.735
			c0.298-1.066-0.021-1.601-0.96-1.601H8.128c-0.768,0-1.152,0.363-1.152,1.088V278.298z M23.04,248.985
			c-0.896,0.513-1.632,0.694-2.208,0.545s-1.035-0.587-1.376-1.313c-0.384-0.768-0.427-1.429-0.128-1.984
			c0.298-0.554,0.832-1.088,1.6-1.6c1.066-0.725,2.017-1.429,2.849-2.112c0.832-0.682,1.577-1.386,2.239-2.111
			c0.661-0.726,1.28-1.515,1.856-2.368s1.162-1.834,1.76-2.944c0.469-0.853,0.949-1.472,1.44-1.855
			c0.489-0.385,1.141-0.448,1.952-0.192c1.321,0.427,1.92,1.216,1.792,2.368H51.84c1.408,0,2.561,0.203,3.456,0.607
			c0.896,0.406,1.514,0.961,1.856,1.664c0.341,0.704,0.384,1.504,0.128,2.4c-0.257,0.896-0.854,1.835-1.792,2.816
			c-1.366,1.45-2.774,2.773-4.225,3.968c-1.451,1.194-2.923,2.283-4.416,3.264c2.39,1.195,4.672,2.208,6.849,3.04
			c2.176,0.832,4.288,1.568,6.336,2.208c1.108,0.342,1.888,0.747,2.336,1.216c0.447,0.471,0.564,1.088,0.352,1.856
			c-0.214,0.981-0.607,1.622-1.184,1.92c-0.576,0.299-1.504,0.214-2.784-0.256c-0.812-0.213-1.632-0.47-2.464-0.769
			c-0.832-0.298-1.696-0.618-2.592-0.96c0.341,0.342,0.512,0.918,0.512,1.729c0,1.494-0.683,2.239-2.048,2.239H29.504
			c-0.768,0-1.312-0.17-1.632-0.512c-0.32-0.341-0.48-0.917-0.48-1.728c0-0.341,0.042-0.726,0.128-1.152
			c-0.854,0.299-1.718,0.576-2.592,0.832c-0.875,0.256-1.803,0.512-2.784,0.768c-1.365,0.385-2.325,0.491-2.88,0.32
			c-0.555-0.17-0.96-0.682-1.216-1.536c-0.256-0.938-0.191-1.652,0.192-2.144c0.384-0.49,1.258-0.928,2.624-1.313
			c2.772-0.725,5.589-1.589,8.447-2.592c2.858-1.002,5.505-2.058,7.937-3.168c-1.494-0.98-2.88-1.983-4.16-3.008
			s-2.518-2.112-3.712-3.264c-0.939,0.938-1.931,1.835-2.976,2.688c-1.047,0.854-2.166,1.644-3.36,2.368V248.985z M25.536,281.754
			c-0.769,0-1.313-0.202-1.632-0.608c-0.32-0.404-0.48-0.97-0.48-1.695c0-0.769,0.128-1.345,0.384-1.729
			c-0.555,0.47-1.142,0.683-1.76,0.64c-0.619-0.042-1.184-0.361-1.696-0.96c-0.512-0.597-0.672-1.173-0.479-1.728
			c0.191-0.554,0.586-1.152,1.184-1.792c2.177-2.346,3.754-5.418,4.736-9.216c0.17-0.769,0.469-1.333,0.896-1.696
			c0.427-0.362,1.024-0.437,1.792-0.224c0.981,0.214,1.547,0.683,1.696,1.407c0.149,0.727,0.117,1.408-0.096,2.049
			c-0.086,0.214-0.15,0.416-0.192,0.607c-0.043,0.192-0.106,0.396-0.191,0.608h8.64v-2.561c0-0.938,0.192-1.567,0.576-1.888
			s1.023-0.479,1.92-0.479c0.853,0,1.45,0.182,1.792,0.544c0.341,0.362,0.512,0.971,0.512,1.823v2.561h14.849
			c0.81,0,1.376,0.182,1.695,0.544c0.32,0.363,0.48,0.971,0.48,1.824c0,0.726-0.16,1.279-0.48,1.664
			c-0.319,0.384-0.886,0.575-1.695,0.575H43.136v5.057h13.696c0.81,0,1.386,0.182,1.728,0.544c0.342,0.363,0.513,0.971,0.513,1.824
			c0,0.726-0.171,1.291-0.513,1.695c-0.342,0.406-0.918,0.608-1.728,0.608H43.136v5.952H59.52c0.811,0,1.408,0.148,1.792,0.447
			c0.385,0.299,0.576,0.896,0.576,1.792c0,0.896-0.191,1.515-0.576,1.856c-0.384,0.341-0.981,0.512-1.792,0.512H21.376
			c-0.854,0-1.494-0.171-1.92-0.512c-0.427-0.342-0.64-0.96-0.64-1.856c0-0.896,0.213-1.493,0.64-1.792
			c0.426-0.299,1.065-0.447,1.92-0.447h16.96v-5.952H25.536z M24.128,277.401c0.341-0.213,0.81-0.319,1.408-0.319h12.8v-5.057
			H27.904c-0.471,0.896-1.003,1.782-1.601,2.656C25.706,275.557,24.98,276.464,24.128,277.401z M52.16,257.754
			c-1.707-0.682-3.414-1.429-5.12-2.24c-1.707-0.81-3.351-1.642-4.928-2.496c-1.622,0.854-3.308,1.675-5.057,2.464
			c-1.75,0.79-3.712,1.548-5.888,2.272H52.16z M32.448,240.282c1.364,1.322,2.857,2.603,4.479,3.84
			c1.621,1.237,3.37,2.411,5.248,3.52c3.072-1.834,5.653-3.754,7.744-5.76c0.597-0.597,0.81-1.013,0.64-1.248
			c-0.171-0.234-0.575-0.352-1.216-0.352H32.448z"/>
	</g>
</g>
</svg>
