<?xml version="1.0" encoding="utf-8"?>
<!-- Generator: Adobe Illustrator 16.0.3, SVG Export Plug-In . SVG Version: 6.00 Build 0)  -->
<!DOCTYPE svg PUBLIC "-//W3C//DTD SVG 1.1//EN" "http://www.w3.org/Graphics/SVG/1.1/DTD/svg11.dtd" [
	<!ENTITY ns_flows "http://ns.adobe.com/Flows/1.0/">
	<!ENTITY ns_extend "http://ns.adobe.com/Extensibility/1.0/">
	<!ENTITY ns_ai "http://ns.adobe.com/AdobeIllustrator/10.0/">
	<!ENTITY ns_graphs "http://ns.adobe.com/Graphs/1.0/">
]>
<svg version="1.1" id="Layer_1" xmlns:x="&ns_extend;" xmlns:i="&ns_ai;" xmlns:graph="&ns_graphs;"
	 xmlns="http://www.w3.org/2000/svg" xmlns:xlink="http://www.w3.org/1999/xlink" xmlns:a="http://ns.adobe.com/AdobeSVGViewerExtensions/3.0/"
	 x="0px" y="0px" width="64px" height="296px" viewBox="0 0 64 296" enable-background="new 0 0 64 296" xml:space="preserve">
<g>
	<g>
		<path fill="#F6EB16" d="M3.904,9.94c-0.854,0-1.44-0.234-1.761-0.704C1.824,8.767,1.664,8.17,1.664,7.444
			c0-0.768,0.138-1.365,0.416-1.792c0.277-0.426,0.885-0.64,1.824-0.64h56.191c0.896,0,1.504,0.214,1.824,0.64
			c0.32,0.427,0.479,1.024,0.479,1.792c0,0.726-0.171,1.323-0.512,1.792c-0.342,0.47-0.938,0.704-1.792,0.704H24.192
			c-0.043,1.835-0.087,3.702-0.129,5.6c-0.043,1.899-0.106,3.616-0.191,5.152h21.76c1.706,0,3.136,0.15,4.288,0.448
			c1.152,0.299,2.069,0.79,2.752,1.472c0.682,0.683,1.162,1.611,1.44,2.784c0.276,1.174,0.416,2.614,0.416,4.32
			c0,1.622-0.064,3.35-0.192,5.184c-0.128,1.835-0.31,3.68-0.544,5.536c-0.235,1.856-0.512,3.648-0.832,5.376
			s-0.672,3.275-1.056,4.64c-0.896,3.029-2.283,5.344-4.16,6.944c-1.878,1.6-4.587,2.4-8.128,2.4c-3.03,0-6.892-0.555-11.584-1.664
			c-1.366-0.342-2.272-0.79-2.721-1.344c-0.447-0.555-0.479-1.323-0.096-2.304c0.384-0.982,0.874-1.536,1.472-1.664
			s1.43-0.086,2.496,0.128c2.177,0.554,4.106,0.97,5.792,1.248c1.686,0.277,3.21,0.416,4.576,0.416c2.218,0,3.872-0.438,4.96-1.312
			c1.088-0.875,1.889-2.123,2.4-3.744c0.725-2.56,1.322-5.568,1.792-9.024c0.469-3.456,0.725-7.232,0.768-11.328
			c0-1.365-0.267-2.282-0.8-2.752c-0.534-0.469-1.696-0.704-3.488-0.704H23.296c-0.938,6.272-2.656,12.022-5.152,17.248
			c-2.495,5.227-6.048,10.101-10.655,14.624c-0.854,0.853-1.664,1.322-2.433,1.408c-0.768,0.085-1.515-0.278-2.239-1.088
			c-0.385-0.64-0.471-1.323-0.257-2.048c0.214-0.726,0.811-1.558,1.792-2.496c2.561-2.304,4.769-4.746,6.624-7.328
			c1.856-2.581,3.402-5.504,4.641-8.768c1.236-3.264,2.153-6.986,2.752-11.168c0.597-4.181,0.896-9.045,0.896-14.592L19.2,9.94
			H3.904z"/>
		<path fill="#F6EB16" d="M34.88,80.852h23.424c1.664,0,2.496,0.726,2.496,2.176c0,1.664-0.832,2.496-2.496,2.496H34.88v3.136
			h15.232c1.877,0,3.253,0.363,4.128,1.088c0.874,0.726,1.312,2.07,1.312,4.032v2.496c0,1.963-0.438,3.296-1.312,4
			c-0.875,0.704-2.251,1.056-4.128,1.056H34.88v3.456h16.192c1.023,0,1.877,0.075,2.56,0.224c0.682,0.15,1.237,0.438,1.664,0.864
			c0.426,0.427,0.725,1.003,0.896,1.728c0.17,0.726,0.256,1.664,0.256,2.816v3.072h3.328c0.725,0,1.289,0.182,1.695,0.544
			c0.405,0.363,0.608,0.928,0.608,1.696c0,0.854-0.203,1.451-0.608,1.792c-0.406,0.342-0.971,0.512-1.695,0.512h-3.328v3.008
			c0,1.067-0.075,1.963-0.225,2.688c-0.149,0.726-0.416,1.312-0.8,1.76c-0.384,0.448-0.928,0.768-1.632,0.96
			s-1.611,0.288-2.72,0.288H34.88v3.712c0,1.024-0.107,1.962-0.32,2.816c-0.214,0.853-0.587,1.578-1.12,2.176
			c-0.533,0.597-1.27,1.056-2.207,1.376c-0.939,0.32-2.112,0.48-3.521,0.48c-1.067,0-2.283-0.096-3.648-0.288
			s-2.986-0.523-4.863-0.992c-1.152-0.342-1.899-0.768-2.24-1.28c-0.342-0.512-0.363-1.195-0.064-2.048
			c0.299-0.854,0.736-1.344,1.313-1.472s1.354-0.064,2.336,0.192c1.621,0.426,3.018,0.746,4.192,0.96
			c1.173,0.213,2.165,0.32,2.976,0.32c1.024,0,1.674-0.182,1.952-0.544c0.277-0.363,0.416-0.992,0.416-1.888v-3.52H8.256
			c-0.683,0-1.227-0.182-1.632-0.544c-0.406-0.362-0.608-0.949-0.608-1.76c0-0.853,0.202-1.44,0.608-1.76
			c0.405-0.32,0.949-0.48,1.632-0.48H30.08v-4.16H4.16c-0.684,0-1.228-0.17-1.632-0.512c-0.406-0.341-0.608-0.938-0.608-1.792
			c0-0.768,0.202-1.333,0.608-1.696c0.404-0.362,0.948-0.544,1.632-0.544h25.92v-4.16H8.512c-1.494,0-2.239-0.746-2.239-2.24
			c0-0.768,0.201-1.344,0.607-1.728c0.405-0.384,0.949-0.576,1.632-0.576H30.08v-3.456H13.632c-1.92,0-3.296-0.352-4.128-1.056
			c-0.832-0.704-1.248-2.037-1.248-4V93.78c0-1.962,0.416-3.306,1.248-4.032c0.832-0.725,2.208-1.088,4.128-1.088H30.08v-3.136
			H5.696c-1.664,0-2.496-0.832-2.496-2.496c0-1.45,0.832-2.176,2.496-2.176H30.08V78.74c0-1.706,0.81-2.56,2.432-2.56
			c1.578,0,2.368,0.854,2.368,2.56V80.852z M12.928,96.083c0,0.555,0.405,0.832,1.216,0.832H30.08v-3.84H14.144
			c-0.811,0-1.216,0.32-1.216,0.96V96.083z M50.88,94.036c0-0.64-0.427-0.96-1.28-0.96H34.88v3.84H49.6
			c0.854,0,1.28-0.277,1.28-0.832V94.036z M34.88,109.332v4.16h16.768v-2.88c0-0.853-0.362-1.28-1.088-1.28H34.88z M50.368,122.196
			c0.341,0,0.64-0.117,0.896-0.352c0.256-0.234,0.384-0.65,0.384-1.248v-2.56H34.88v4.16H50.368z"/>
		<path fill="#F6EB16" d="M3.712,167.443c-0.896,0-1.568-0.224-2.016-0.672c-0.448-0.447-0.672-1.057-0.672-1.824
			c0-0.725,0.224-1.322,0.672-1.791c0.447-0.47,1.12-0.705,2.016-0.705h7.937c0.17-0.938,0.319-1.877,0.447-2.815
			s0.256-1.856,0.384-2.753c0.171-1.407,0.47-2.356,0.896-2.848c0.426-0.49,1.13-0.713,2.112-0.672
			c1.108,0.086,1.813,0.395,2.111,0.928c0.299,0.535,0.342,1.483,0.128,2.849v-0.063c-0.128,0.896-0.256,1.803-0.384,2.719
			c-0.128,0.918-0.277,1.804-0.448,2.656h8.513c1.621,0,2.922,0.512,3.903,1.536s1.45,2.283,1.408,3.776
			c-0.171,5.931-0.907,11.51-2.208,16.736c-1.302,5.227-3.317,9.974-6.048,14.239c1.365,1.238,2.72,2.443,4.064,3.616
			c1.344,1.173,2.634,2.336,3.872,3.488c0.725,0.682,1.184,1.396,1.376,2.144c0.191,0.746-0.032,1.481-0.673,2.208
			c-0.555,0.598-1.194,0.864-1.92,0.801c-0.726-0.064-1.579-0.588-2.56-1.568c-2.39-2.305-4.758-4.545-7.104-6.721
			c-1.92,2.176-4.096,4.16-6.527,5.953c-2.433,1.791-4.928,3.327-7.488,4.607c-1.238,0.597-2.187,0.863-2.848,0.8
			c-0.662-0.063-1.163-0.608-1.504-1.632c-0.256-0.811-0.225-1.504,0.096-2.08s1.013-1.1,2.08-1.568
			c2.218-1.066,4.384-2.379,6.496-3.936c2.111-1.559,4.063-3.424,5.855-5.6c-1.407-1.237-2.827-2.465-4.256-3.681
			c-1.43-1.216-2.891-2.442-4.384-3.68H6.976c-1.407-0.981-2.219-2.037-2.432-3.168c-0.214-1.13,0.042-2.4,0.768-3.808
			c0.981-2.049,1.941-4.619,2.881-7.713c0.938-3.093,1.77-6.346,2.495-9.76H3.712z M15.872,167.443
			c-0.769,3.627-1.632,7.008-2.592,10.145c-0.96,3.136-1.952,5.877-2.977,8.224c-0.256,0.683-0.31,1.259-0.16,1.728
			c0.149,0.471,0.522,0.961,1.12,1.473c1.152,0.982,2.336,2.006,3.553,3.072c1.216,1.066,2.464,2.154,3.743,3.264
			c1.28-1.963,2.347-3.969,3.2-6.016c0.854-2.049,1.558-4.17,2.112-6.369c0.554-2.196,0.97-4.489,1.248-6.879
			c0.276-2.39,0.458-4.929,0.544-7.617c0.042-0.682-0.235-1.023-0.832-1.023H15.872z M58.624,204.308
			c0,2.389-0.384,4.128-1.152,5.216c-0.768,1.088-2.326,1.632-4.672,1.632H39.104c-2.262,0-3.798-0.575-4.607-1.728
			c-0.812-1.152-1.216-2.859-1.216-5.12v-39.872c0-2.475,0.426-4.213,1.279-5.216s2.368-1.505,4.544-1.505h13.824
			c2.176,0,3.669,0.513,4.48,1.537c0.81,1.023,1.216,2.752,1.216,5.184V204.308z M53.504,163.795c0-0.725-0.278-1.088-0.832-1.088
			H39.168c-0.512,0-0.768,0.363-0.768,1.088v41.088c0,0.811,0.256,1.217,0.768,1.217h13.504c0.554,0,0.832-0.406,0.832-1.217
			V163.795z"/>
		<path fill="#F6EB16" d="M13.248,276.819c-0.47,1.323-0.928,2.496-1.376,3.521c-0.448,1.023-0.939,1.973-1.472,2.848
			c-0.534,0.873-1.143,1.705-1.824,2.496c-0.684,0.789-1.473,1.589-2.368,2.399c-1.024,0.938-1.867,1.408-2.528,1.408
			c-0.662,0-1.291-0.342-1.888-1.024c-0.512-0.683-0.704-1.302-0.576-1.855c0.128-0.555,0.618-1.238,1.473-2.048
			c1.492-1.408,2.688-2.849,3.584-4.32c0.896-1.472,1.642-3.168,2.239-5.088c0.341-1.28,0.8-2.09,1.376-2.433
			c0.576-0.34,1.376-0.276,2.4,0.192c0.853,0.343,1.322,0.812,1.408,1.408C13.781,274.922,13.632,275.754,13.248,276.819z
			 M62.336,247.827c0,0.854-0.16,1.451-0.48,1.792c-0.319,0.342-1.014,0.512-2.079,0.512H4.352c-0.981,0-1.643-0.16-1.983-0.479
			c-0.342-0.319-0.512-0.906-0.512-1.761c0-0.853,0.159-1.481,0.479-1.887c0.32-0.406,0.992-0.608,2.016-0.608h14.4
			c-0.171-0.554-0.363-1.13-0.576-1.728c-0.214-0.598-0.448-1.238-0.704-1.92c-0.256-0.555-0.342-1.131-0.256-1.729H8
			c-0.982,0-1.643-0.192-1.984-0.576c-0.342-0.385-0.512-0.98-0.512-1.792c0-0.853,0.16-1.472,0.48-1.856
			c0.319-0.384,0.991-0.576,2.016-0.576h21.824c-0.128-0.426-0.256-0.842-0.384-1.248c-0.129-0.404-0.278-0.82-0.448-1.248
			c-0.342-0.98-0.406-1.695-0.192-2.144c0.213-0.448,0.704-0.8,1.472-1.056c0.769-0.213,1.419-0.213,1.952,0
			c0.533,0.214,1.034,0.918,1.504,2.111c0.214,0.599,0.427,1.195,0.641,1.793c0.213,0.598,0.404,1.195,0.576,1.791h22.144
			c0.981,0,1.642,0.183,1.984,0.545c0.341,0.363,0.512,0.971,0.512,1.824c0,0.811-0.171,1.418-0.512,1.823
			c-0.343,0.406-1.003,0.608-1.984,0.608h-9.664c0,0.299-0.032,0.607-0.096,0.928c-0.064,0.32-0.14,0.693-0.225,1.12
			c-0.214,0.556-0.427,1.11-0.64,1.664c-0.214,0.555-0.448,1.11-0.704,1.664h14.017c0.938,0,1.6,0.192,1.983,0.575
			C62.144,246.355,62.336,246.975,62.336,247.827z M54.656,266.323c0,1.878-0.343,3.211-1.024,4
			c-0.683,0.79-1.984,1.185-3.904,1.185H13.696c-1.878,0-3.147-0.395-3.809-1.185c-0.662-0.789-0.992-2.122-0.992-4v-8.448
			c0-1.834,0.33-3.136,0.992-3.904c0.661-0.768,1.931-1.151,3.809-1.151h36.031c1.92,0,3.222,0.374,3.904,1.12
			c0.682,0.747,1.024,2.059,1.024,3.936V266.323z M49.792,258.26c0-0.641-0.256-0.961-0.769-0.961h-34.56
			c-0.427,0-0.64,0.32-0.64,0.961v1.664h35.968V258.26z M49.792,264.084H13.824v1.92c0,0.682,0.213,1.023,0.64,1.023h34.56
			c0.513,0,0.769-0.342,0.769-1.023V264.084z M49.536,281.172c0,2.26-0.576,4.096-1.729,5.504c-1.151,1.407-2.773,2.367-4.863,2.879
			c-0.896,0.213-2.135,0.353-3.713,0.416c-1.578,0.064-3.222,0.086-4.928,0.064c-1.707-0.021-3.328-0.074-4.863-0.16
			c-1.536-0.086-2.731-0.171-3.585-0.256c-2.901-0.299-5.046-1.322-6.432-3.072c-1.387-1.75-2.08-3.904-2.08-6.463v-5.121
			c0-1.023,0.192-1.685,0.576-1.983c0.384-0.298,1.002-0.448,1.856-0.448c0.896,0,1.535,0.15,1.92,0.448
			c0.384,0.299,0.575,0.96,0.575,1.983v4.225c0,1.792,0.373,3.189,1.12,4.191c0.746,1.002,1.952,1.59,3.616,1.76
			c0.769,0.086,1.792,0.139,3.072,0.16s2.634,0.021,4.063,0s2.837-0.054,4.225-0.096c1.386-0.043,2.549-0.107,3.487-0.191
			c0.938-0.172,1.601-0.608,1.984-1.313s0.618-1.654,0.704-2.848c0.085-0.982,0.288-1.664,0.608-2.049
			c0.319-0.383,0.97-0.576,1.951-0.576C48.725,278.227,49.536,279.209,49.536,281.172z M42.624,240.916
			c0.042-0.299,0.148-0.598,0.32-0.896H21.76c0,0.128,0.042,0.234,0.128,0.32c0.256,0.683,0.513,1.439,0.769,2.271
			s0.532,1.76,0.832,2.784h17.216c0.512-0.981,0.906-1.813,1.184-2.496S42.41,241.555,42.624,240.916z M38.72,278.483
			c0.726,0.981,1.045,1.813,0.96,2.496c-0.086,0.682-0.534,1.301-1.344,1.856c-1.494,0.896-2.795,0.361-3.904-1.601
			c-0.64-0.981-1.216-1.834-1.728-2.56s-1.195-1.494-2.048-2.305c-0.684-0.64-1.046-1.333-1.088-2.08
			c-0.043-0.746,0.233-1.396,0.832-1.951c0.341-0.342,0.874-0.502,1.6-0.48c0.725,0.021,1.514,0.416,2.368,1.184
			c0.469,0.512,0.885,0.982,1.248,1.408c0.361,0.428,0.714,0.854,1.056,1.28c0.341,0.427,0.672,0.854,0.992,1.28
			C37.984,277.438,38.336,277.93,38.72,278.483z M61.439,284.436c0.513,0.725,0.789,1.418,0.832,2.08
			c0.042,0.66-0.277,1.289-0.96,1.888c-0.811,0.726-1.567,0.948-2.271,0.672c-0.704-0.278-1.44-1.015-2.208-2.208
			c-0.214-0.342-0.662-0.896-1.344-1.664c-0.684-0.768-1.451-1.611-2.305-2.527c-0.854-0.918-1.728-1.824-2.624-2.721
			c-0.896-0.896-1.686-1.642-2.367-2.24c-1.067-0.938-1.644-1.77-1.729-2.496c-0.086-0.725,0.277-1.472,1.088-2.239
			c0.683-0.47,1.29-0.64,1.824-0.513c0.533,0.129,1.29,0.599,2.271,1.408c0.981,0.896,1.963,1.856,2.944,2.881
			c0.981,1.023,1.909,2.016,2.784,2.976c0.874,0.96,1.664,1.845,2.368,2.655S61.013,283.881,61.439,284.436z"/>
	</g>
</g>
</svg>
