<?xml version="1.0" encoding="utf-8"?>
<!-- Generator: Adobe Illustrator 16.0.3, SVG Export Plug-In . SVG Version: 6.00 Build 0)  -->
<!DOCTYPE svg PUBLIC "-//W3C//DTD SVG 1.1//EN" "http://www.w3.org/Graphics/SVG/1.1/DTD/svg11.dtd" [
	<!ENTITY ns_flows "http://ns.adobe.com/Flows/1.0/">
	<!ENTITY ns_extend "http://ns.adobe.com/Extensibility/1.0/">
	<!ENTITY ns_ai "http://ns.adobe.com/AdobeIllustrator/10.0/">
	<!ENTITY ns_graphs "http://ns.adobe.com/Graphs/1.0/">
]>
<svg version="1.1" id="Layer_1" xmlns:x="&ns_extend;" xmlns:i="&ns_ai;" xmlns:graph="&ns_graphs;"
	 xmlns="http://www.w3.org/2000/svg" xmlns:xlink="http://www.w3.org/1999/xlink" xmlns:a="http://ns.adobe.com/AdobeSVGViewerExtensions/3.0/"
	 x="0px" y="0px" width="379px" height="190px" viewBox="0 0 379 190" enable-background="new 0 0 379 190" xml:space="preserve">
<g>
	<g>
		<path fill="#FFFFFF" d="M66.356,15.967L38.019,44.646c0,0-6.906,8.993,1.383,8.993h13.132c0,0,7.603-0.692,4.144,5.182
			L44.584,80.253c0,0-4.843,7.252-7.258,1.724v-8.301c0,0-1.723-11.741-11.056-11.741h-7.258c0,0-5.534,1.037-5.534-6.221V19.421
			c0,0-0.339-6.22,5.182-6.22h75.347c0,0,5.88-0.347,5.88,7.603v34.909c0,0,1.031,6.566-4.842,6.566h-7.257
			c0,0-12.452,0.692-12.452,12.786v18.319c0,0-0.34,6.214-4.831,6.214H33.528c0,0-8.295-0.687-8.295,5.188
			c0,0,1.038,6.219,7.603,6.219h37.67c0,0,16.931,0,16.931-16.591V81.977c0,0-0.686-7.263,5.533-7.263
			c0,0,19.006-0.334,19.006-18.314V17.345c0,0-1.724-15.898-15.899-15.898H20.736c0,0-19.696-0.692-19.696,19.357v35.249
			c0,0,0,15.553,13.822,17.622h4.497c0,0,5.874,1.038,5.874,6.226c0,0-0.686,14.861,12.439,16.583
			c13.132,1.742,15.905-8.283,15.905-8.283L76.38,49.142c0,0,3.454-7.252-3.804-7.252H62.211c0,0-7.949,0.346-4.496-7.609
			L66.356,15.967z"/>
		<path fill="#FFFFFF" d="M75.337,120.856c0,3.342-2.54,6.047-5.695,6.047H44.071c-3.155,0-5.701-2.705-5.701-6.047l0,0
			c0-3.338,2.546-6.04,5.701-6.04h25.571C72.797,114.816,75.337,117.519,75.337,120.856L75.337,120.856z"/>
		<path fill="#FFFFFF" d="M177.758,41.711h10.389l7.113,16.87h0.313c-0.044-2.534-0.108-5.158,0.291-7.746l1.419-9.125h10.358
			l-4.723,30.951h-10.357l-7.044-16.501h-0.323c0.037,2.105,0.042,4.08-0.273,6.1l-1.527,10.365h-10.359L177.758,41.711z"/>
		<g>
			<g>
				<polygon fill="#FFFFFF" points="150.81,41.729 127.439,41.729 125.835,50.245 132.829,50.245 129.097,72.381 139.879,72.381 
					143.61,50.245 149.39,50.245 				"/>
			</g>
		</g>
		<polygon fill="#FFFFFF" points="173.088,49.672 174.365,41.873 153.648,41.873 152.373,49.672 152.401,49.672 148.681,72.662 
			169.684,72.662 171.104,64.438 161.257,64.438 161.8,61.027 170.393,61.027 171.669,53.227 163.046,53.227 163.613,49.672 		"/>
		<path fill="#FFFFFF" d="M226.742,72.662h10.495l-5.248-30.903h-12.207L204.45,72.662h11.646l1.235-3.71h9.011L226.742,72.662z
			 M219.716,61.837l4.468-13.316l1.411,13.316H219.716z"/>
		<path fill="#FFFFFF" d="M288.325,72.662h10.507l-5.262-30.789h-12.205l-15.313,30.789h11.634l1.236-3.687h9.016L288.325,72.662z
			 M281.306,61.88l4.467-13.274l1.406,13.274H281.306z"/>
		<path fill="#FFFFFF" d="M268.455,48.712c0,0-3.542-7.663-14.479-7.663c-10.919,0-17.306,7.943-17.306,17.455
			c0,9.512,6.81,14.897,16.311,14.897c0,0,8.235-0.566,11.641-4.108l2.981-14.2h-15.047v5.677h3.841c0,0,0.704,5.111-3.69,5.111
			c-4.724,0-5.594-5.785-5.253-9.362c0.243-2.547,1.974-7.949,7.102-7.949c0,0,2.684-0.15,4.389,3.119L268.455,48.712z"/>
		<path fill="#FFFFFF" d="M269.851,80.391h10.306l7.035,17.018h0.311c-0.03-2.563-0.103-5.211,0.298-7.817l1.396-9.201h10.264
			l-4.676,30.704h-10.259l-6.987-16.125h-0.315c0.041,2.118,0.048,4.116-0.263,6.142l-1.515,9.982h-10.275L269.851,80.391z"/>
		<path fill="#FFFFFF" d="M318.595,111.055h10.406L323.8,80.432h-12.099l-15.183,30.623h11.531l1.235-3.67h8.916L318.595,111.055z
			 M311.641,100.338l4.431-13.197l1.391,13.197H311.641z"/>
		<path fill="#FFFFFF" d="M131.393,80.461h10.298l7.043,16.972h0.316c-0.035-2.564-0.107-5.206,0.286-7.8l1.401-9.172h10.263
			l-4.676,30.598h-10.263l-6.977-16.065h-0.322c0.03,2.098,0.042,4.097-0.269,6.118l-1.52,9.947h-10.257L131.393,80.461z"/>
		<path fill="#FFFFFF" d="M335.573,80.354h10.733l-3.184,21.735h9.004l-1.504,8.97h-19.731L335.573,80.354z"/>
		<path fill="#FFFFFF" d="M180.168,111.179h10.399l-5.2-30.729h-12.088l-15.188,30.729h11.533l1.222-3.692h8.939L180.168,111.179z
			 M173.214,100.415l4.424-13.245l1.396,13.245H173.214z"/>
		<path fill="#FFFFFF" d="M217.266,83.247c0,0-3.972-3.478-11.498-3.478c-7.513,0-11.063,4.599-11.063,8.928
			c0,4.318,2.41,7.95,5.534,9.35c3.119,1.385,6.096,1.945,6.096,4.599s-8.51,2.372-11.778-3.346l-4.108,7.251
			c0,0,3.262,5.296,12.2,5.296c8.945,0,13.628-6.548,13.628-11.704c0-5.167-5.255-6.991-5.255-6.991s-6.238-0.978-6.238-3.62
			c0-2.654,4.396-3.482,8.368,0L217.266,83.247z"/>
		<polygon fill="#FFFFFF" points="232.329,80.395 221.542,80.395 216.286,111.12 227.068,111.12 		"/>
		<g>
			<g>
				<path fill="#FFFFFF" d="M259.295,83.473c-6.277-5.265-16.44-4.061-22.713,2.696c-6.274,6.75-6.269,16.495,0,21.76
					c6.284,5.272,16.459,4.062,22.73-2.689C265.576,98.482,265.576,88.744,259.295,83.473z M253.558,96.999
					c-1.431,3.547-4.89,5.586-7.757,4.544c-2.856-1.051-4.02-4.76-2.601-8.313c1.438-3.55,4.914-5.588,7.769-4.545
					C253.839,89.729,254.997,93.444,253.558,96.999z"/>
			</g>
		</g>
	</g>
	<path fill="#FFFFFF" d="M109.048,175.281h0.047c0.137,0,0.274-0.076,0.418-0.223c0.017-0.021,0.036-0.038,0.036-0.038
		c0.065,0.079,0.178,0.238,0.381,0.238l0,0c0.114,0,0.269-0.037,0.507-0.09c0.238-0.066,0.345-0.081,0.387-0.081l0.298-0.007
		l-0.024-0.297c-0.03-0.323,0.269-1.012,2.558-2.031c1.372-0.632,2.725-1.383,4.014-2.235c7.556-4.961,12.314-8.129,14.168-9.404
		l0.048-0.051c2.546-2.969,3.59-4.178,3.668-4.258c1.52-1.948,2.32-3.603,2.391-4.929c0.036-0.823-0.322-1.634-1.074-2.412
		c-0.715-0.739-1.479-1.124-2.259-1.129h-0.119c-0.113,0.005-0.228,0.037-0.358,0.109c-0.024,0.021-0.042,0.034-0.042,0.034
		c-0.095,0-0.269-0.02-0.56-0.104c-0.281-0.078-0.519-0.125-0.752-0.131h-0.012c-0.101,0.006-0.244,0.025-0.423,0.066
		c-0.138,0.029-0.245,0.045-0.346,0.054c-0.09,0-0.227-0.024-0.406-0.054c-0.232-0.041-0.423-0.061-0.549-0.061
		c-0.297,0.015-1.305,0.167-2.981,0.461c-0.77,0.147-1.282,0.242-1.562,0.317c-0.095-0.048-0.191-0.075-0.25-0.075
		c-0.19,0.007-0.471,0.075-0.847,0.206c0.322-0.278,0.888-0.742,1.861-1.541c1.294-1.001,2.326-1.614,3.07-1.81l0.12-0.07
		c1.353-1.24,2.374-2.187,2.929-2.731c2.7-2.444,3.041-3.352,3.063-3.819c0.024-0.481-0.405-0.902-1.353-1.331
		c-0.817-0.361-1.431-0.543-1.867-0.546h-0.078c-0.119,0-0.311,0.041-0.603,0.115c-0.309,0.085-0.459,0.103-0.525,0.103
		l-3.833,0.125c-0.126,0-0.281,0.042-0.496,0.122c-0.19,0.075-0.25,0.081-0.25,0.081s-0.042-0.006-0.119-0.052
		c-0.137-0.073-0.262-0.116-0.388-0.116l0,0c-0.645,0.02-2.361,0.263-5.117,0.737c-1.896,0.324-2.648,0.462-2.946,0.581
		c-0.125-0.011-0.257-0.018-0.417-0.032l-0.095-0.01l-0.078,0.051c-0.286,0.176-0.769,0.337-1.443,0.481
		c-1.08,0.304-1.591,0.46-1.837,0.581c-0.042-0.016-0.083-0.027-0.143-0.051c-0.191-0.063-0.329-0.09-0.435-0.096h-0.013
		c-0.131,0.008-0.31,0.056-0.59,0.173c-0.268,0.107-0.399,0.131-0.453,0.131h-0.078l-0.072,0.045
		c-0.5,0.357-0.787,0.608-0.917,0.832h-0.042c-0.131,0-0.25,0.034-0.382,0.08l0,0c-0.309-0.002-0.315,0.253-0.345,0.806
		c-0.006,0.122-0.006,0.146,0.584,0.938c0.429,0.566,0.53,0.817,0.555,0.925l0.101,0.205l0.221,0.006
		c0.095,0,0.22,0.017,0.352,0.045c0.179,0.045,0.316,0.064,0.483,0.064h0.012c1.026-0.03,2.094-0.423,3.178-1.167
		c0.125-0.024,0.239-0.078,0.364-0.173c0.048-0.027,0.066-0.036,0.066-0.036l0.107,0.024l0.089-0.036
		c0.536-0.235,0.829-0.388,0.978-0.512c0.071,0.007,0.149,0.016,0.228,0.022c0.083,0.012,0.172,0.024,0.244,0.026
		c0.03,0.772,0.042,1.058,0.047,1.185l-6.75,21.862l-0.101,1.887l0.119,0.092c0.042,0.034,0.066,0.067,0.084,0.104
		c-0.179,0.201-0.531,0.606-0.751,0.855l-0.065,0.075l-0.006,0.103c-0.006,0.188,0.042,0.455,0.137,0.819
		c0.083,0.316,0.125,0.55,0.114,0.7c-0.036,0.808-0.132,0.931-0.132,0.939c-0.459,0.218-0.912,0.428-1.371,0.618
		c-0.209,0.021-0.585,0.175-1.533,0.858c-1.127,0.809-1.229,1.058-1.234,1.249c-0.018,0.329,0.125,0.668,0.435,1.043
		C108.404,175.088,108.72,175.281,109.048,175.281z M121.129,148.22c0.15-0.554,0.173-0.87,0.15-1.072
		c0.518-0.575,0.883-1.283,1.08-2.095c0.208-0.971,0.351-1.586,0.412-1.825c0.279-0.097,0.56-0.374,0.852-0.845
		c0.328-0.53,0.495-0.951,0.513-1.29c0-0.023,0-0.059-0.005-0.087c1.998-0.49,3.219-0.779,3.625-0.874
		c0.066-0.004,0.185-0.027,0.424-0.165c0.149-0.077,0.215-0.09,0.215-0.09l0.059-0.273l0,0v0.273c0.108,0,0.28,0.023,0.489,0.055
		c0.239,0.033,0.436,0.054,0.566,0.054h0.102c0.202-0.038,0.394-0.063,0.572-0.063h0.125c0.185,0,0.37,0.021,0.549,0.063l0.03,0.002
		h0.035c0.079-0.002,0.204-0.022,0.329-0.056l0.375-0.009c0,0,0.054,0,0.191,0.063c-1.146,1.881-2.994,3.549-5.499,4.96
		c-0.405,0.238-1.413,1.009-3.095,2.354c-1.146,0.951-1.819,1.392-2.213,1.582C121.041,148.73,121.077,148.52,121.129,148.22z
		 M116.502,161.423c0.74-1.322,1.474-3.584,2.166-6.68c0.059-0.041,0.25-0.121,0.745-0.256c0.59-0.161,1.014-0.462,1.247-0.885
		c0.232-0.048,0.846-0.248,2.862-1.179c3.447-1.111,5.522-1.689,6.136-1.729c0.09,0.103,0.209,0.149,0.365,0.149l0,0
		c0.143-0.004,0.339-0.035,0.614-0.089c0.244-0.054,0.417-0.08,0.53-0.084c0.06,0,0.143,0.013,0.245,0.045
		c0.155,0.049,0.281,0.072,0.429,0.072h0.012l0.608-0.017c0.37,0.01,0.811,0.183,1.323,0.531c0.496,0.34,0.746,0.678,0.728,1.009
		c-0.048,0.924-1.109,3.089-5.886,8.056l-5.618,3.987c-2.016,1.457-4.127,2.787-6.279,3.948v-0.01l0.286-0.817l-0.453,0.344
		c-0.06-0.189-0.149-0.501-0.286-1.011c0.019-0.909,0.035-1.664,0.071-2.32l0.013-0.189c0.005-0.147-0.018-0.354-0.078-0.611
		c-0.018-0.078-0.031-0.141-0.048-0.21c0.089-0.14,0.186-0.369,0.323-0.729l0.018-0.062L116.502,161.423z"/>
	<path fill="#FFFFFF" d="M137.142,158.555l-0.089,0.094c-0.948,1.492-1.146,1.803-1.181,1.868l-0.024,0.07
		c-0.013,0.071-0.107,0.306-0.626,1.08c-0.406,0.615-0.585,1.069-0.536,1.425c-0.543,0.949-0.805,1.604-0.83,2.018l-0.041,0.906
		c-0.108,0.172-0.162,0.32-0.162,0.444c-0.006,0.136,0.054,0.265,0.227,0.458c-0.089,0.357-0.096,0.635-0.018,0.901
		c0.25,0.438,0.477,0.904,0.668,1.405c0.054,0.115,0.03,0.18-0.007,0.238l-0.154,0.249l0.257,0.145
		c1.359,0.781,2.516,1.388,3.488,1.832c0.18,0.117,0.364,0.182,0.537,0.182c0.06,0.004,0.125-0.005,0.178-0.018
		c1.307-0.282,2.188-0.432,2.637-0.446c0.132-0.007,0.31-0.069,0.727-0.374c0.298-0.212,0.4-0.258,0.388-0.262
		c0.018,0,0.072,0.004,0.167,0.026c0.12,0.03,0.221,0.048,0.328,0.048c0.137,0,0.328-0.008,1.92-1.197
		c1.317-0.984,1.717-1.099,1.831-1.104h0.203l0.06-0.203c0.065-0.211,0.28-0.596,0.649-1.149c0.62-0.915,0.626-0.988,0.626-1.089
		c0.012-0.266-0.089-0.435-0.179-0.531c-0.149-0.164-0.399-0.253-0.727-0.253h-0.102c-0.208,0.006-0.459,0.102-0.757,0.292
		c-0.311,0.196-0.447,0.25-0.506,0.267l-0.096,0.053c-1.711,1.383-2.922,2.173-3.602,2.341l-0.083,0.033
		c-0.323,0.205-0.621,0.414-0.918,0.614h-0.006c-0.101-0.039-0.191-0.09-0.31-0.063l-0.084,0.011
		c-0.31,0.106-0.595,0.189-0.858,0.254c-0.078-0.004-0.161-0.013-0.274-0.032c-0.245-0.043-0.376-0.078-0.447-0.102l0.023-0.4
		l-0.833,0.509c-0.257-0.092-0.562-0.295-0.908-0.606c-0.34-0.331-0.518-0.618-0.513-0.803c0.024-0.055,0.209-0.403,1.969-1.893
		c2.075-1.769,4.18-3.552,6.32-5.35l0.048-0.06c1.497-2.252,2.004-2.648,2.159-2.713l0.054-0.48
		c-0.03-0.024-0.048-0.042-0.071-0.063c0.542-0.931,0.93-1.666,1.174-2.184l0.03-0.087l-0.012-0.094
		c-0.082-0.334-0.137-0.65-0.185-0.96c-0.148-0.797-0.423-1.864-1.192-1.876l0,0c-0.094,0.005-0.208,0.044-0.369,0.103
		c-0.107,0.036-0.161,0.051-0.167,0.056c-0.036-0.016-0.18-0.07-0.573-0.268l-0.192-0.102l-0.137,0.148
		c-0.143,0.143-0.255,0.216-0.387,0.221l-0.078-0.012l-0.071,0.032c-1.413,0.617-2.462,1.128-3.184,1.541
		c-1.063,1.002-1.348,1.039-1.366,1.045l-0.066-0.014l-0.065,0.026c-0.125,0.046-0.364,0.129-1.741,1.812
		C137.958,157.936,137.41,158.405,137.142,158.555z M139.688,160.113c0.49-0.619,1.426-1.624,2.749-2.961
		c1.14-0.786,2.028-1.339,2.643-1.645c-0.048,0.161-0.137,0.324-0.263,0.483c-0.28,0.357-0.417,0.604-0.441,0.798
		c-0.316,0.37-0.524,0.668-0.668,0.924c-0.083,0.155-0.339,0.493-1.079,1.2c-0.614,0.593-1.008,1.073-1.181,1.479
		c-1.545,1.098-2.707,1.95-3.483,2.542C138.387,161.983,138.96,161.042,139.688,160.113z"/>
	<path fill="#FFFFFF" d="M150.409,161.388l-0.13,0.563l0.775-0.354c0.287,0.279,0.555,0.423,0.841,0.423l0,0
		c0.096,0,0.214-0.021,0.353-0.06c0.095-0.037,0.185-0.046,0.262-0.046l0.083-0.008l0.065-0.052
		c1.431-1.024,2.696-1.741,3.751-2.124c-0.179,0.995-0.4,1.135-0.454,1.155l-0.148,0.066l-0.019,0.161
		c-0.149,1.184-0.5,2.729-1.048,4.568c-0.025,0.06-0.066,0.172-0.232,1.742c-0.084,0.553-0.34,0.887-0.812,1.057l0.102,0.548
		c0,0,0.006,0,0.024,0c-0.197,0.153-0.293,0.32-0.31,0.499l-0.03,0.292l0.244-0.003c-0.197,0.241-0.274,0.469-0.257,0.683
		l-0.005,0.257l0.262-0.008c0,0,0.06,0.012,0.209,0.126c0.179,0.126,0.303,0.198,0.423,0.216c0.406,0.197,0.507,0.265,0.519,0.28
		l0.083,0.083h0.125c0.156-0.006,0.365-0.054,0.65-0.148c0.323-0.107,0.412-0.119,0.412-0.119h0.131l0.083-0.081
		c0.251-0.248,0.454-0.429,0.608-0.554l0.113-0.093l-0.006-0.146c-0.017-0.268-0.023-0.522-0.012-0.761l0.006-0.037l-0.012-0.037
		c-0.054-0.237-0.083-0.383-0.119-0.479c0.023-0.025,0.047-0.042,0.071-0.063c0.185-0.164,0.292-0.35,0.292-0.56
		c0.007-0.064,0-0.137-0.137-0.464c-0.072-0.157-0.102-0.311-0.096-0.449c0.048-0.965,0.37-2.406,0.966-4.285
		c0.584-1.858,0.924-3.222,1.014-4.146c0.339-0.241,0.757-0.514,1.234-0.805c0.088,0.09,0.196,0.136,0.316,0.136l0,0
		c0.065,0,0.125,0,1.341-0.374c0.704-0.178,1.158-0.305,1.432-0.394c0.447-0.238,0.674-0.337,0.788-0.389l0.333,0.342l0.191-0.156
		c0.389-0.304,0.716-0.436,0.972-0.402l0.208,0.03l0.09-0.188c0.024-0.049,0.048-0.097,0.066-0.127
		c0.315-0.021,0.685-0.148,1.12-0.391c0.501-0.265,0.747-0.345,0.854-0.365l0.197-0.042l0.029-0.2
		c0.054-0.41,0.065-0.688,0.036-0.871l-0.03-0.198l-0.198-0.031c-0.327-0.063-0.804-0.08-1.455-0.06
		c-0.166,0.007-0.381,0.06-0.661,0.179c-0.168,0.067-0.27,0.097-0.334,0.113c-0.078-0.125-0.203-0.201-0.364-0.206l0,0
		c-0.406,0.016-1.001,0.153-1.825,0.415c-0.853,0.281-1.247,0.368-1.426,0.385c-0.077-0.079-0.172-0.13-0.322-0.13
		c-0.112,0.008-0.238,0.051-0.572,0.299c-0.548,0.016-0.9,0.031-1.127,0.044c2.47-9.942,4.175-15.529,5.069-16.642
		c0.167-0.247,0.352-0.516,0.568-0.835c0.238-0.461,0.345-0.763,0.351-0.957c0.006-0.086-0.006-0.148-0.185-0.563
		c-0.113-0.275-0.136-0.419-0.136-0.501l0.011-0.2l-0.191-0.07c-0.37-0.156-0.692-0.299-0.996-0.465
		c-0.316-0.18-0.686-0.274-1.091-0.282h-0.137c-0.245,0.014-0.537,0.157-0.912,0.467l0.06-0.18l-0.263,0.351
		c-0.346,0.281-0.507,0.338-0.56,0.35l-0.221,0.04l-0.012,0.216c-0.011,0.313-0.011,0.474,0.035,0.581
		c-0.089,0.314-0.16,0.568-0.221,0.746l-0.088,0.27l0.263,0.089c0.028,0.009,0.053,0.021,0.078,0.033
		c-0.042,0.015-0.078,0.028-0.109,0.038l-0.267,0.093l0.238,0.642c-0.125,0.132-0.197,0.304-0.209,0.498
		c0,0.081,0.007,0.154,0.031,0.22c-0.323,1.648-0.621,3.117-0.895,4.389l-0.972,3.674c-0.424,1.899-0.811,3.206-1.14,3.877
		l-0.035,0.062v0.073c0.048,1.299-0.221,1.781-0.46,1.966l-0.06,0.511c-0.047,0.104-0.071,0.204-0.077,0.31
		c-0.005,0.091,0.023,0.206,0.125,0.32c-0.112,0.204-0.19,0.5-0.232,0.87c-0.054,0.577-0.304,0.708-0.525,0.767
		c-0.351,0.146-0.578,0.239-0.721,0.312c-0.072-0.04-0.167-0.064-0.263-0.064h-0.007c-0.094,0-0.178,0.043-0.375,0.162
		c-0.03,0.023-0.054,0.028-0.071,0.041l-0.047-0.023l-0.555,0.195c-0.549,0.236-0.918,0.406-1.08,0.49
		c-1.282,0.459-2.194,0.793-2.641,0.978c-0.734,0.344-1.121,0.823-1.146,1.431c-0.005,0.126,0.024,0.344,0.322,0.89
		C150.445,161.25,150.416,161.384,150.409,161.388z"/>
	<path fill="#FFFFFF" d="M164.729,159.467c-0.006,0.123,0.023,0.338,0.328,0.886c0.243,0.44,0.214,0.571,0.214,0.571l-0.137,0.572
		l0.769-0.359c0.292,0.286,0.561,0.423,0.84,0.426h0.006c0.102-0.003,0.221-0.026,0.347-0.063c0.094-0.03,0.19-0.044,0.267-0.046
		l0.09-0.005l0.059-0.046c1.432-1.029,2.695-1.745,3.758-2.133c-0.185,0.994-0.413,1.14-0.459,1.16l-0.149,0.064l-0.017,0.164
		c-0.144,1.177-0.501,2.723-1.051,4.566c-0.023,0.056-0.065,0.177-0.232,1.744c-0.083,0.55-0.339,0.889-0.811,1.052l0.106,0.55
		c0,0,0.007,0,0.019,0.005c-0.197,0.148-0.298,0.314-0.305,0.493l-0.029,0.298l0.238-0.011c-0.197,0.243-0.275,0.473-0.244,0.688
		l-0.018,0.252l0.262-0.011c0,0,0.054,0.021,0.209,0.131c0.179,0.129,0.304,0.196,0.423,0.214c0.405,0.207,0.507,0.271,0.518,0.282
		l0.09,0.085l0.12-0.002c0.154-0.003,0.369-0.052,0.643-0.148c0.328-0.109,0.43-0.117,0.436-0.114l0.113-0.01l0.077-0.073
		c0.256-0.25,0.453-0.438,0.621-0.559l0.108-0.09l-0.007-0.145c-0.011-0.269-0.018-0.524-0.011-0.763l0.005-0.044l-0.005-0.034
		c-0.06-0.233-0.089-0.384-0.12-0.477c0.018-0.02,0.035-0.044,0.065-0.062c0.186-0.167,0.292-0.349,0.304-0.561
		c0-0.06-0.012-0.137-0.154-0.457c-0.06-0.161-0.096-0.313-0.09-0.457c0.048-0.964,0.375-2.408,0.967-4.282
		c0.59-1.863,0.918-3.215,1.014-4.143c0.346-0.25,0.751-0.519,1.24-0.806c0.103,0.102,0.215,0.132,0.311,0.132h0.005
		c0.066,0,0.12,0,1.337-0.369c0.698-0.181,1.156-0.304,1.437-0.4c0.441-0.238,0.668-0.34,0.782-0.385l0.328,0.338l0.197-0.158
		c0.388-0.3,0.716-0.431,0.978-0.396l0.204,0.031l0.09-0.185c0.029-0.059,0.047-0.101,0.065-0.133
		c0.315-0.023,0.686-0.152,1.121-0.385c0.506-0.271,0.745-0.348,0.853-0.373l0.203-0.042l0.023-0.193
		c0.054-0.415,0.067-0.693,0.037-0.879l-0.029-0.197l-0.198-0.029c-0.328-0.063-0.811-0.078-1.455-0.057
		c-0.168,0.005-0.382,0.061-0.656,0.176c-0.173,0.065-0.275,0.099-0.341,0.115c-0.077-0.131-0.196-0.205-0.363-0.205l0,0
		c-0.405,0.013-1.001,0.148-1.825,0.417c-0.859,0.282-1.246,0.364-1.419,0.376c-0.083-0.074-0.197-0.132-0.329-0.121
		c-0.114,0-0.238,0.051-0.571,0.297c-0.549,0.02-0.896,0.033-1.127,0.039c2.48-9.941,4.174-15.53,5.075-16.637
		c0.16-0.249,0.346-0.52,0.56-0.839c0.239-0.461,0.347-0.761,0.352-0.955c0.007-0.093-0.005-0.144-0.185-0.566
		c-0.113-0.269-0.138-0.421-0.138-0.504l0.013-0.195l-0.191-0.072c-0.37-0.15-0.692-0.295-0.99-0.462
		c-0.322-0.183-0.697-0.277-1.097-0.28h-0.137c-0.24,0.011-0.531,0.158-0.907,0.469l0.047-0.188l-0.255,0.357
		c-0.341,0.276-0.509,0.33-0.563,0.345l-0.22,0.04l-0.012,0.223c-0.007,0.31,0,0.476,0.036,0.576
		c-0.09,0.318-0.161,0.574-0.228,0.753l-0.088,0.262l0.269,0.089c0.03,0.012,0.053,0.021,0.077,0.029
		c-0.041,0.024-0.072,0.03-0.101,0.049l-0.28,0.086l0.244,0.641c-0.132,0.138-0.197,0.302-0.208,0.5
		c-0.006,0.075,0.006,0.15,0.029,0.229c-0.322,1.645-0.62,3.115-0.894,4.385l-0.973,3.67c-0.417,1.894-0.805,3.197-1.139,3.876
		l-0.036,0.064l0.006,0.067c0.041,1.308-0.226,1.789-0.465,1.97l-0.059,0.508c-0.048,0.105-0.071,0.206-0.078,0.313
		c-0.006,0.084,0.019,0.204,0.125,0.318c-0.113,0.202-0.191,0.497-0.227,0.875c-0.06,0.573-0.31,0.704-0.531,0.77
		c-0.352,0.134-0.578,0.227-0.722,0.305c-0.071-0.044-0.16-0.067-0.261-0.067c-0.006,0-0.006,0-0.006,0
		c-0.096,0.004-0.179,0.043-0.377,0.168c-0.035,0.018-0.054,0.03-0.071,0.037l-0.048-0.023l-0.555,0.196
		c-0.549,0.24-0.918,0.403-1.079,0.494c-1.283,0.453-2.189,0.792-2.636,0.978C165.139,158.379,164.752,158.858,164.729,159.467z"/>
	<path fill="#FFFFFF" d="M182.195,161.629c-0.53,0.949-0.805,1.607-0.829,2.019l-0.049,0.904c-0.095,0.172-0.148,0.319-0.16,0.447
		c0,0.134,0.065,0.265,0.238,0.454c-0.089,0.353-0.101,0.634-0.017,0.901c0.244,0.442,0.471,0.905,0.667,1.401
		c0.054,0.119,0.03,0.186-0.005,0.244l-0.162,0.242l0.251,0.148c1.33,0.768,2.522,1.392,3.494,1.838
		c0.18,0.115,0.358,0.183,0.538,0.185c0.065,0,0.125-0.002,0.185-0.021c1.307-0.287,2.188-0.436,2.63-0.448
		c0.137-0.004,0.311-0.071,0.733-0.375c0.304-0.221,0.392-0.262,0.392-0.262s0.056,0,0.157,0.032
		c0.112,0.026,0.221,0.016,0.333,0.042c0.125-0.004,0.323-0.004,1.908-1.202c1.325-0.978,1.729-1.09,1.837-1.098l0.203-0.007
		l0.06-0.192c0.042-0.152,0.19-0.472,0.65-1.154c0.625-0.921,0.625-0.993,0.639-1.094c0.004-0.265-0.098-0.427-0.181-0.521
		c-0.166-0.175-0.404-0.258-0.739-0.258h-0.107c-0.209,0.006-0.452,0.102-0.757,0.296c-0.31,0.203-0.447,0.25-0.494,0.266
		l-0.103,0.049c-1.71,1.386-2.916,2.173-3.602,2.337l-0.078,0.034c-0.327,0.206-0.626,0.413-0.917,0.623h-0.007
		c-0.107-0.041-0.19-0.088-0.315-0.069l-0.078,0.017c-0.31,0.103-0.602,0.187-0.857,0.242c-0.079,0-0.168-0.005-0.288-0.03
		c-0.231-0.039-0.369-0.075-0.435-0.101l0.019-0.392l-0.83,0.503c-0.263-0.089-0.567-0.297-0.9-0.608
		c-0.352-0.323-0.525-0.613-0.519-0.804c0.024-0.069,0.25-0.435,1.962-1.888c2.074-1.769,4.179-3.551,6.322-5.353l0.054-0.057
		c1.442-2.172,1.968-2.633,2.158-2.711l0.048-0.484c-0.024-0.026-0.048-0.043-0.065-0.063c0.541-0.941,0.936-1.676,1.168-2.188
		l0.036-0.076l-0.018-0.097c-0.072-0.34-0.132-0.649-0.186-0.954c-0.137-0.806-0.418-1.865-1.181-1.877l0,0
		c-0.101,0.003-0.22,0.032-0.381,0.1c-0.102,0.034-0.156,0.043-0.162,0.048c-0.041-0.005-0.179-0.065-0.577-0.269l-0.186-0.095
		l-0.137,0.144c-0.154,0.139-0.28,0.227-0.388,0.22l0,0l-0.078-0.005l-0.072,0.028c-1.43,0.625-2.486,1.134-3.183,1.547
		c-1.074,0.997-1.355,1.033-1.373,1.036l-0.07-0.006l-0.061,0.027c-0.185,0.062-0.525,0.33-1.741,1.81
		c-1.127,1.425-1.669,1.892-1.926,2.033l-0.066,0.036l-0.041,0.065c-0.932,1.472-1.14,1.804-1.176,1.866l-0.023,0.071
		c-0.012,0.066-0.097,0.311-0.615,1.086C182.332,160.82,182.152,161.277,182.195,161.629z M187.204,158.652
		c0.495-0.636,1.433-1.636,2.743-2.956c1.139-0.794,2.023-1.343,2.636-1.649c-0.047,0.16-0.13,0.319-0.257,0.486
		c-0.28,0.352-0.418,0.599-0.441,0.793c-0.31,0.373-0.53,0.67-0.667,0.928c-0.078,0.152-0.334,0.481-1.086,1.198
		c-0.607,0.584-0.996,1.066-1.169,1.472c-1.543,1.102-2.707,1.957-3.482,2.553C185.904,160.517,186.482,159.575,187.204,158.652z"/>
	<path fill="#FFFFFF" d="M198.804,171.032h0.028h0.025c0.387-0.011,0.846-0.12,1.419-0.336c0.596-0.226,0.983-0.484,1.192-0.786
		l0.191-0.293l-0.198-0.076c0.108-0.139,0.167-0.281,0.179-0.435l0.013-0.229l-0.231-0.061c-0.162-0.035-0.216-0.409-0.146-0.988
		c0.073-0.885,0.245-1.873,0.502-2.92l0.752-2.117l0.047-0.257l-0.208-0.115c0.011-0.031,0.017-0.064,0.03-0.097h0.118l0.077-0.142
		c0.282-0.521,0.448-0.871,0.532-1.068l0.047-0.668c1.043-2.507,2.665-4.62,4.812-6.293l0.072-0.056l0.03-0.092
		c0.054-0.188,0.148-0.482,0.316-0.572c0.029,0.026,0.077,0.053,0.124,0.083l0.054,0.021h0.067c0.112-0.003,0.225-0.037,0.847-0.463
		c0.464-0.319,0.572-0.369,0.554-0.373c-0.043,0-0.131-0.06-0.155-0.159l0.561-0.012v-0.062c0.013-0.039,0.1-0.138,0.399-0.247
		c0.323-0.116,0.548-0.228,0.679-0.352h0.049l0.048,0.015l0.138,0.288l-0.186,0.139l-0.005,0.138
		c-0.019,0.172,0.063,0.349,0.262,0.563c0.018,0.026,0.041,0.051,0.06,0.078c-0.107,0.075-0.19,0.144-0.244,0.185l-0.306,0.301
		l0.389,0.165c0.065,0.022,0.102,0.042,0.125,0.058c-0.131,0.24-0.232,0.457-0.315,0.675l-0.406-0.426l0.131,0.881
		c0.025,0.134,0.03,0.27,0.03,0.383c-0.095,0.692-0.478,1.492-1.145,2.368l-0.065,0.088l0.013,0.107
		c0.095,0.935,0.304,2.184,1.12,2.192c0.416,0.01,1.056-0.277,2.29-2.494l0.429-0.323c-0.041-0.14-0.041-0.31-0.023-0.466
		c0.144-0.384,0.221-0.61,0.255-0.744c0.402-0.174,0.609-0.418,0.628-0.729c0-0.096-0.013-0.195-0.041-0.317l-0.007-0.001
		c0.102-0.123,0.174-0.17,0.208-0.193l0.377-0.192l-0.323-0.273c-0.189-0.16-0.208-0.247-0.208-0.247l0,0
		c0.048-0.363,0.113-0.719,0.173-0.996c0.215-0.49,0.292-0.587,0.303-0.605l-0.1-0.113l0.222,0.012
		c0.076-0.974-0.013-1.702-0.275-2.236c-0.037-0.17-0.222-0.362-0.811-0.775c-0.607-0.427-0.754-0.558-0.792-0.597l-0.139-0.135
		l-0.174,0.081c-0.22,0.099-0.335,0.114-0.399,0.108c-0.221-0.096-0.422-0.158-0.66-0.189c-0.378,0.004-0.71,0.229-0.967,0.612
		l-0.096,0.101l-0.055,0.066c-0.101,0.216-0.196,0.375-0.262,0.482c-0.103-0.071-0.223-0.122-0.357-0.136l-0.229-0.037l-0.077,0.222
		c-0.054,0.163-0.272,0.442-1.008,0.831c-0.535,0.29-0.899,0.537-1.108,0.784c-0.024-0.012-0.059-0.012-0.088-0.012l0,0
		c-0.175,0.012-0.281,0.081-0.335,0.137l-0.197,0.198l0.149,0.146c-0.353,0.352-0.572,0.674-0.687,0.99l-0.023,0.076
		c-0.101-0.041-0.196-0.063-0.278-0.063l0,0l-0.365,0.01l0.096,0.35c0.017,0.059-0.126,0.195-0.584,0.326l-0.132,0.039l-0.055,0.129
		c-0.124,0.304-0.453,0.715-0.988,1.247c-0.151,0.164-0.311,0.365-0.484,0.608c0.37-1.123,0.639-2.115,0.811-2.962l0.024-0.111
		l-0.064-0.1c-0.252-0.387-0.438-0.698-0.531-0.918l-0.174-0.365l-0.382,0.374c-0.16-0.064-0.332-0.1-0.548-0.1h-0.013
		c-0.918,0.026-1.144,0.091-1.221,0.319l-0.044,0.227l0.019,0.015c-1.211,5.621-1.615,6.751-1.741,6.932l-0.054,0.058l-0.089,0.835
		c-0.453,1.208-0.626,1.807-0.687,2.129l-0.035,0.269c0,0.004,0,0.004,0,0.004l0.28,0.017l0.01,0.009l-0.165,0.19
		c0.006,0.011,0.024,0.024,0.072,0.091c-0.347,0.423-0.597,0.857-0.745,1.309c-0.174,0.473-0.28,0.873-0.335,1.202
		c-0.012,0.284-0.113,0.73-0.311,1.328c-0.209,0.653-0.32,1.152-0.335,1.522c0,0.071,0,0.131,0,0.186
		c-0.374,0.334-0.554,0.565-0.607,0.811l-0.035,0.786l0.107,0.096C198.396,170.893,198.659,171.006,198.804,171.032z"/>
	<path fill="#FFFFFF" d="M215.662,168.543l-0.52,0.261l0.53,0.244c0.799,0.371,0.954,0.471,0.984,0.493l0.179-0.163l0.006,0.27
		h0.006c0.049,0,0.114,0.011,0.202,0.034h0.031l0.393-0.008l0.061-0.042c0.262-0.155,0.488-0.213,0.703-0.18l0.237,0.047
		l0.078-0.234c0.03-0.071,0.047-0.122,0.061-0.158c0.649,0.126,0.78,0.12,0.864,0.131l0.65-0.02l-0.467-0.462
		c-0.004-0.007-0.011-0.007-0.011-0.02c0.035-0.02,0.09-0.051,0.125-0.091l0.62-0.605l0.006-0.11
		c0.055-1.039-0.804-1.927-2.617-2.705l-0.375-0.163l-0.019,0.404c-0.006,0.029-0.006,0.054-0.006,0.075l-0.065-0.005
		c-0.102,0.005-0.203,0.005-1.616,0.824l-0.118,0.095l-0.019,0.133c0,0-0.013,0.059-0.119,0.189
		c-0.185,0.226-0.238,0.322-0.238,0.429c-0.018,0.365,0.147,0.794,0.494,1.305C215.679,168.532,215.668,168.539,215.662,168.543z"/>
	<path fill="#FFFFFF" d="M374.678,164.488l-0.519,0.26l0.532,0.244c0.797,0.373,0.953,0.471,0.982,0.492l0.179-0.161l0.005,0.269
		h0.007c0.048,0,0.114,0.012,0.203,0.035h0.029l0.394-0.009l0.06-0.041c0.262-0.155,0.489-0.212,0.705-0.181l0.238,0.05l0.077-0.237
		c0.029-0.07,0.048-0.121,0.059-0.156c0.651,0.125,0.782,0.119,0.865,0.131l0.651-0.021l-0.466-0.463
		c-0.007-0.005-0.013-0.005-0.013-0.016c0.036-0.021,0.09-0.053,0.125-0.094l0.621-0.605l0.006-0.109
		c0.054-1.038-0.806-1.927-2.618-2.706l-0.375-0.163l-0.018,0.406c-0.007,0.028-0.007,0.053-0.007,0.072l-0.066-0.006
		c-0.102,0.006-0.201,0.006-1.614,0.828l-0.12,0.092l-0.018,0.133c0,0-0.014,0.061-0.12,0.191c-0.185,0.226-0.238,0.323-0.238,0.43
		c-0.018,0.363,0.149,0.793,0.496,1.303C374.695,164.478,374.684,164.483,374.678,164.488z"/>
	<path fill="#FFFFFF" d="M234.446,171.424h0.034c0.186-0.005,0.335-0.134,0.431-0.227c0.018-0.017,0.042-0.033,0.054-0.044
		c0.053,0.091,0.16,0.244,0.363,0.246c0.106-0.002,0.262-0.029,0.507-0.088c0.227-0.067,0.335-0.077,0.382-0.077l0.298-0.013
		l-0.025-0.3c-0.028-0.32,0.271-1.012,2.566-2.03c1.372-0.634,2.726-1.387,4.015-2.236c7.476-4.911,12.247-8.077,14.161-9.406
		l0.061-0.05c2.451-2.866,3.584-4.175,3.662-4.256c1.514-1.943,2.318-3.603,2.384-4.926c0.043-0.823-0.315-1.635-1.073-2.415
		c-0.708-0.737-1.474-1.117-2.26-1.132h-0.112c-0.114,0-0.228,0.044-0.358,0.118c-0.036,0.021-0.054,0.029-0.054,0.029l0,0
		c-0.126,0-0.311-0.035-0.555-0.104c-0.292-0.084-0.536-0.116-0.758-0.126c-0.113,0-0.251,0.021-0.436,0.063
		c-0.132,0.031-0.231,0.047-0.332,0.047c-0.091,0-0.229-0.016-0.413-0.047c-0.221-0.041-0.394-0.056-0.542-0.056
		c-0.191,0.003-0.704,0.056-2.977,0.461c-0.775,0.132-1.294,0.244-1.575,0.316c-0.089-0.054-0.161-0.077-0.238-0.08l0,0
		c-0.195,0.008-0.471,0.08-0.856,0.212c0.326-0.274,0.887-0.746,1.866-1.546c1.286-1.002,2.332-1.612,3.063-1.812l0.126-0.065
		c1.359-1.244,2.372-2.191,2.921-2.735c2.702-2.441,3.05-3.354,3.061-3.818c0.035-0.479-0.399-0.9-1.348-1.324
		c-0.806-0.369-1.42-0.545-1.868-0.554h-0.064c-0.077,0.006-0.227,0.016-0.607,0.118c-0.306,0.081-0.454,0.102-0.532,0.102
		l-3.828,0.122c-0.125,0.009-0.291,0.042-0.494,0.122c-0.185,0.071-0.252,0.085-0.252,0.085s-0.04-0.008-0.117-0.061
		c-0.145-0.072-0.263-0.107-0.395-0.107l0,0c-0.645,0.018-2.367,0.265-5.115,0.739c-1.897,0.319-2.648,0.453-2.947,0.573
		c-0.119-0.004-0.257-0.02-0.412-0.031l-0.095-0.006l-0.077,0.043c-0.293,0.179-0.776,0.345-1.455,0.482
		c-1.069,0.313-1.58,0.465-1.83,0.581c-0.037-0.012-0.085-0.024-0.149-0.045c-0.191-0.063-0.316-0.089-0.437-0.097l0,0
		c-0.131,0.008-0.303,0.054-0.597,0.167c-0.268,0.108-0.393,0.129-0.444,0.133l-0.085,0.002l-0.071,0.048
		c-0.544,0.386-0.799,0.63-0.913,0.834h-0.048c-0.126,0.005-0.251,0.032-0.376,0.084l0,0c-0.31-0.008-0.321,0.247-0.346,0.802
		c-0.006,0.122-0.006,0.145,0.584,0.932c0.422,0.571,0.529,0.828,0.55,0.925l0.112,0.215h0.22c0.095,0,0.209,0.023,0.342,0.048
		c0.178,0.041,0.327,0.062,0.476,0.064h0.019c1.025-0.034,2.094-0.424,3.179-1.175c0.118-0.017,0.244-0.077,0.37-0.17
		c0.041-0.026,0.06-0.031,0.06-0.037l0.106,0.032l0.097-0.046c0.53-0.231,0.827-0.376,0.978-0.507
		c0.064,0.014,0.141,0.016,0.233,0.027c0.082,0.009,0.166,0.015,0.242,0.024c0.025,0.771,0.036,1.058,0.042,1.182l-6.757,21.863
		l-0.093,1.885l0.106,0.097c0.047,0.031,0.078,0.066,0.095,0.094c-0.108,0.12-0.323,0.358-0.751,0.864l-0.066,0.072l-0.006,0.095
		c-0.006,0.195,0.043,0.465,0.131,0.83c0.09,0.309,0.132,0.541,0.122,0.696c-0.032,0.767-0.157,0.938-0.157,0.938
		c-0.437,0.216-0.895,0.429-1.347,0.618c-0.217,0.024-0.586,0.181-1.54,0.862c-1.12,0.812-1.229,1.053-1.234,1.249
		c-0.018,0.329,0.131,0.668,0.44,1.037C233.801,171.234,234.117,171.421,234.446,171.424z M246.521,144.355
		c0.15-0.552,0.174-0.868,0.15-1.067c0.524-0.578,0.883-1.281,1.084-2.09c0.204-0.976,0.347-1.592,0.408-1.836
		c0.278-0.094,0.564-0.366,0.847-0.833c0.332-0.54,0.506-0.966,0.524-1.294c0-0.029,0-0.059-0.007-0.096
		c1.992-0.48,3.22-0.772,3.606-0.864c0.12,0,0.258-0.061,0.438-0.168c0.16-0.08,0.22-0.085,0.22-0.085l0.061-0.284h0.006
		l-0.006,0.284c0.113,0,0.275,0.015,0.488,0.049c0.232,0.034,0.423,0.051,0.555,0.054l0.112-0.003
		c0.203-0.043,0.394-0.061,0.572-0.061l0.127-0.008c0.185,0.008,0.362,0.025,0.548,0.068l0.03,0.01h0.034
		c0.073-0.007,0.204-0.026,0.329-0.061l0.369-0.01c0,0,0.055,0.006,0.197,0.061c-1.146,1.888-2.999,3.556-5.51,4.963
		c-0.4,0.241-1.431,1.029-3.077,2.35c-1.14,0.942-1.814,1.391-2.22,1.596C246.438,144.867,246.475,144.655,246.521,144.355z
		 M241.894,157.563c0.752-1.333,1.468-3.53,2.16-6.684c0.072-0.035,0.257-0.117,0.758-0.255c0.589-0.154,1.006-0.454,1.245-0.883
		c0.233-0.047,0.847-0.251,2.862-1.176c3.44-1.115,5.516-1.69,6.131-1.726c0.095,0.089,0.244,0.146,0.369,0.146
		c0.137-0.004,0.335-0.037,0.614-0.096c0.291-0.066,0.441-0.078,0.53-0.078c0.048,0,0.139,0.012,0.244,0.043
		c0.156,0.047,0.28,0.101,0.436,0.073l0.614-0.014c0.363,0.003,0.807,0.179,1.318,0.525c0.5,0.345,0.744,0.683,0.733,1.012
		c-0.054,0.929-1.108,3.083-5.891,8.052l-5.618,3.985c-2.018,1.471-4.128,2.795-6.279,3.95v-0.005l0.292-0.819l-0.454,0.342
		c-0.061-0.189-0.148-0.497-0.285-1.007c0.018-0.911,0.034-1.666,0.071-2.325l0.012-0.183c0.006-0.152-0.023-0.35-0.078-0.618
		c-0.018-0.076-0.035-0.143-0.047-0.208c0.09-0.135,0.185-0.362,0.315-0.727l0.029-0.054L241.894,157.563z"/>
	<path fill="#FFFFFF" d="M263.875,160.392l-0.168,0.195c0.006,0.008,0.024,0.032,0.073,0.097c-0.341,0.415-0.597,0.853-0.752,1.3
		c-0.168,0.499-0.27,0.884-0.322,1.206c-0.011,0.279-0.119,0.729-0.305,1.328c-0.214,0.645-0.327,1.156-0.338,1.526
		c-0.007,0.067-0.007,0.126,0,0.185c-0.376,0.328-0.562,0.559-0.615,0.81l-0.036,0.791l0.107,0.088c1.169,1,1.425,1.105,1.574,1.133
		l0.025,0.005h0.029c0.38-0.011,0.841-0.12,1.412-0.338c0.596-0.222,0.99-0.483,1.199-0.787l0.19-0.285l-0.203-0.078
		c0.107-0.143,0.168-0.287,0.179-0.438l0.006-0.232l-0.221-0.053c-0.16-0.041-0.22-0.416-0.148-0.992
		c0.077-0.88,0.251-1.872,0.502-2.918l0.756-2.119l0.043-0.263l-0.203-0.116c0.005-0.026,0.012-0.053,0.023-0.083h0.119l0.083-0.146
		c0.287-0.54,0.454-0.879,0.532-1.079l0.04-0.663c1.044-2.505,2.667-4.621,4.819-6.291l0.072-0.053l0.022-0.091
		c0.061-0.188,0.149-0.482,0.323-0.577c0.029,0.03,0.071,0.06,0.118,0.078l0.067,0.035l0.059-0.012c0.106,0,0.227-0.035,0.847-0.463
		c0.447-0.305,0.572-0.363,0.554-0.369c-0.047,0-0.136-0.056-0.161-0.16l0.562-0.016v-0.054c0.013-0.036,0.101-0.138,0.406-0.25
		c0.316-0.12,0.548-0.224,0.68-0.352h0.035l0.061,0.011l0.136,0.29l-0.196,0.15v0.128c-0.005,0.171,0.071,0.345,0.263,0.565
		c0.03,0.023,0.042,0.053,0.06,0.077c-0.106,0.078-0.191,0.144-0.244,0.188l-0.3,0.297l0.388,0.17
		c0.062,0.019,0.097,0.04,0.127,0.056c-0.137,0.232-0.238,0.459-0.321,0.667l-0.401-0.424l0.132,0.878
		c0.023,0.144,0.029,0.274,0.023,0.395c-0.096,0.688-0.472,1.484-1.14,2.361l-0.063,0.088l0.005,0.108
		c0.096,0.937,0.311,2.182,1.12,2.198c0.424,0,1.063-0.283,2.296-2.502l0.423-0.321c-0.035-0.139-0.035-0.312-0.018-0.469
		c0.143-0.392,0.215-0.611,0.259-0.738c0.399-0.179,0.601-0.417,0.619-0.726c0-0.093-0.011-0.207-0.049-0.316v-0.013
		c0.102-0.119,0.18-0.17,0.209-0.188l0.37-0.2l-0.316-0.269c-0.185-0.157-0.203-0.247-0.203-0.247l0,0
		c0.042-0.366,0.108-0.719,0.168-0.993c0.215-0.495,0.291-0.589,0.305-0.607l-0.102-0.112l0.219,0.01
		c0.085-0.966-0.011-1.698-0.278-2.235c-0.031-0.164-0.216-0.365-0.805-0.776c-0.616-0.428-0.751-0.559-0.788-0.593l-0.137-0.143
		l-0.185,0.082c-0.227,0.103-0.328,0.118-0.395,0.107c-0.221-0.088-0.43-0.152-0.655-0.189c-0.376,0.016-0.716,0.235-0.967,0.619
		l-0.095,0.096l-0.053,0.07c-0.108,0.22-0.199,0.369-0.27,0.484c-0.095-0.074-0.215-0.123-0.354-0.14l-0.225-0.029l-0.078,0.215
		c-0.06,0.165-0.279,0.446-1.008,0.828c-0.548,0.288-0.907,0.542-1.108,0.781c-0.032,0-0.062-0.002-0.062-0.002h-0.034
		c-0.137,0.002-0.252,0.057-0.328,0.136l-0.191,0.196l0.144,0.148c-0.346,0.346-0.572,0.676-0.68,0.981l-0.029,0.088
		c-0.091-0.042-0.185-0.069-0.286-0.069l0,0l-0.358,0.013l0.095,0.345c0.012,0.061-0.131,0.197-0.589,0.329l-0.132,0.04
		l-0.054,0.125c-0.12,0.304-0.448,0.724-0.979,1.247c-0.155,0.158-0.323,0.365-0.488,0.605c0.364-1.121,0.632-2.098,0.805-2.954
		l0.022-0.116l-0.064-0.096c-0.251-0.385-0.43-0.695-0.529-0.921l-0.17-0.363l-0.385,0.375c-0.155-0.063-0.335-0.103-0.55-0.107
		h-0.012c-0.919,0.029-1.146,0.089-1.223,0.321l-0.036,0.233l0.013,0.012c-1.252,5.839-1.636,6.793-1.742,6.927l-0.048,0.062
		l-0.095,0.838c-0.369,0.997-0.598,1.693-0.681,2.128l-0.041,0.267v0.006l0.285,0.019
		C263.868,160.386,263.875,160.392,263.875,160.392z"/>
	<path fill="#FFFFFF" d="M287.067,139.604l0.054,0.074l2.533,0.981l1.574-0.812l-0.406-0.196c0.037-0.069,0.114-0.186,0.258-0.366
		l0.22-0.332l-0.327-0.156l0.011-0.04l-0.029-0.067c0,0-0.006-0.044,0.029-0.178c0.049-0.238,0.073-0.392,0.073-0.459l0.013-0.168
		l-0.145-0.089c-0.675-0.41-0.967-0.7-1.092-0.869l-0.09-0.115l-0.142,0.003c-0.091,0.004-0.179,0.032-0.252,0.07
		c-0.089-0.061-0.215-0.095-0.393-0.095h-0.007h-0.131l-0.083,0.1c-0.054,0.071-0.083,0.107-0.106,0.132
		c-0.049-0.002-0.12-0.024-0.222-0.057c-0.256-0.086-0.338-0.075-0.447-0.099c-0.345,0.013-0.941,0.177-1.008,1.109
		c-0.084,0.149-0.167,0.284-0.244,0.382l-0.06,0.064l-0.036,0.746l0.107,0.089C286.971,139.478,287.048,139.567,287.067,139.604z"/>
	<path fill="#FFFFFF" d="M279.809,166.455c0.013,0.268,0.065,0.645,0.334,0.771c0.299,0.198,0.608,0.293,0.924,0.3h0.068
		c1.161-0.037,1.495-0.701,1.584-1.287l0.065-1.529c0.244-0.617,0.423-1.115,0.53-1.485c0.03-0.098,0.102-0.453,0.396-2.338
		c0.142-0.987,0.26-1.303,0.315-1.392l0.124-0.013l0.048-0.188c1.306-4.187,1.921-5.514,2.207-5.889l0.166-0.221l-0.185-0.137
		c0.06-0.036,0.106-0.048,0.149-0.051l1.312-0.042l-1.21-0.5c-0.102-0.044-0.168-0.078-0.203-0.103
		c0.125-0.398,0.278-0.653,0.464-0.736l0.155-0.069l0.014-0.172c0.005-0.185,0.089-0.543,0.446-1.211l0.465-0.942l-0.06-0.198
		l0.023-0.491l-0.394,0.014c-0.041-0.117-0.112-0.19-0.186-0.238c0.181-0.343,0.157-0.298,0.15-0.29l0.479-0.477l-0.682-0.007
		c0,0-0.125-0.014-0.394-0.094c-0.381-0.112-0.442-0.112-0.442-0.112c-0.171,0.005-0.302,0.068-0.439,0.176
		c-0.208,0.114-0.357,0.174-0.465,0.218c-0.06-0.065-0.119-0.121-0.186-0.172l-0.196-0.129l-0.163,0.16
		c-0.005,0.01-0.068,0.07-0.363,0.085c-0.172,0.022-0.309,0.006-0.309,0.006l-0.418-0.262l-0.019,0.482
		c-0.006,0.049-0.006,0.083-0.011,0.11h-0.011l-0.441-1.017l-0.062,1.152c0,0-0.006,0.021-0.059,0.064
		c-0.167,0.137-0.24,0.273-0.249,0.41c-0.015,0.296,0.082,0.541,0.267,0.731c-0.054,0.077-0.077,0.163-0.077,0.247l0.005,0.188
		l0.16,0.08c0,0.042-0.004,0.125-0.063,0.263c-0.067,0.186-0.097,0.316-0.102,0.447c-0.012,0.212,0.029,0.412,0.118,0.599
		c0.006,0.067,0,0.098,0,0.098l-0.314,0.317l0.446,0.143c0.029,0.014,0.089,0.034,0.108,0.155c-0.02,0.139-0.363,1.206-1.003,3.161
		c-0.697,2.093-0.966,2.712-1.066,2.894l-0.097,0.003l-0.041,0.217c-0.524,2.504-0.954,4.265-1.277,5.212l-0.022,0.084l0.022,0.08
		c0.023,0.078,0.048,0.293-0.047,0.795c-0.186,0.848-0.19,0.982-0.197,1.029c0,0.1,0.028,0.204,0.097,0.317l-0.359,0.234
		L279.809,166.455z M281.073,167.237L281.073,167.237v0.006V167.237z"/>
	<path fill="#FFFFFF" d="M307.914,166.098c0.782,0.614,1.067,0.753,1.288,0.753l0,0c0.306-0.014,0.657-0.158,1.062-0.461
		c0.43-0.309,0.651-0.635,0.668-0.971c0-0.057,0-0.119-0.017-0.179c0.564-1.22,0.982-2.319,1.221-3.221
		c0.711-1.259,1.223-2.155,1.528-2.692l0.054-0.099l-0.02-0.105c-0.04-0.163,0.115-1.072,3.745-5.822l0.149-0.005
		c0.155,0,0.328-0.083,0.55-0.258l-0.006,0.127c-0.008,0.123-0.084,0.428-0.52,1.025l-0.043,0.114
		c-0.471,2.754-0.856,3.174-0.965,3.23l-0.311,0.185l0.251,0.256c0.041,0.046,0.054,0.066,0.054,0.072
		c-0.007,0.091-0.061,0.19-0.156,0.304l-0.06,0.075v0.104c0.007,0.481-0.011,0.937-0.059,1.358c-0.078,0.541-0.126,0.891-0.149,1.1
		c-0.095,0.074-0.155,0.185-0.162,0.327v0.054l0.02,0.049c0.094,0.297,0.166,0.527,0.203,0.696
		c-0.066,0.069-0.115,0.138-0.145,0.193l-0.227,0.413l0.376,0.002c-0.042,0.073-0.071,0.15-0.071,0.233
		c0,0.593,0.262,1.294,0.793,2.134c0.028,0.228,0.322,0.556,1.657,1.396c1.438,0.904,1.873,1.025,2.095,1.025h0.022
		c0.132-0.002,0.322-0.052,0.603-0.174c0.299-0.124,0.389-0.132,0.389-0.132s0.034,0,0.107,0.037c0.131,0.06,0.257,0.084,0.356,0.09
		l0.078-0.015c0.436-0.146,0.732-0.238,0.9-0.291c0.006,0.016,0.017,0.025,0.03,0.044l0.178,0.179l3.102-2.339
		c2.104-1.635,2.295-2.051,2.308-2.319c0.018-0.327-0.047-0.559-0.191-0.716c-0.101-0.109-0.238-0.166-0.44-0.172l0,0l-0.523,0.024
		c-0.169,0.038-0.27,0.046-0.316,0.053h-0.27l-0.006,0.191c-0.09,0.089-0.435,0.363-1.699,1.108c-1.6,0.948-1.944,1.042-2.017,1.05
		h-0.101c-0.19,0-0.25-0.03-0.25-0.03l-0.281-0.183l-0.125,0.306c-0.035,0.079-0.066,0.146-0.096,0.193
		c-0.064-0.039-0.137-0.065-0.227-0.065l-0.269,0.003l-0.006,0.185h-0.018c-0.077,0.01-0.148,0.025-0.209,0.054l-0.041-0.041
		l-0.119,0.007c-0.131,0-0.271,0.034-0.441,0.09c-0.071,0.024-0.125,0.046-0.161,0.054c-0.918-0.563-1.063-0.686-1.063-0.686
		c-0.195-0.226-0.328-0.613-0.386-1.117c-0.014-0.294,0-0.587,0.04-0.88l0.036-0.228l-0.214-0.077
		c-0.061-0.019-0.107-0.048-0.162-0.065c0.048-0.357,0.031-0.516,0.007-0.622c-0.03-0.075-0.03-0.129-0.03-0.142
		c0,0,0.006-0.076,0.125-0.299c0.155-0.288,0.191-0.404,0.198-0.501l0.006-0.075l-0.204-0.371c0,0,0-0.011,0-0.026l0.597-0.023
		l-0.291-0.452l0.112-0.004l-0.024-0.298c-0.024-0.185-0.029-0.338-0.024-0.448c0.024-0.002,0.049-0.005,0.073-0.009l0.107-0.017
		l0.005-0.022c0.232-0.102,0.257-0.318,0.257-0.401c-0.018-0.204-0.029-0.391-0.018-0.564c0.006-0.168,0.029-0.299,0.053-0.406
		c1.26-4.472,2.142-7.366,2.602-8.604l0.213-0.676l-0.655,0.343l-0.059-0.066c-0.287-0.364-0.747-0.723-1.384-1.104l-0.108-0.049
		l-0.095-0.208l-0.138,0.094l-0.083-0.043l-0.007,0.102l-0.041,0.026c-1.271,0.817-2.48,1.789-3.597,2.893
		c-0.579,0.593-1.46,1.562-2.63,2.881c2.051-6.133,3.568-10.121,4.502-11.841l0.073-0.131l-0.065-0.126c0,0-0.013-0.038-0.008-0.143
		l-0.029-0.003c0.204-0.463,0.608-1.693,1.677-5.026l0.161,0.16l0.118-0.483c0.544-2.113,0.817-2.685,0.918-2.83l0.197,0.021
		l0.018-0.301c0.014-0.26-0.03-0.415-0.124-0.522c-0.054-0.057-0.119-0.094-0.202-0.106c-0.603-0.719-1.331-1.031-2.154-0.944
		l-0.117,0.012l-0.073,0.084c-0.131,0.157-0.208,0.216-0.244,0.239h-0.006c-0.065-0.023-0.119-0.028-0.256-0.038
		c-0.132,0.01-0.228,0.071-0.484,0.326l-0.113,0.109l0.119,0.487c-0.274,0.249-0.423,0.598-0.435,1.046
		c-0.011,0.131,0.047,0.277,0.203,0.476c0.041,0.059,0.064,0.097,0.078,0.118l-0.515,1.401c-0.435,1.792-1.198,4.148-2.277,7.006
		l-2.832,7.383l-0.041,0.113l0.047,0.108c0.059,0.117,0.084,0.201,0.089,0.256c-0.215,0.321-0.589,1.126-1.372,3.68
		c-0.619,2.145-1.12,3.548-1.484,4.162l-0.036,0.119c-0.16,2.027-0.834,3.973-2.016,5.791l-0.124,0.208l0.185,0.162
		c0.029,0.018,0.054,0.04,0.076,0.059l-0.19,0.009l0.035,0.308c0.013,0.065-0.006,0.237-0.154,0.524l-0.406,0.458l-0.005,0.099
		C306.925,165.198,307.073,165.437,307.914,166.098z"/>
	<path fill="#FFFFFF" d="M327.713,155.932l-0.13,0.561l0.769-0.358c0.28,0.286,0.555,0.423,0.834,0.431l0,0
		c0.101,0,0.215-0.022,0.357-0.065c0.107-0.032,0.197-0.046,0.263-0.046l0.083-0.008l0.073-0.046
		c1.436-1.027,2.694-1.745,3.749-2.132c-0.179,0.995-0.398,1.139-0.452,1.163l-0.155,0.064l-0.019,0.157
		c-0.143,1.18-0.494,2.727-1.042,4.573c-0.024,0.063-0.067,0.177-0.233,1.741c-0.083,0.554-0.34,0.889-0.812,1.052l0.103,0.551
		c0,0,0.004,0,0.023,0.006c-0.144,0.102-0.298,0.27-0.304,0.495l-0.036,0.294l0.243-0.01c-0.195,0.247-0.278,0.474-0.256,0.688
		l-0.006,0.258l0.262-0.009c0,0,0.062,0.012,0.204,0.121c0.185,0.131,0.311,0.197,0.424,0.221c0.405,0.192,0.505,0.267,0.52,0.274
		l0.082,0.089h0.127c0.146-0.005,0.363-0.054,0.643-0.151c0.335-0.107,0.423-0.116,0.442-0.116h0.111l0.073-0.081
		c0.262-0.246,0.465-0.434,0.613-0.558l0.118-0.091l-0.011-0.144c-0.012-0.27-0.018-0.52-0.005-0.764v-0.038l-0.007-0.037
		c-0.053-0.231-0.096-0.38-0.12-0.47c0.024-0.027,0.036-0.041,0.072-0.069c0.185-0.17,0.28-0.352,0.298-0.563
		c0-0.062-0.011-0.139-0.142-0.458c-0.073-0.16-0.102-0.313-0.097-0.458c0.048-0.957,0.376-2.396,0.96-4.279
		c0.591-1.857,0.924-3.213,1.02-4.145c0.34-0.244,0.752-0.513,1.229-0.805c0.113,0.106,0.228,0.137,0.323,0.137h0.004
		c0.061,0,0.127-0.011,1.337-0.376c0.696-0.179,1.158-0.305,1.436-0.393c0.442-0.241,0.664-0.341,0.777-0.386l0.334,0.332
		l0.197-0.153c0.375-0.3,0.709-0.455,0.977-0.396l0.203,0.03l0.084-0.185c0.029-0.057,0.054-0.101,0.07-0.132
		c0.317-0.026,0.688-0.153,1.122-0.388c0.501-0.271,0.745-0.352,0.852-0.369l0.198-0.048l0.024-0.19
		c0.054-0.42,0.064-0.692,0.035-0.873l-0.029-0.2l-0.204-0.036c-0.321-0.058-0.799-0.077-1.443-0.054
		c-0.167,0-0.375,0.061-0.668,0.178c-0.155,0.063-0.269,0.091-0.321,0.112c-0.083-0.125-0.209-0.2-0.37-0.206l0,0
		c-0.41,0.012-1.002,0.154-1.823,0.417c-0.854,0.277-1.248,0.366-1.426,0.382c-0.078-0.077-0.198-0.126-0.323-0.126
		c-0.113,0.006-0.238,0.054-0.572,0.292c-0.548,0.021-0.899,0.036-1.128,0.045c2.477-9.938,4.176-15.526,5.069-16.635
		c0.167-0.252,0.347-0.519,0.562-0.834c0.245-0.471,0.347-0.768,0.352-0.96c0.006-0.084-0.005-0.139-0.185-0.571
		c-0.12-0.267-0.137-0.414-0.131-0.493l0.005-0.201l-0.189-0.074c-0.364-0.146-0.687-0.298-0.997-0.462
		c-0.31-0.181-0.682-0.267-1.091-0.281h-0.131c-0.245,0.015-0.536,0.156-0.906,0.466l0.041-0.16l-0.238,0.316
		c-0.353,0.292-0.52,0.349-0.578,0.366l-0.215,0.036l-0.013,0.221c-0.007,0.313-0.007,0.475,0.03,0.582
		c-0.091,0.315-0.161,0.566-0.215,0.745l-0.089,0.263l0.263,0.1c0.023,0,0.054,0.016,0.077,0.021
		c-0.048,0.021-0.073,0.034-0.108,0.049l-0.273,0.094l0.232,0.63c-0.119,0.139-0.187,0.308-0.19,0.506
		c-0.006,0.073,0,0.151,0.023,0.223c-0.321,1.645-0.627,3.12-0.895,4.389l-0.973,3.665c-0.429,1.906-0.811,3.205-1.144,3.879
		l-0.03,0.063v0.068c0.047,1.306-0.227,1.789-0.46,1.975l-0.691,0.53l0.632-0.021c-0.047,0.098-0.072,0.204-0.077,0.307
		c-0.005,0.09,0.024,0.203,0.126,0.322c-0.114,0.204-0.191,0.501-0.233,0.87c-0.053,0.579-0.304,0.711-0.525,0.768
		c-0.356,0.145-0.578,0.234-0.727,0.313c-0.071-0.047-0.156-0.065-0.251-0.068h-0.012c-0.101,0.003-0.196,0.05-0.377,0.164
		c-0.028,0.018-0.053,0.029-0.071,0.038l-0.041-0.023l-0.56,0.199c-0.55,0.235-0.924,0.405-1.08,0.489
		c-1.322,0.477-2.206,0.8-2.641,0.974c-0.733,0.35-1.122,0.826-1.146,1.436c-0.006,0.126,0.02,0.344,0.322,0.89
		C327.743,155.798,327.713,155.932,327.713,155.932z"/>
	<path fill="#FFFFFF" d="M344.643,156.63c-0.542,0.946-0.81,1.603-0.829,2.014l-0.048,0.907c-0.095,0.172-0.155,0.322-0.155,0.447
		c-0.011,0.135,0.061,0.263,0.232,0.453c-0.088,0.358-0.101,0.637-0.024,0.906c0.253,0.435,0.479,0.9,0.67,1.392
		c0.059,0.124,0.029,0.199,0,0.249l-0.161,0.249l0.256,0.148c1.337,0.766,2.516,1.391,3.489,1.832
		c0.185,0.116,0.356,0.179,0.537,0.179c0.059,0,0.124,0,0.186-0.021c1.293-0.275,2.188-0.426,2.622-0.44
		c0.138-0.004,0.315-0.067,0.733-0.374c0.312-0.219,0.399-0.268,0.399-0.268s0.053,0.011,0.151,0.033
		c0.117,0.03,0.212,0.044,0.331,0.044c0.132,0,0.329-0.01,1.921-1.197c1.313-0.979,1.712-1.097,1.832-1.097l0.195-0.01l0.061-0.2
		c0.07-0.209,0.279-0.599,0.655-1.144c0.621-0.922,0.627-0.997,0.632-1.093c0.014-0.268-0.094-0.435-0.185-0.531
		c-0.147-0.166-0.394-0.252-0.732-0.252h-0.101c-0.209,0.002-0.461,0.104-0.759,0.293c-0.304,0.192-0.442,0.248-0.495,0.265
		l-0.107,0.053c-1.705,1.38-2.917,2.171-3.591,2.331l-0.088,0.044c-0.323,0.205-0.626,0.41-0.919,0.613c0,0-0.006,0-0.006-0.006
		c-0.107-0.041-0.197-0.053-0.31-0.061l0,0l-0.077,0.018c-0.315,0.102-0.609,0.186-0.871,0.246c-0.066,0-0.156-0.007-0.274-0.034
		c-0.238-0.037-0.369-0.074-0.441-0.098l0.023-0.394l-0.829,0.504c-0.269-0.094-0.573-0.295-0.9-0.604
		c-0.352-0.33-0.53-0.618-0.525-0.803c0.02-0.058,0.214-0.403,1.97-1.896c2.068-1.765,4.179-3.551,6.309-5.353l0.058-0.053
		c1.499-2.252,2.012-2.648,2.16-2.713l0.053-0.487c-0.028-0.021-0.048-0.038-0.076-0.056c0.554-0.943,0.948-1.683,1.176-2.188
		l0.04-0.088l-0.017-0.094c-0.084-0.326-0.138-0.646-0.186-0.956c-0.144-0.799-0.423-1.863-1.188-1.876l0,0
		c-0.1,0-0.226,0.035-0.382,0.103c-0.102,0.035-0.155,0.046-0.16,0.054c-0.034-0.008-0.172-0.062-0.566-0.268l-0.193-0.098
		l-0.142,0.14c-0.143,0.145-0.273,0.229-0.38,0.226h-0.008l-0.077-0.008l-0.071,0.029c-1.42,0.621-2.474,1.129-3.179,1.54
		c-1.067,1.005-1.352,1.044-1.352,1.044l-0.085-0.011l-0.065,0.021c-0.132,0.049-0.364,0.135-1.742,1.816
		c-1.128,1.423-1.669,1.896-1.938,2.037l-0.054,0.032l-0.035,0.064c-0.948,1.482-1.151,1.808-1.173,1.871l-0.031,0.064
		c-0.012,0.072-0.106,0.306-0.614,1.083C344.773,155.813,344.602,156.276,344.643,156.63z M349.652,153.649
		c0.483-0.616,1.418-1.62,2.742-2.957c1.146-0.791,2.027-1.34,2.643-1.649c-0.055,0.166-0.144,0.322-0.264,0.488
		c-0.279,0.354-0.416,0.604-0.439,0.793c-0.316,0.37-0.53,0.676-0.663,0.932c-0.09,0.149-0.339,0.483-1.091,1.193
		c-0.608,0.584-0.989,1.073-1.174,1.479c-1.564,1.114-2.719,1.956-3.483,2.546C348.347,155.521,348.918,154.573,349.652,153.649z"/>
	<path fill="#FFFFFF" d="M376.391,152.245c-0.047-0.134-0.047-0.307-0.023-0.464c0.149-0.385,0.215-0.604,0.252-0.744
		c0.398-0.172,0.614-0.413,0.619-0.72c0.006-0.101-0.005-0.204-0.041-0.319v-0.014c0.107-0.117,0.178-0.165,0.215-0.19l0.356-0.19
		l-0.31-0.272c-0.186-0.156-0.208-0.244-0.208-0.244l0,0c0.054-0.37,0.118-0.723,0.172-0.998c0.221-0.494,0.292-0.591,0.305-0.603
		l-0.101-0.121l0.226,0.015c0.079-0.972-0.012-1.7-0.279-2.23c-0.043-0.173-0.222-0.369-0.807-0.776
		c-0.595-0.422-0.756-0.548-0.792-0.596l-0.139-0.137l-0.179,0.081c-0.214,0.098-0.321,0.111-0.393,0.104
		c-0.221-0.089-0.429-0.154-0.668-0.191c-0.374,0.007-0.71,0.238-0.953,0.618l-0.103,0.093l-0.054,0.077
		c-0.107,0.218-0.196,0.37-0.267,0.483c-0.104-0.075-0.223-0.119-0.354-0.145l-0.232-0.026l-0.071,0.222
		c-0.06,0.159-0.275,0.438-1.015,0.825c-0.536,0.287-0.899,0.533-1.102,0.781c0,0-0.06-0.004-0.091-0.013h-0.005
		c-0.167,0.013-0.269,0.08-0.327,0.143l-0.191,0.193l0.142,0.147c-0.339,0.354-0.577,0.68-0.685,0.996l-0.023,0.072
		c-0.091-0.036-0.187-0.06-0.287-0.066l0,0l-0.365,0.017l0.103,0.347c0.019,0.057-0.132,0.194-0.59,0.326l-0.131,0.039l-0.054,0.128
		c-0.114,0.304-0.447,0.718-0.984,1.243c-0.155,0.166-0.311,0.37-0.484,0.608c0.365-1.108,0.633-2.104,0.807-2.958l0.022-0.113
		l-0.06-0.096c-0.262-0.404-0.44-0.704-0.536-0.921l-0.167-0.367l-0.393,0.379c-0.154-0.068-0.311-0.08-0.549-0.104
		c-0.925,0.03-1.152,0.086-1.224,0.323l-0.04,0.231l0.018,0.011c-1.21,5.618-1.611,6.751-1.748,6.931l-0.048,0.06l-0.09,0.835
		c-0.374,0.996-0.602,1.693-0.691,2.122l-0.029,0.271c0,0,0,0,0,0.008l0,0l0.279,0.014c0-0.006,0.008,0,0.008,0l-0.168,0.204
		c0,0,0.023,0.016,0.077,0.085c-0.347,0.426-0.596,0.86-0.751,1.307c-0.167,0.479-0.274,0.873-0.329,1.203
		c-0.011,0.284-0.112,0.731-0.309,1.332c-0.209,0.643-0.322,1.156-0.341,1.52c-0.006,0.073-0.006,0.131,0,0.194
		c-0.369,0.318-0.554,0.555-0.607,0.804l-0.03,0.787l0.096,0.09c1.174,1,1.425,1.109,1.581,1.14h0.027h0.03
		c0.371-0.014,0.836-0.12,1.408-0.337c0.603-0.23,0.989-0.487,1.193-0.791l0.189-0.286l-0.189-0.083
		c0.106-0.135,0.165-0.274,0.173-0.426l0.007-0.233l-0.224-0.057c-0.165-0.035-0.22-0.417-0.142-0.996
		c0.071-0.873,0.244-1.87,0.501-2.916l0.752-2.117l0.036-0.256l-0.204-0.119c0.013-0.036,0.019-0.06,0.03-0.089h0.12l0.078-0.146
		c0.291-0.534,0.457-0.874,0.529-1.064l0.041-0.675c1.057-2.508,2.679-4.618,4.83-6.287l0.072-0.063l0.024-0.09
		c0.047-0.182,0.149-0.477,0.311-0.572c0.035,0.03,0.076,0.063,0.124,0.077l0.061,0.033h0.064c0.102-0.007,0.227-0.039,0.849-0.468
		c0.457-0.315,0.577-0.369,0.577-0.369c-0.071-0.002-0.162-0.058-0.18-0.161l0.563-0.019v-0.051c0.01-0.031,0.088-0.137,0.398-0.26
		c0.311-0.109,0.55-0.215,0.681-0.345h0.035l0.065,0.008l0.124,0.297l-0.186,0.141l-0.009,0.128c0,0.178,0.081,0.355,0.268,0.577
		c0.022,0.024,0.047,0.048,0.065,0.067c-0.12,0.082-0.197,0.147-0.245,0.188l-0.303,0.299l0.394,0.166
		c0.054,0.025,0.089,0.043,0.117,0.058c-0.131,0.241-0.231,0.46-0.315,0.668l-0.404-0.431l0.131,0.89
		c0.023,0.136,0.023,0.271,0.023,0.385c-0.091,0.698-0.477,1.493-1.139,2.366l-0.066,0.097l0.013,0.104
		c0.083,0.939,0.304,2.181,1.116,2.193c0.427,0.006,1.06-0.282,2.295-2.498L376.391,152.245z"/>
	<path fill="#FFFFFF" d="M365.533,175.718c-24.081,1.749-48.197,2.851-72.313,3.617c0.095-0.184,0.204-0.395,0.35-0.671l1.111-2.017
		l-0.273,0.107c0.297-0.388,0.524-0.686,0.68-0.885l0.078-0.117l-0.037-0.134c-0.041-0.146-0.113-0.271-0.215-0.379
		c0.233-0.299,0.393-0.561,0.495-0.806c0.258-0.34,0.483-0.655,0.711-0.989l0.272-0.672c0.204-0.604,0.376-1.063,0.502-1.367
		c0.119-0.289,0.221-0.525,0.322-0.703l0.106-0.207l-0.179-0.15c-0.029-0.013-0.042-0.034-0.06-0.05
		c0.299-0.383,0.775-1.348,1.642-4.244c0.721-2.477,1.191-4.019,1.382-4.625c0.603-3.004,1.838-5.835,3.674-8.421l0.042-0.099
		c0.422-1.816,0.805-2.426,1.061-2.619l0.101-0.076l0.006-0.131c0.014-0.173,0.031-0.347,0.073-0.537
		c0.029-0.204,0.125-0.329,0.311-0.393l0.178-0.064l0.066-1.305l-0.055-0.08c-0.459-0.684-0.805-1.232-1.03-1.617l-0.104-0.182
		l-0.202,0.048c-0.142,0.027-0.347,0.051-0.614,0.053c-0.054,0-0.154-0.014-0.316-0.091c-0.213-0.107-0.381-0.158-0.524-0.158
		l-0.75,0.163l-0.024,0.46c-0.085,0.023-0.185,0.057-0.291,0.102c-0.224,0.093-0.341,0.107-0.395,0.107l-0.072,0.012
		c-1.175,0.357-1.969,0.661-2.438,0.936l-0.055,0.042c-0.245,0.233-0.721,0.751-1.388,1.5c-0.413,0.455-0.8,0.797-1.152,1.005
		l-0.083,0.065c-2.653,3.369-3.352,4.07-3.536,4.187l-0.077,0.05l-0.035,0.094c-0.257,0.745-0.438,1.066-0.532,1.192
		c-1.257,1.609-2.05,2.647-2.313,3.034c-0.513,0.949-0.899,1.699-1.139,2.242l-0.036,0.07l0.013,0.072
		c0.005,0.112-0.023,0.324-0.186,0.656l-0.543,0.817l0.33,0.126c0.033,0.018,0.106,0.049,0.075,0.274
		c-0.16,0.729-0.19,0.937-0.19,1.032l-0.007,0.103l0.066,0.083c1.271,1.604,2.605,2.448,3.984,2.491v0.009l0.238-0.009l-0.007-0.283
		l0.013-0.016l0,0l0.148,0.203c0.013-0.005,0.09-0.055,0.465-0.239c1.026-0.638,1.838-1.191,2.476-1.674
		c0.405-0.311,0.745-0.586,1.021-0.812c-0.425,1.282-0.555,1.603-0.592,1.666l-0.185,0.266l0.291,0.145
		c0.061,0.021,0.103,0.059,0.145,0.104c-0.352,0.378-0.613,0.706-0.799,0.991l-0.041,0.078v0.081c0,0.363-0.198,1.482-1.152,4.739
		c-0.303,1.019-0.52,1.642-0.662,2.026l-0.482,0.304c-0.012,0.134-0.012,0.245,0,0.343c-0.185,0.191-0.447,0.618-0.914,1.652
		c-0.632,1.398-0.917,1.686-1.013,1.75l-0.291,0.185l0.244,0.251c0.018,0.015,0.035,0.033,0.041,0.052
		c-0.173,0.151-0.268,0.321-0.299,0.504c-0.084,0.142-0.185,0.225-0.31,0.243l-0.185,0.03l-0.03,0.174
		c-5.485,0.166-10.966,0.319-16.446,0.455c0.143-0.99,0.418-1.876,0.905-2.561l0.156-0.204l-0.191-0.171
		c-0.154-0.132-0.228-0.21-0.25-0.25c0.022-0.275,0.137-0.461,0.369-0.599l0.12-0.08l0.012-0.146
		c0.006-0.143-0.03-0.268-0.119-0.384c0.75-1.064,1.329-1.921,1.713-2.556l0.07-0.101l-0.042-0.12
		c-0.204-0.793-0.722-0.924-1.074-0.93h-0.005c-0.543,0.018-0.953,0.292-1.216,0.808c-0.8,1.945-1.17,2.135-1.235,2.161
		l-0.161,0.048l-0.029,0.157c-0.18,0.82-0.353,0.916-0.353,0.916l-0.274,0.055l0.053,0.281c0.043,0.221,0.062,0.434,0.056,0.63
		c-0.013,0.185-0.103,0.609-0.495,1.566c-0.263,0.623-0.401,1.111-0.484,1.542c-57.54,1.398-115.134,1.354-172.651,3.808
		c-1.687,0.081-7.18,2.736-2.862,2.555c58.405-2.495,116.9-2.412,175.341-3.879L271,182.829l0.063,0.29l0.279,0.006
		c0.027,0,0.047,0,0.07,0c-0.077,1.567,0.632,3.291,2.111,5.112l0.06,0.058c0.168,0.115,0.148,0.185,0.144,0.212l-0.136,0.599
		l0.637-0.34l0.059-0.125c0.025,0.013,0.18,0.088,0.813,0.635c0.721,0.616,1.049,0.757,1.24,0.79
		c0.661,0.262,1.157,0.401,1.497,0.421c0.572,0.104,0.68,0.15,0.68,0.15l0.06-0.073l0.005,0.14l1.509-0.092
		c1.795-0.102,2.022-0.146,2.146-0.174c1.36-0.543,2.465-1.031,3.269-1.464l0.072-0.036l0.035-0.061
		c0.25-0.413,0.412-0.622,0.519-0.725c0.245-0.013,0.573-0.145,0.829-0.634l0.012-0.034c0.049,0.017,0.107,0.028,0.161,0.028l0,0
		h0.019l0.572-0.458c0.315-0.724,0.483-0.801,0.542-0.828c0.745-0.476,1.6-1.442,2.602-2.941l0.146-0.217l-0.07-0.055
		c0.102-0.095,0.191-0.227,0.269-0.358c0.15-0.247,0.209-0.394,0.245-0.501c0.173-0.128,0.29-0.227,0.398-0.315
		c23.622-0.767,47.225-1.858,70.811-3.575C364.34,178.147,369.833,175.406,365.533,175.718z M296.339,159.837
		c-0.059-0.018-0.143-0.026-0.227-0.026l0,0l-0.19,0.003l-0.07,0.175c-0.044,0.125-0.066,0.233-0.072,0.32
		c-0.005,0.127,0.023,0.286,0.096,0.494c-1.17,0.701-1.586,1.111-1.749,1.39l-0.458,0.016l-0.082,0.109
		c-0.317,0.432-0.461,0.67-0.538,0.823c-0.162,0.051-0.429,0.188-0.947,0.51c-0.085-0.025-0.174-0.041-0.264-0.041
		c-0.07-0.01-0.138,0-0.167,0.011c-0.203,0.017-0.346-0.021-0.435-0.114c-0.108-0.121-0.162-0.356-0.145-0.687
		c0.067-1.417,1.284-3.604,3.614-6.505c1.838-2.287,3.322-3.865,4.431-4.718c0.126,0.273,0.209,0.483,0.251,0.61
		c-0.03,0.35-0.145,0.874-0.352,1.575c-0.96,3.484-1.343,4.135-1.45,4.254c-0.118,0.072-0.195,0.242-0.303,0.51
		c-0.077,0.169-0.167,0.29-0.251,0.324l-0.07,0.033l-0.048,0.068C296.703,159.261,296.514,159.551,296.339,159.837z M288.08,182.271
		l-0.082,0.084c-0.502,0.805-1.295,1.729-2.369,2.755c-0.722,0.657-1.336,1.112-1.812,1.357c-0.693,0.299-1.366,0.571-2.004,0.826
		c-0.835,0.318-1.002,0.363-1.002,0.363s-0.061-0.009-0.18-0.071c-0.173-0.097-0.311-0.138-0.436-0.141l0,0
		c-0.131,0.003-0.264,0.057-0.423,0.176c-0.042,0.027-0.064,0.045-0.089,0.06c-0.072-0.007-0.186-0.015-0.365-0.023
		c-0.356-0.024-0.535-0.027-0.811-0.024c-0.171-0.003-0.31-0.068-0.424-0.205l-0.096-0.104l-0.131,0.006
		c-0.075,0-0.173,0.018-0.279,0.057l-0.185,0.014c-0.078-0.034-0.453-0.255-2.07-1.647c-0.209-0.403-0.387-0.791-0.561-1.16
		l0.03,0.03l-0.751-1.566c-0.107-0.226-0.167-0.458-0.238-0.688c4.889-0.129,9.781-0.274,14.669-0.421
		C288.343,182.051,288.224,182.165,288.08,182.271z"/>
</g>
</svg>
