<svg id="Layer_1" data-name="Layer 1" xmlns="http://www.w3.org/2000/svg" viewBox="0 0 519 238">
  <defs>
    <style>
      .cls-1 {
        fill: #fff;
      }
    </style>
  </defs>
  <title>sc01-copy03</title>
  <g>
    <path class="cls-1" d="M170.83,174.91l-53.85-42V75.61h47.62c5.18,0,6-3.15,6-5s-.78-5-6-5H117V47.37c0-5.39-3.3-6.19-5.27-6.19s-5.15.8-5.15,6.19V65.54H59.3c-5.18,0-6,3.15-6,5s.78,5,6,5h47.27v57.26L52.25,174.46a5.25,5.25,0,0,0-2.15,4.22c0,3.32,1.83,5.15,5.15,5.15a5.54,5.54,0,0,0,3.33-1.15L111.83,142l52.68,41.28a5.14,5.14,0,0,0,3.22,1c3.4,0,5.27-1.83,5.27-5.15A5.26,5.26,0,0,0,170.83,174.91Z"/>
    <path class="cls-1" d="M355.28,85.86c-3,.1-4.65,1.88-4.65,5,0,3.4,1.91,5.27,5.38,5.27.36,0,1.3,0,5.21-.47l32.12-3.89v5c0,4.58,3,5.27,4.81,5.27a5.24,5.24,0,0,0,3.56-1.6,5.17,5.17,0,0,0,1.71-3.67V90.72l3.42-.45c4.78-.62,7.2-2.43,7.2-5.37s-1.63-4.86-4.69-5.15l-5.93.68v-24h3.28a4.22,4.22,0,0,0,3-1.67,7.3,7.3,0,0,0,.69-1v0c0,1.88.83,5,6.42,5h29L434.21,69l-11-7.25a4.79,4.79,0,0,0-2.84-.79c-3.32,0-5.15,1.75-5.15,4.92a4.08,4.08,0,0,0,1.63,3.57l9.33,6.46-10.92,9.45a6.68,6.68,0,0,0-2.7,5.12c0,3.17,1.7,4.92,4.81,4.92,1.46,0,3.41-1.08,6.14-3.38L435.4,81.9l16.84,11.74a5.28,5.28,0,0,0,7.88-4.36,4.23,4.23,0,0,0-1.74-3.57L443,75l20-17.41a4.93,4.93,0,0,0,1.78-4c0-2.19-1.15-4.81-6.65-4.81H416.86c-3.26,0-4.9,1.07-5.7,2.34-.06-2.21-1.33-4.77-6.88-4.77H357.74c-5.69,0-6.54,3.08-6.54,4.92a4.8,4.8,0,0,0,1,3,5.25,5.25,0,0,0,4.22,2.15H360V85.68Zm35.56-12.63c0-3-1.54-4.69-4.23-4.69a33,33,0,0,0-4.84.83l-11.72,2.39V69.64l17.35-3.51c1.2-.24,2.62-1.16,2.62-4.2A5.11,5.11,0,0,0,389,59a3.08,3.08,0,0,0-2.41-1.63h-.92l-.18.18-.16,0a7.93,7.93,0,0,0-1.63.26,19.33,19.33,0,0,1-1.9.34l-11.75,2v-3.7h23.3v25l-23.3,2.74V81.3l17.33-3.51C388.67,77.56,390.84,76.65,390.84,73.23Z"/>
    <path class="cls-1" d="M464,171.38l-21.83-13.16,14.11-15.74c2.37-2.62,3.52-4.87,3.52-6.87a4.44,4.44,0,0,0-1.33-2.94c-2-2.23-5.75-2.27-8.14.49l-15.82,18.71-.26.31v1.08l-15.65-9.6c-1.15-.66-3.47-.78-5.91-.39V115.07L462.77,111c5.06-.34,6.12-2.86,6.12-4.91a5.9,5.9,0,0,0-1.38-3.55,3.88,3.88,0,0,0-3.08-1.83c-.24,0-1.24.07-3,.23l-105,8.43c-4.65.43-6,.95-6.63,1.27a4.68,4.68,0,0,0-2.69,4.45,4.13,4.13,0,0,0,2.87,4.14c1.86.79,1.95.77,2.36.76l1-.18.43.14.35-.12.75.1.2-.2,47.12-3.68v27.42a3.66,3.66,0,0,0-1.66-.44c-1.23,0-3.06.75-5.77,2.36l-42.86,26c-2.45,1.54-3.63,3.14-3.63,4.87a5.59,5.59,0,0,0,1.45,3.63c2.42,2.64,4.7,2.12,8.32-.15l44.15-26.8v26.32c0,3.47,1.87,5.38,5.27,5.38s5.15-1.91,5.15-5.38V152.37L459.34,181a8.62,8.62,0,0,0,4.63,1.32c3.18,0,4.92-1.75,4.92-4.92C468.89,175.35,467.28,173.38,464,171.38Z"/>
    <path class="cls-1" d="M361.53,156.08l31.63-18.35a5.42,5.42,0,0,0,3.11-4.89,5.37,5.37,0,0,0-1.29-3.47,3.86,3.86,0,0,0-3.42-1.55l-.94.11a6.8,6.8,0,0,0-1.57.37l-33.36,19.63c-2.2,1.29-3.32,2.85-3.32,4.65a5.16,5.16,0,0,0,1.33,3.29,4.7,4.7,0,0,0,3.47,1.75A8.86,8.86,0,0,0,361.53,156.08Z"/>
    <g>
      <path class="cls-1" d="M89.75,215.21H84v-4.49h16.35v4.49H94.58v19.15H89.75Z"/>
      <path class="cls-1" d="M109.67,210.72v9.08h7.92v-9.08h4.8v23.64h-4.8v-9.89h-7.92v9.89h-4.83V210.72Z"/>
      <path class="cls-1" d="M141.15,224.36h-7.83V230h8.74v4.38H128.49V210.72h13.13v4.38h-8.3V220h7.83Z"/>
      <path class="cls-1" d="M171.14,233.69a12.51,12.51,0,0,1-5.46,1c-7.36,0-11.14-5.09-11.14-11.82,0-8.07,5.18-12.56,11.62-12.56a11.47,11.47,0,0,1,5.24,1.05l-1,4.24a9.51,9.51,0,0,0-4-.88c-3.82,0-6.79,2.56-6.79,7.82,0,4.74,2.53,7.72,6.82,7.72a11,11,0,0,0,4-.77Z"/>
      <path class="cls-1" d="M194.72,222.29c0,7.75-4.23,12.45-10.45,12.45s-10-5.3-10-12c0-7.09,4.07-12.38,10.35-12.38C191.15,210.33,194.72,215.77,194.72,222.29Zm-15.37.32c0,4.63,2,7.89,5.18,7.89s5.11-3.44,5.11-8c0-4.24-1.83-7.89-5.15-7.89S179.35,218,179.35,222.61Z"/>
      <path class="cls-1" d="M217.77,225.31c-.09-2.84-.19-6.28-.19-9.72h-.09c-.66,3-1.55,6.38-2.37,9.15L212.53,234h-3.76l-2.27-9.15c-.69-2.77-1.42-6.14-1.93-9.23h-.06c-.13,3.19-.22,6.84-.38,9.79l-.38,9H199.3l1.36-23.64h6.41l2.08,7.89c.66,2.74,1.33,5.68,1.8,8.45H211c.6-2.74,1.33-5.86,2-8.49l2.27-7.86h6.28l1.17,23.64h-4.7Z"/>
      <path class="cls-1" d="M233.21,210.72v23.64h-4.83V210.72Z"/>
      <path class="cls-1" d="M239.27,234.36V210.72h5.62l4.42,8.66a72.18,72.18,0,0,1,3.47,8.1h.09a97.39,97.39,0,0,1-.41-9.86v-6.91h4.42v23.64h-5.05l-4.55-9.12c-1.26-2.53-2.65-5.58-3.69-8.35l-.09,0c.13,3.12.19,6.45.19,10.31v7.12Z"/>
      <path class="cls-1" d="M280.72,233.27a21.68,21.68,0,0,1-7.1,1.33c-3.88,0-6.69-1.09-8.65-3.19a12.14,12.14,0,0,1-3-8.59c0-7.86,5.18-12.35,12.15-12.35a13.39,13.39,0,0,1,5.9,1.16l-1,4.28a10.77,10.77,0,0,0-5-1c-4,0-7,2.53-7,7.65,0,4.88,2.75,7.75,6.69,7.75a5.85,5.85,0,0,0,2.37-.35V225h-3.28v-4.17h7.92Z"/>
      <path class="cls-1" d="M297.51,215.21H291.8v-4.49h16.35v4.49h-5.81v19.15h-4.83Z"/>
      <path class="cls-1" d="M331.17,222.29c0,7.75-4.23,12.45-10.45,12.45s-10-5.3-10-12c0-7.09,4.07-12.38,10.35-12.38C327.6,210.33,331.17,215.77,331.17,222.29Zm-15.37.32c0,4.63,2,7.89,5.18,7.89s5.11-3.44,5.11-8c0-4.24-1.83-7.89-5.15-7.89S315.79,218,315.79,222.61Z"/>
      <path class="cls-1" d="M354,233.27a21.68,21.68,0,0,1-7.1,1.33c-3.88,0-6.69-1.09-8.65-3.19a12.15,12.15,0,0,1-3-8.59c0-7.86,5.18-12.35,12.15-12.35a13.39,13.39,0,0,1,5.9,1.16l-1,4.28a10.77,10.77,0,0,0-5-1c-4,0-7,2.53-7,7.65,0,4.88,2.75,7.75,6.69,7.75a5.85,5.85,0,0,0,2.37-.35V225h-3.28v-4.17H354Z"/>
      <path class="cls-1" d="M372.31,224.36h-7.83V230h8.74v4.38H359.65V210.72h13.13v4.38h-8.3V220h7.83Z"/>
      <path class="cls-1" d="M382.66,215.21h-5.71v-4.49H393.3v4.49h-5.81v19.15h-4.83Z"/>
      <path class="cls-1" d="M402.58,210.72v9.08h7.92v-9.08h4.8v23.64h-4.8v-9.89h-7.92v9.89h-4.83V210.72Z"/>
      <path class="cls-1" d="M434.06,224.36h-7.83V230H435v4.38H421.4V210.72h13.13v4.38h-8.3V220h7.83Z"/>
      <path class="cls-1" d="M440.15,211a38.18,38.18,0,0,1,6.41-.49c3.16,0,5.37.53,6.88,1.86a6.3,6.3,0,0,1,2,4.95,6.24,6.24,0,0,1-3.76,5.82v.11c1.48.67,2.31,2.24,2.84,4.42.66,2.67,1.33,5.75,1.74,6.66h-4.92a32,32,0,0,1-1.48-5.51c-.57-2.95-1.48-3.75-3.44-3.79h-1.45v9.3h-4.77Zm4.77,10.17h1.89c2.4,0,3.82-1.33,3.82-3.4s-1.33-3.26-3.54-3.3a10.81,10.81,0,0,0-2.18.18Z"/>
    </g>
    <g>
      <path class="cls-1" d="M275.56,45.52a1.24,1.24,0,0,0,0-.49L275,43.78A3.82,3.82,0,0,0,276.9,43c-.63.14-2.29-1.3-2.29-1.3.12-.58,2.53-1.47,2.53-1.47a3.18,3.18,0,0,0-1.35-.52,1.85,1.85,0,0,0,1-1.31,1.83,1.83,0,0,1-2.09,0,4.45,4.45,0,0,0,1.49-2.18,3.29,3.29,0,0,1-1.64.81c1.38-1.91.44-4.65.44-4.65a4.49,4.49,0,0,1-1.44,2.3,1.58,1.58,0,0,0,.11-1.68s-.34.21-1.61,2.86c-.09.19-.18.33-.27.49l-.36-.82c.39-.74.65-1.35.65-1.35a6.44,6.44,0,0,1-.85.89l-5.39-12.4c3.81-4.44,3.89-8.25,3.89-8.25a1.27,1.27,0,0,1-.64.52,1,1,0,0,1-.45.06,11.4,11.4,0,0,0,1.44-3.82,6.4,6.4,0,0,1-1.79,1.39c2.73-3.63,1.58-5.16,1.58-5.16-.3.83-2,1.68-2,1.68.6-.71-.06-3.06-.06-3.06a9.76,9.76,0,0,1-3.67,3.33,10.34,10.34,0,0,0,1.62-3.77c-.17.54-.88.83-1.11.92l-.08,0a8.2,8.2,0,0,0-.46-3.08c.2.76-.71,1.76-.71,1.76a5.66,5.66,0,0,0-.08-2.66c.05,1.56-2.67,5-2.67,5-.46-1.38,1.46-4.87,1.46-4.87A13,13,0,0,0,258,6.78,17.66,17.66,0,0,1,260.18,2a29.11,29.11,0,0,0-3.83,3.62,7.73,7.73,0,0,0,.74-3.06c-.43,1.23-2.72,2.68-4.46,5.63a35.28,35.28,0,0,1,.42-4.33,8.1,8.1,0,0,0-1.94,3,18.82,18.82,0,0,1-1,2.83h-.23c.15-1.9-.41-3.52-.69-3.42,0,0-.08.06-.1.15a15.85,15.85,0,0,1-1.5,3.35l-11.21.44a1.33,1.33,0,0,0-.55.14l-9.66,4.87c-.48-3.53,1.11-8.52,1.89-10.4a1.33,1.33,0,0,0-1.67-1.76h0c-6.6,2.38-10.87,5.86-12.67,10.35a13.52,13.52,0,0,0-.51,8.34L192.73,32.15h0a1.32,1.32,0,0,0-.32.23l-.07.09a1.32,1.32,0,0,0-.11.13s0,.07-.05.11l-.05.11a1.31,1.31,0,0,0-.09.32.18.18,0,0,1,0,0,1.35,1.35,0,0,0,0,.41s0,0,0,0,0,0,0,.07a1.3,1.3,0,0,0,0,.15l15.14,34.87a1.32,1.32,0,0,0,1,.79l4.64.6,7,.91,9.7,1.26s0,.05,0,.06l.11-.05,2.39.31h.25a1.41,1.41,0,0,0,.27,0c9.27,6.48,20.35,6.12,30.06,2.69A51.78,51.78,0,0,0,273.35,70c5.08-3.27,7.8-7.13,8.11-11.45C281.89,52.34,277.28,47.22,275.56,45.52ZM275,57.6a7.31,7.31,0,0,1-1,3l-2.36-.47a6.93,6.93,0,0,0,.67-2.13l2.68-.54S275,57.56,275,57.6ZM230,69.67l-.66-.09a1.81,1.81,0,0,1,.51-.24Zm-1.92-.25-.2,0a1.06,1.06,0,0,0,.29-.16Zm-9-23.3a16,16,0,0,1-6.17-.74l0,0,.71-1.49-1.64.08a5.18,5.18,0,0,1-1.09-.08l3.63-1.93-4.51.28A9.94,9.94,0,0,1,207,42c.45-.2.77-.39.79-.4l4.05-2.34-4.62.52a1,1,0,0,1-.34-.15,12.38,12.38,0,0,0,1.81-.48,7.27,7.27,0,0,0,1.57-.74l3.23-2.2-3.88.41a5.69,5.69,0,0,1-1.43-.07l.76-.64-1.7-.53h0l4.3-.7-1.22-.29,1.73-.15-1.11-1.42a3.28,3.28,0,0,0-1.13-.82s-.07-.06-.11-.08h-.06c-.17-.08-.33-.17-.51-.24a12.35,12.35,0,0,1,1.92-.1l5.33.14-4.93-2-.55-.2.25,0,6.12-1-4.53-.69a16,16,0,0,1,2.68-.1l3.64.18-3-2a9.39,9.39,0,0,0,2.95.6l4.68,0L221,25.36a12.14,12.14,0,0,0,1.63-.39l.82.36a17.83,17.83,0,0,0,1.87.79l1.85.62-.4-1.22h0l-.15-.45.43.3h0l.37.25c.55.4,1.15.8,1.81,1.22l.34.23h0c.43.27.83.52,1.3.8l1.75,1-.1-.68a11.72,11.72,0,0,0,1.32,1.92l0,0,0,0a13,13,0,0,1,3,4.36c-1.72-2.71-5-6.11-10.48-5.64a12.47,12.47,0,0,0-11.1,8.59s-3.19,6.57,8.1,7.61a10.79,10.79,0,0,0,1.22,0,24.86,24.86,0,0,1-3,.76A21.31,21.31,0,0,1,219.12,46.12Zm6.16-22.27c.11.42.23.87.39,1.35a16.56,16.56,0,0,1-1.7-.74C224.43,24.26,224.88,24.07,225.28,23.85Zm-10.85.59-.37-.06.19-.1A1.3,1.3,0,0,0,214.43,24.43Zm1,2.24c-3.38-.17-5.85.79-7.27.67l4.43-2.23A29.25,29.25,0,0,1,215.43,26.67Zm15.94-.48a7,7,0,0,0,0,.83l-.77-.47ZM221,36.67a6.4,6.4,0,0,0,12.59-.6,7.1,7.1,0,1,1-14.06-1.91,7.23,7.23,0,0,1,1.72-1.09A6.36,6.36,0,0,0,221,36.67Zm9.69,2a3.75,3.75,0,0,0,2.93-3.47v0a5.81,5.81,0,1,1-11-2.66,10.93,10.93,0,0,1,4.52-.11,3.76,3.76,0,0,0,3.6,6.2Zm-5.08,7.06.31-.11c8.71-3.09,12.86-8,12.86-8a14.43,14.43,0,0,0-4.21-8.22,18.76,18.76,0,0,1-2.23-3.76l1.62-.82a5.64,5.64,0,0,0,.22,1.31c.94,2.66,3.56,4.16,5.85,3.35s3.38-3.62,2.44-6.29a5.63,5.63,0,0,0-1.29-2l1.58-.8a18.76,18.76,0,0,1,2.09,4.19,13.6,13.6,0,0,0,3.76,7.08,6.11,6.11,0,0,0-1.25.49,5.76,5.76,0,0,0-.63.39l-.3.23-.14.12-.06.06a2.82,2.82,0,0,0-1.07.16,6.86,6.86,0,0,0-1.1.53l.21-.14-.53.33h0l.22-.13a5.28,5.28,0,0,0-1.76,1.75h0l-.1,0-.19.09-.37.19a6.76,6.76,0,0,0-.7.44,7.33,7.33,0,0,0-1.24,1.12,4.49,4.49,0,0,0-.9,1.45,3.78,3.78,0,0,0-.21,1.7,8.14,8.14,0,0,0,.09,1.6,1.74,1.74,0,0,0,.94,1.43,1.79,1.79,0,0,0,.93.1l.09,0a10.79,10.79,0,0,0-1.67,1.83,11.65,11.65,0,0,1-4.9,4,5,5,0,0,0,4.16-.56s-2.72,3-4.07,3c0,0,1,.47,2.81-.74,0,0-2.37,2.42-4.38,2.61,0,0,1.86,1.06,3.22.62a20,20,0,0,0-3.37,2.24,5.87,5.87,0,0,1-1.8,1.27,2,2,0,0,0,1.93.16s-2.55,2.1-3.88,2.32l-6.37-13.67A26.85,26.85,0,0,0,225.65,45.76Zm13-24.32a2.78,2.78,0,0,1,.84.47,3.18,3.18,0,0,1,1,1.4A2.56,2.56,0,1,1,235.78,25a3.31,3.31,0,0,1-.17-1,3.12,3.12,0,0,1,0-.45,3,3,0,0,1,.1-.54,2.79,2.79,0,0,1,.15-.38,2.54,2.54,0,0,1,.31-.49,2.34,2.34,0,0,1,.2-.25,2,2,0,0,1,2-.54A2.49,2.49,0,0,1,238.68,21.44Zm4.82-1.36,1.19-.6c0,.47,0,.95-.06,1.4A7.76,7.76,0,0,0,243.5,20.08Zm10.7,1.31a3.52,3.52,0,0,0-3.08-1,10.25,10.25,0,0,1,2.42-3.48,5.45,5.45,0,1,1-3.62,10,3.52,3.52,0,0,0,4.28-5.51Zm9.61,3.32,4.84,11.14a20.07,20.07,0,0,1-2.51,1.35,3.23,3.23,0,0,0,1.08-2,5.66,5.66,0,0,1-1.9,1,19.46,19.46,0,0,0-3.47,2,8.35,8.35,0,0,0,1.57-3.59c-1.34,1.89-4.31,2.77-4.31,2.77A4.33,4.33,0,0,0,261.3,35c-.78,1.39-4.35,2.24-4.35,2.24,1.95-1,2.89-3.81,2.89-3.81a10.54,10.54,0,0,1-5.5,2.45,8.08,8.08,0,0,0-1.9.46,2.48,2.48,0,0,0,.64-1.28,2.25,2.25,0,0,0-.37-1.53,5.08,5.08,0,0,0-1-1.14l0,0a2.23,2.23,0,0,0-.84-.63c.6-.15,1.29-.35,2.15-.65a33.81,33.81,0,0,0,9.24-5.1C262.86,25.61,263.32,25.16,263.82,24.71Zm5.79,13.34,0,.07h-.09Zm2.9,7,.12,0,0,0-.1.06ZM266.6,63c-8.81,5.65-16.52,4.86-21.22,2l7.38-4.49c2.55,1.34,8.38,4,11.21,1.79,2.62-2-1.08-5-3.44-6.53l5.87-3.57c.45.43.75.75.75.75a4.16,4.16,0,0,0-.4-1l1.09-.66c.94,1,3,3.39,2.81,6.12C270.5,59.47,269.14,61.32,266.6,63ZM241.77,67l1.82-1.11.47.31-2.29,1.85C241.76,67.79,241.76,67.45,241.77,67ZM240,41.3c.93-.71.55-1.85.24-1.82.35.69-1.08,1.17-1,.18a3.72,3.72,0,0,1,.19-.52,12.83,12.83,0,0,1,.85-1.25c.32-.4.66-.8,1-1.18l.55-.58.09-.1-.07.13a3.44,3.44,0,0,0-.22.8,9.38,9.38,0,0,0-.14,1.61c0,.94,0,1.85-.05,2.7l-.06.43a1.7,1.7,0,0,1-.47,1,1.6,1.6,0,0,1-1.16.36,1.2,1.2,0,0,1-.82-1,3.38,3.38,0,0,1,0-.76C239.09,41.54,239.42,41.72,240,41.3Zm10.29-9c.14,0,.26.1.39.12.9.48-.43,1.79-.66,1-.21.29.27,1.36,1.29.87A1,1,0,0,0,252,33.2a2.42,2.42,0,0,1,.49.5,1.54,1.54,0,0,1,.11,1.26,2.47,2.47,0,0,1-.77,1,.85.85,0,0,1-.75.19c-.4-.25-.84-.54-1.29-.87l-.9-.87a8.18,8.18,0,0,0-1.15-1,2.73,2.73,0,0,0-.7-.36,1.66,1.66,0,0,0-.29,0l.23-.07.69-.2c.45-.13.9-.24,1.35-.32A7.55,7.55,0,0,1,250.26,32.31Zm5.27,15.85c.53.65,2.63,1.19,3.57,1.58a2.84,2.84,0,0,1,1.36,1.39c.22-1.47-2.26-2.82-2.26-2.82a24.89,24.89,0,0,1,4.52,2.78L243.32,63a40.31,40.31,0,0,1,1-6s-.66,3.3.39,4a4,4,0,0,1,0-2.21c.33-1.18,1.28-3.61,1.19-4.53,0,0,0,2.86,1.94,1.94,0,0-1.41-.42-.67-2.26.62-1.51,2.16-3.78,2.37-5.83,1.42,1,3.73.93,5,1.24,1.61.38,1,2,1,2C257.3,50,255.54,48.16,255.54,48.16Zm-8.1-5.37a3.29,3.29,0,0,0-.45-.33l.46,0C247.44,42.6,247.45,42.7,247.44,42.8Zm-4.91,18.05a8.38,8.38,0,0,0,.13,2.52l-.71.43A13.39,13.39,0,0,1,242.53,60.85Zm20.81-10.13a6.1,6.1,0,0,0-1.57-1.79,8.23,8.23,0,0,1,2.34,1.32ZM247.76,34.79a11.53,11.53,0,0,0,1.16,1c.09.1.17.21.26.31a3.42,3.42,0,0,0,1.37.91s.09,0,.13,0l.09.06a15.54,15.54,0,0,0-3.39,4.5,13.38,13.38,0,0,0-5.18.87l-.05,0c0-.12,0-.29.06-.42s.07-.17.09-.25a5.72,5.72,0,0,0,.07-.94,19.54,19.54,0,0,0,.17-2.49,3.71,3.71,0,0,1,2-3.85,5.87,5.87,0,0,1,1-.47C246.24,33.75,246.78,33.8,247.76,34.79ZM241,64.31v.1l0,0S241,64.35,241,64.31Zm28.3-14.05a6.48,6.48,0,0,0,1.48-.13l-1,.65C269.56,50.6,269.4,50.41,269.26,50.26Zm-4.18-.61-.17-.19c.08.05.18.08.26.13Zm-6.73-23.43a6.66,6.66,0,0,1-7.79,1.07,6,6,0,1,0,4-11.21,6.78,6.78,0,0,1,1.74-.78,6.67,6.67,0,0,1,2,10.92ZM229.11,61.41l-.36-.78a2.39,2.39,0,0,0,2.4-.08S230.14,61,229.11,61.41Zm.42.91A3.52,3.52,0,0,0,231,62a2,2,0,0,1-1.16,1ZM235.27,71a7.43,7.43,0,0,0,.28,1.39c-.43-.25-.86-.5-1.28-.78Zm6-3.7a6.63,6.63,0,0,0,.26.92l0,0c-.31-.17-.65-.32-.95-.51Zm4-.35a16.75,16.75,0,0,0,2.3,1L245.69,70a20.81,20.81,0,0,1-2.86-1ZM249,68.36a18.65,18.65,0,0,0,2.75.46l-1,1.93a23.14,23.14,0,0,1-3.52-.44Zm4.22.57a21.08,21.08,0,0,0,3-.19l.15,1.71a26.23,26.23,0,0,1-4.19.36Zm4.52,1.21-.14-1.62c.71-.13,1.44-.32,2.18-.53l.65,1.47C259.54,69.76,258.65,69.95,257.77,70.14Zm4-1.15-.61-1.38.14,0a28.52,28.52,0,0,0,2.66-1.13l.75,1.36C263.67,68.27,262.7,68.64,261.72,69Zm4.14-1.81-.75-1.36c.81-.43,1.61-.85,2.44-1.38.21-.14.37-.29.56-.43l1.51,1-.16.12A41.15,41.15,0,0,1,265.87,67.18Zm4.89-3-1.51-1a10.85,10.85,0,0,0,1.69-1.77l2.3.45A13.71,13.71,0,0,1,270.76,64.2Zm1.6-7.57a8.07,8.07,0,0,0-.43-2.18l2.12-1.19a9.58,9.58,0,0,1,.89,2.85Zm-1-3.42a12,12,0,0,0-.83-1.36l1.87-1.2a15.42,15.42,0,0,1,1,1.42Zm-2.84-15.84a3.16,3.16,0,0,0,.54-.53l0,.06ZM249.07,9.06a6.52,6.52,0,0,1-.09,1.11l-.38,2.27h0l-.34,2.06,2.4-3.68a6.49,6.49,0,0,0,.58-1.14h0a12.57,12.57,0,0,0,.49-1.48l0,3.39,1.74-2.94a15,15,0,0,1,1.46-2l-1.38,3h0l-.43.93h0L257,6.24l.16-.17c-.05.18-.1.36-.13.54l-.56,2.87h0l-.4,2,1.29-2.07h0l1.35-2.17a11.53,11.53,0,0,1,1.07-1.44,3.81,3.81,0,0,0,0,2l.54,1.61,1-1.28-.41,1.1,2.77-3v0l-.46,1.6.89-.25a5.34,5.34,0,0,1-.69,1.16l-2.33,2.82,3.39-1.39a9,9,0,0,0,2.72-2,.89.89,0,0,1,0,.32l-2.79,3.35,3.91-1.93c.15-.08.42-.21.72-.4A9.34,9.34,0,0,1,267.55,12L265,15.41l3.39-1.85a4.87,4.87,0,0,1-.5.89L267,15.7l1.52.21h0a15.61,15.61,0,0,1-3.28,6,20.94,20.94,0,0,1-1.75,1.85c-.39.36-.82.73-1.27,1.09a10.07,10.07,0,0,0,.66-.93c5-9.37-1.77-10.27-1.77-10.27a11.7,11.7,0,0,0-12.46,4.25c-3.2,4-2.25,8.34-1,11.09a12.16,12.16,0,0,1-1.86-4.55v0a11,11,0,0,0-.82-2l.48.43.11-1.89c0-.69.05-1.31.07-1.92h0c0-.06,0-.11,0-.17,0-1,0-1.88-.06-2.68l1,1.29.47-1.77c0-.13.06-.27.09-.4h0c.11-.49.2-1,.27-1.48a11.24,11.24,0,0,1,.59-2.61,15.68,15.68,0,0,1,.78-1.61Zm-12.26,3.84,9.93-.39c-.19,1-.32,2-.56,2.93a23.51,23.51,0,0,0-2.06-2.25,14.19,14.19,0,0,1,.55,3.34l-6.31,3.18a3.84,3.84,0,0,0-1.69.19,3.89,3.89,0,0,0-1.91,1.63l-6.68,3.37a21,21,0,0,1-1.95-1.56,16,16,0,0,0,2.95-2.44,1.32,1.32,0,0,0-.52-2.1,3.25,3.25,0,0,1-1.36-1.05Zm-20.58,1.53c1.28-3.14,4.11-5.73,8.44-7.73-.79,2.64-1.55,6.58-.83,9.78l-.1,0a8.11,8.11,0,0,0,.45,1.41,6.73,6.73,0,0,0,.57,1h0a5.87,5.87,0,0,0,1.11,1.3,10.31,10.31,0,0,1-9.68,2.14c-.09-.25-.21-.63-.32-1,0-.13-.06-.26-.1-.4A10.88,10.88,0,0,1,216.23,14.42Zm-8.27,13a8.32,8.32,0,0,0,3,1,34.18,34.18,0,0,0-5.17,1.17l-.3.11a18.83,18.83,0,0,1,5.56.84,13.69,13.69,0,0,0-4.93.8c-.38.13-.76.29-1.15.46l.75.08L199,32Zm11.59,40.87-8.48-1.1-1.7-.22-14-32.34,5.73,0,3.82,0a6.4,6.4,0,0,0,2,1.72,2.86,2.86,0,0,1-.79.45,1.23,1.23,0,0,1-.75.05,11,11,0,0,0,4.31.78,6.4,6.4,0,0,1-1.35.63,12.86,12.86,0,0,1-3.76.68s1.7,2,2.69,1.85a8.86,8.86,0,0,1-1.32.61,2.64,2.64,0,0,1-1.35.19s.68,1.93,5.52,1.63a10.73,10.73,0,0,1-1.26.56,3.15,3.15,0,0,1-1,.22,12.15,12.15,0,0,0,4.24,1,1.19,1.19,0,0,1-.66.54,1.48,1.48,0,0,1-.5.08s3,2,8.58,1.53l3,6.5,4.38,9.4a4.4,4.4,0,0,0-1.62,0,1.12,1.12,0,0,0,1.12.92s-1.58.63-2.32,0c0,0,1.15,2.61,3.19,2.4,0,0-.87,1-1.51,1.14a2.85,2.85,0,0,0,2.28-.15,3.15,3.15,0,0,1-1.1,2Zm52.83.18C262.28,75,247.84,79.15,236,72.66c.07-.62.18-1.49.35-2.32l.55-.33a5.35,5.35,0,0,1-.3,1.82,12.34,12.34,0,0,0,2.39-3c5.27,3.57,13.45,5.42,23.08,2a40.57,40.57,0,0,0,8.34-4.15c4-2.55,6.11-5.56,6.35-8.94.26-3.81-2-7.07-3.55-8.9a5.86,5.86,0,0,0-.47-.75L274.52,47c1.68,1.72,5.54,6.26,5.17,11.41C279.43,62.14,277,65.53,272.39,68.49Z"/>
      <polygon class="cls-1" points="238.52 40.55 238.52 40.54 238.52 40.53 238.52 40.55"/>
    </g>
    <g>
      <path class="cls-1" d="M302.14,68.3a44.89,44.89,0,0,0-25-21c2,2.43,4.64,6.52,4.3,11.25a11.29,11.29,0,0,1-.46,2.11,35.41,35.41,0,0,1,12.16,12.8c3.12,5.58,4.71,12.78,4.71,21.4v38.59c0,8.55-1.58,15.66-4.71,21.16-7.14,12.57-19.41,19-36.44,19-13,0-23.41-3.86-31.09-11.46-6.75-6.61-10.17-16.25-10.17-28.65V94.83c0-9.48,2-17.37,5.93-23.61L219.91,71l-7-.91-2.56-.33a47.94,47.94,0,0,0-3.34,8.1c-1.33,4.46-2,10.78-2,18.79v37.09c0,15.65,5.21,28.25,15.49,37.42,9.4,8.47,21.5,12.76,36,12.76,15.63,0,28.48-4.89,38.2-14.53,9-9,13.6-21.69,13.6-37.62V96C308.29,84.84,306.22,75.53,302.14,68.3Z"/>
      <path class="cls-1" d="M245.23,149.82l-.58-.23-.41-.08a1.22,1.22,0,0,0-.94.43,5,5,0,0,0-3.28,4.83c0,1.91,1.11,4.36,6.36,5.14l17.35,2.75a6.65,6.65,0,0,0,1.53.15h.81c2.27,0,3.83-.73,4.65-2.17.66-1.13,1-3.18,1-6.45V91.55h16.67c5.18,0,6-3.15,6-5s-.78-5-6-5H271.68V70.92a51,51,0,0,1-9,4.33c-.45.16-.92.28-1.38.43v5.8H225.42c-5.18,0-6,3.15-6,5s.78,5,6,5h35.84v22.18l-36.19,30c-1.88,1.52-2.84,3.18-2.84,4.91,0,3.17,1.7,4.92,4.81,4.92a7.25,7.25,0,0,0,4.52-2l29.7-24.81V151.9Z"/>
    </g>
  </g>
</svg>
