<?xml version="1.0" encoding="utf-8"?>
<!-- Generator: Adobe Illustrator 16.0.3, SVG Export Plug-In . SVG Version: 6.00 Build 0)  -->
<!DOCTYPE svg PUBLIC "-//W3C//DTD SVG 1.1//EN" "http://www.w3.org/Graphics/SVG/1.1/DTD/svg11.dtd" [
	<!ENTITY ns_flows "http://ns.adobe.com/Flows/1.0/">
	<!ENTITY ns_extend "http://ns.adobe.com/Extensibility/1.0/">
	<!ENTITY ns_ai "http://ns.adobe.com/AdobeIllustrator/10.0/">
	<!ENTITY ns_graphs "http://ns.adobe.com/Graphs/1.0/">
]>
<svg version="1.1" id="Layer_1" xmlns:x="&ns_extend;" xmlns:i="&ns_ai;" xmlns:graph="&ns_graphs;"
	 xmlns="http://www.w3.org/2000/svg" xmlns:xlink="http://www.w3.org/1999/xlink" xmlns:a="http://ns.adobe.com/AdobeSVGViewerExtensions/3.0/"
	 x="0px" y="0px" width="64px" height="296px" viewBox="0 0 64 296" enable-background="new 0 0 64 296" xml:space="preserve">
<g>
	<g>
		<path fill="#F6EB16" d="M34.898,16.484h22.785c1.107,0,1.855,0.234,2.238,0.704c0.385,0.47,0.576,1.088,0.576,1.855
			c0,0.854-0.191,1.515-0.576,1.984c-0.383,0.47-1.131,0.704-2.238,0.704H34.898c2.219,7.979,5.313,14.858,9.279,20.64
			c3.969,5.782,8.49,10.613,13.568,14.496c1.494,1.108,2.4,2.037,2.721,2.784c0.32,0.746,0.201,1.504-0.352,2.271
			c-0.598,0.811-1.313,1.185-2.145,1.12c-0.832-0.063-2.016-0.694-3.553-1.888c-4.607-3.968-8.777-8.534-12.512-13.696
			s-6.773-10.752-9.119-16.768c-1.068,3.242-2.486,6.411-4.256,9.504c-1.771,3.094-3.766,6.016-5.984,8.768
			s-4.607,5.258-7.168,7.521c-2.561,2.261-5.164,4.181-7.809,5.76c-1.408,0.853-2.518,1.226-3.328,1.12
			c-0.811-0.107-1.43-0.587-1.855-1.44C1.959,61.028,1.98,60.26,2.451,59.62c0.469-0.64,1.322-1.323,2.559-2.048
			c3.541-2.134,6.754-4.599,9.633-7.393c2.881-2.794,5.377-5.76,7.488-8.896s3.809-6.378,5.088-9.729
			c1.279-3.349,2.09-6.624,2.432-9.823H6.547c-1.066,0-1.824-0.234-2.271-0.704c-0.449-0.47-0.672-1.13-0.672-1.984
			c0-0.768,0.223-1.386,0.672-1.855c0.447-0.47,1.205-0.704,2.271-0.704h23.295V4.9c0-1.066,0.215-1.813,0.641-2.24
			c0.426-0.426,1.066-0.64,1.92-0.64c0.896,0,1.537,0.214,1.92,0.64c0.385,0.427,0.576,1.174,0.576,2.24V16.484z"/>
		<path fill="#F6EB16" d="M34.258,93.668V104.1h23.488c0.982,0,1.664,0.225,2.049,0.672c0.383,0.448,0.576,1.078,0.576,1.889
			c0,0.768-0.193,1.376-0.576,1.823c-0.385,0.448-1.066,0.673-2.049,0.673H5.586c-0.98,0-1.664-0.225-2.047-0.673
			c-0.385-0.447-0.576-1.056-0.576-1.823c0-0.811,0.191-1.44,0.576-1.889c0.383-0.447,1.066-0.672,2.047-0.672h23.488V93.668H3.348
			c-0.982,0-1.676-0.213-2.08-0.64c-0.406-0.427-0.609-1.002-0.609-1.729c0-0.853,0.193-1.504,0.576-1.952
			c0.385-0.448,1.088-0.672,2.113-0.672h25.727v-7.04c0-1.023,0.225-1.738,0.672-2.144c0.449-0.405,1.078-0.608,1.889-0.608
			c0.854,0,1.504,0.203,1.951,0.608c0.449,0.405,0.672,1.12,0.672,2.144v7.04h25.729c1.023,0,1.729,0.224,2.111,0.672
			c0.385,0.448,0.576,1.1,0.576,1.952c0,0.727-0.203,1.302-0.607,1.729c-0.406,0.427-1.1,0.64-2.08,0.64H34.258z M55.123,132.899
			c0,2.262-0.502,3.809-1.504,4.641c-1.004,0.832-2.592,1.248-4.768,1.248h-34.24c-2.176,0-3.756-0.416-4.736-1.248
			c-0.982-0.832-1.473-2.379-1.473-4.641v-12.352c0-1.152,0.086-2.101,0.256-2.848c0.17-0.746,0.48-1.354,0.928-1.824
			c0.449-0.469,1.078-0.8,1.889-0.992s1.855-0.288,3.137-0.288h34.24c1.236,0,2.26,0.086,3.07,0.256
			c0.811,0.171,1.451,0.48,1.92,0.929c0.471,0.447,0.801,1.056,0.992,1.823c0.193,0.769,0.289,1.729,0.289,2.88V132.899z
			 M50.002,120.355c0-0.512-0.363-0.768-1.088-0.768H14.547c-0.684,0-1.023,0.256-1.023,0.768v12.672
			c0,0.513,0.34,0.769,1.023,0.769h34.367c0.725,0,1.088-0.256,1.088-0.769V120.355z"/>
		<path fill="#F6EB16" d="M34.898,170.084h22.785c1.107,0,1.855,0.234,2.238,0.704c0.385,0.47,0.576,1.088,0.576,1.855
			c0,0.854-0.191,1.515-0.576,1.984c-0.383,0.47-1.131,0.704-2.238,0.704H34.898c2.219,7.979,5.313,14.858,9.279,20.64
			c3.969,5.782,8.49,10.613,13.568,14.496c1.494,1.108,2.4,2.037,2.721,2.784c0.32,0.746,0.201,1.504-0.352,2.271
			c-0.598,0.811-1.313,1.185-2.145,1.12c-0.832-0.063-2.016-0.694-3.553-1.888c-4.607-3.968-8.777-8.534-12.512-13.696
			s-6.773-10.752-9.119-16.768c-1.068,3.242-2.486,6.411-4.256,9.504c-1.771,3.094-3.766,6.016-5.984,8.768
			s-4.607,5.258-7.168,7.521c-2.561,2.261-5.164,4.181-7.809,5.76c-1.408,0.853-2.518,1.226-3.328,1.12
			c-0.811-0.107-1.43-0.587-1.855-1.44c-0.428-0.896-0.406-1.664,0.064-2.304c0.469-0.64,1.322-1.323,2.559-2.048
			c3.541-2.134,6.754-4.599,9.633-7.393c2.881-2.794,5.377-5.76,7.488-8.896s3.809-6.378,5.088-9.729
			c1.279-3.349,2.09-6.624,2.432-9.823H6.547c-1.066,0-1.824-0.234-2.271-0.704c-0.449-0.47-0.672-1.13-0.672-1.984
			c0-0.768,0.223-1.386,0.672-1.855c0.447-0.47,1.205-0.704,2.271-0.704h23.295V158.5c0-1.066,0.215-1.813,0.641-2.24
			c0.426-0.426,1.066-0.64,1.92-0.64c0.896,0,1.537,0.214,1.92,0.64c0.385,0.427,0.576,1.174,0.576,2.24V170.084z"/>
		<path fill="#F6EB16" d="M4.242,256.42c-0.811,0-1.408-0.234-1.791-0.704c-0.385-0.47-0.576-1.045-0.576-1.729
			c0-0.725,0.182-1.322,0.543-1.792c0.363-0.469,0.971-0.704,1.824-0.704h12.865v-9.344c-1.963,0.214-3.83,0.374-5.602,0.48
			c-1.77,0.106-3.445,0.182-5.023,0.224c-1.109,0-1.898-0.192-2.367-0.576c-0.471-0.384-0.662-1.065-0.576-2.048
			c0.127-1.45,1.193-2.176,3.199-2.176c1.621-0.042,3.242-0.117,4.865-0.225c1.621-0.105,3.369-0.266,5.248-0.479
			c1.877-0.213,3.967-0.49,6.271-0.832c2.303-0.341,4.928-0.769,7.871-1.28c1.451-0.256,2.41-0.256,2.881,0
			c0.469,0.256,0.832,0.812,1.088,1.664c0.213,0.727,0.084,1.376-0.385,1.952s-1.322,0.971-2.559,1.184
			c-3.457,0.599-6.785,1.11-9.984,1.536v9.92h11.648c0.895,0,1.535,0.235,1.92,0.704c0.383,0.47,0.574,1.067,0.574,1.792
			c0,0.684-0.201,1.259-0.607,1.729s-1.035,0.704-1.887,0.704h-9.537c4.01,5.205,7.787,10.262,11.328,15.168
			c0.725,1.066,1.076,1.931,1.057,2.592c-0.023,0.662-0.375,1.227-1.057,1.695c-0.727,0.471-1.408,0.599-2.049,0.385
			c-0.639-0.213-1.279-0.811-1.92-1.792c-1.365-2.177-2.879-4.448-4.543-6.816s-3.307-4.64-4.928-6.815v30.527
			c0,0.938-0.225,1.578-0.672,1.92c-0.449,0.341-1.057,0.512-1.824,0.512c-0.811,0-1.42-0.171-1.824-0.512
			c-0.406-0.342-0.607-0.981-0.607-1.92v-27.328c-1.281,2.519-2.795,5.11-4.545,7.776c-1.75,2.667-3.969,5.6-6.656,8.8
			c-0.383,0.47-0.768,0.812-1.152,1.024c-0.383,0.214-0.734,0.319-1.055,0.319s-0.619-0.073-0.896-0.224
			c-0.277-0.149-0.545-0.33-0.801-0.544c-1.193-1.066-1.088-2.453,0.32-4.16c1.281-1.322,2.539-2.805,3.777-4.448
			c1.236-1.642,2.441-3.359,3.615-5.151s2.281-3.626,3.328-5.504c1.045-1.877,1.994-3.712,2.848-5.504H4.242z M58.514,285.796
			c0.129,1.151-0.043,2.196-0.512,3.136c-0.469,0.938-1.131,1.728-1.982,2.368c-0.855,0.64-1.836,1.141-2.945,1.504
			c-1.109,0.361-2.262,0.544-3.455,0.544c-1.324,0-2.871-0.128-4.641-0.384c-1.771-0.257-3.723-0.727-5.855-1.408
			c-1.238-0.428-2.016-0.929-2.336-1.504c-0.32-0.576-0.332-1.291-0.033-2.145c0.299-0.726,0.77-1.174,1.408-1.344
			c0.641-0.171,1.664-0.022,3.072,0.448c1.707,0.554,3.201,0.948,4.48,1.184c1.279,0.234,2.41,0.353,3.393,0.353
			c1.621,0,2.752-0.3,3.391-0.896c0.641-0.598,0.961-1.323,0.961-2.176v-50.624c0-0.938,0.213-1.568,0.641-1.888
			c0.426-0.32,1.064-0.48,1.92-0.48c0.725,0,1.32,0.182,1.791,0.544c0.469,0.363,0.703,0.971,0.703,1.824V285.796z M44.883,277.539
			c0,0.896-0.203,1.536-0.607,1.92c-0.406,0.385-1.035,0.576-1.889,0.576s-1.473-0.191-1.855-0.576
			c-0.385-0.384-0.576-1.023-0.576-1.92v-38.208c0-0.896,0.191-1.524,0.576-1.888c0.383-0.362,1.002-0.544,1.855-0.544
			s1.482,0.182,1.889,0.544c0.404,0.363,0.607,0.992,0.607,1.888V277.539z"/>
	</g>
</g>
</svg>
