<svg id="Layer_1" data-name="Layer 1" xmlns="http://www.w3.org/2000/svg" viewBox="0 0 64 296">
  <defs>
    <style>
      .cls-1 {
        fill: #fff;
      }
    </style>
  </defs>
  <title>sc05-text-white-08b</title>
  <g>
    <path class="cls-1" d="M29.31,19.23a5.57,5.57,0,0,1-1.18,3.94q-1.19,1.25-4.06,1.25H9.54V61.34q0,2.82-2.37,2.82T4.74,61.34v-52q0-2.75,1.12-3.87t4-1.12H24.06q2.88,0,4.06,1.12t1.18,3.87Zm-4.8-9.41q0-1.15-1-1.15H10.62q-1,0-1,1.28v2.3H24.51Zm0,6.72H9.66v3.52H23.49a1.13,1.13,0,0,0,.77-.22,1.47,1.47,0,0,0,.26-1.06ZM59.33,56.15q0,4.93-3.1,6.59t-9.82-.51a2.83,2.83,0,0,1-1.82-1.34,2.59,2.59,0,0,1,.1-2,2.13,2.13,0,0,1,.45-.77h-32a4,4,0,0,1-1.82-.35q-.67-.35-.67-1.63a2,2,0,0,1,.67-1.73,2.93,2.93,0,0,1,1.82-.51h1.79v-4q0-2.69,1.28-3.65a6.11,6.11,0,0,1,3.71-1H42.62a6.23,6.23,0,0,1,3.62,1q1.44,1,1.44,3.62v4h1.86a3.92,3.92,0,0,1,1.92.48,1.79,1.79,0,0,1,.7,1.5q.13,2.24-2.62,2.24h-.7a25.4,25.4,0,0,0,3,.67,3.38,3.38,0,0,0,1.73-.1,1.36,1.36,0,0,0,.8-1,7.61,7.61,0,0,0,.19-1.92V24.41H38.4q-2.88,0-4-1.25a5.9,5.9,0,0,1-1.09-3.94V9.31q0-2.75,1.09-3.87t4-1.12H54.14q2.88,0,4,1.12t1.15,3.87ZM29.44,32.79V30.62h-12a3.56,3.56,0,0,1-2-.38,1.66,1.66,0,0,1-.51-1.41,1.48,1.48,0,0,1,.58-1.38,3.88,3.88,0,0,1,1.92-.35h12V25.82q0-2.5,2.3-2.5T34,25.82V27.1H45.76a3.27,3.27,0,0,1,1.82.38,1.53,1.53,0,0,1,.54,1.34,1.61,1.61,0,0,1-.54,1.41,3.27,3.27,0,0,1-1.82.38H34v2.18H48.45a3.27,3.27,0,0,1,1.82.38,1.53,1.53,0,0,1,.54,1.34q0,1.28-.51,1.63a3.49,3.49,0,0,1-1.86.35H43.07a.55.55,0,0,0,.29.16.57.57,0,0,1,.29.16q1.47,1,2.72,2l3.1,2.27q2,1.41.64,3.07a1.73,1.73,0,0,1-1.41.74,3.91,3.91,0,0,1-2-1.12,2.65,2.65,0,0,1-.51-.38A4.23,4.23,0,0,0,45.7,43l-24.64.9a5.9,5.9,0,0,1-3.1-.26,2.57,2.57,0,0,1-1.5-1.34,2.06,2.06,0,0,1,.26-1.82,4.51,4.51,0,0,1,2.11-1.7q1.34-.64,2.5-1.15t2.37-1.09H15.1a3.66,3.66,0,0,1-1.92-.35q-.51-.35-.51-1.5,0-1.86,2.43-1.86ZM19.65,53.91h4.93V49.37H20.22q-.58,0-.58.77ZM24.7,39.71q-1.09.45.13.45l15.81-.58a1.72,1.72,0,0,1-.51-2.69,1,1,0,0,0,.16-.19.9.9,0,0,1,.16-.19h-8.7q-1.86,1-3.46,1.7T24.7,39.71Zm4.22,14.21h4.86V49.37H28.93Zm9.15-4.54v4.54H43V50.14q0-.77-.7-.77ZM54.53,9.95c0-.85-.34-1.28-1-1.28H39.1a.92.92,0,0,0-.77.26,1.55,1.55,0,0,0-.19.9v2.37H54.53Zm0,6.53H38.14v2.3a1.84,1.84,0,0,0,.19,1.06,1,1,0,0,0,.77.22H54.53Z"/>
    <path class="cls-1" d="M35.84,98.71q-1.34,1.09-2.94,2.18a40.47,40.47,0,0,1,3.94,4.74,22.49,22.49,0,0,1,2.4,4.42,56.24,56.24,0,0,0,5.92-3.46,59.51,59.51,0,0,0,5.15-3.9,5.83,5.83,0,0,1,2.4-1.38,2.51,2.51,0,0,1,1.82.42,2.23,2.23,0,0,1,1,2,3.82,3.82,0,0,1-1.66,2.37q-1.86,1.47-4,2.94t-4.74,3a62.64,62.64,0,0,0,3.2,5.89,43.84,43.84,0,0,0,3.55,5,42,42,0,0,0,4,4.22,51.45,51.45,0,0,0,4.64,3.74,4.51,4.51,0,0,1,1.92,2.3,2.77,2.77,0,0,1-.64,2.3q-1.41,1.86-4.74-.7A61.31,61.31,0,0,1,48.54,126a68.79,68.79,0,0,1-7.33-11.65.55.55,0,0,1-.29.16.56.56,0,0,0-.29.16l.13.51.13.51q.19,1.41.32,3.23a36,36,0,0,1,.06,3.71q-.06,1.89-.26,3.62a15.63,15.63,0,0,1-.58,2.94q-1.67,5.5-4.61,8.1a10.3,10.3,0,0,1-7,2.59A21.24,21.24,0,0,1,20,137.95a3.83,3.83,0,0,1-2-1.5,2.28,2.28,0,0,1,.13-2A2.24,2.24,0,0,1,19.36,133a3.26,3.26,0,0,1,2.4.29,26.85,26.85,0,0,0,3.71,1.34,12.34,12.34,0,0,0,3.2.45A5.54,5.54,0,0,0,33.09,133a14.2,14.2,0,0,0,2.69-5.73,24.31,24.31,0,0,0,.77-6.85q-3.71,2.88-7.17,5.15t-7,4.19q-3.58,1.92-7.46,3.58T6.46,136.6q-3.9,1.28-4.35-1.34a2.12,2.12,0,0,1,.38-2.08,6.23,6.23,0,0,1,2.69-1.31q3.39-1,6.91-2.46a76.27,76.27,0,0,0,7.26-3.46q3.74-2,7.81-4.7T35.71,115q-.32-1-.74-2a18.1,18.1,0,0,0-1-2Q31.23,113,28.13,115t-6.43,3.81q-3.33,1.82-6.75,3.39T8.19,125a6.66,6.66,0,0,1-3,.54q-1-.16-1.5-1.57-.77-2.37,2.75-3.58,3.07-1.09,6.3-2.56t6.46-3.23q3.23-1.76,6.3-3.74t5.89-4.1q-1.15-1.54-2.62-3.2a108.06,108.06,0,0,1-9.7,5.54,98.72,98.72,0,0,1-10.72,4.58,6,6,0,0,1-2.85.54q-1-.16-1.5-1.57a2.37,2.37,0,0,1,.13-2A4.57,4.57,0,0,1,6.78,109a66.3,66.3,0,0,0,10.27-4.22,116.78,116.78,0,0,0,10.66-6.08H13.12a3.83,3.83,0,0,1-2.27-.54,2.12,2.12,0,0,1-.74-1.82,2.3,2.3,0,0,1,.74-1.92,3.67,3.67,0,0,1,2.27-.58H48.83a4.22,4.22,0,0,1,2.27.51,2,2,0,0,1,.8,1.86q0,2.5-3.07,2.5ZM28.42,84.51a4.39,4.39,0,0,0-.35-.86q-.22-.42-.42-.86A4.13,4.13,0,0,1,27,80.22a2.18,2.18,0,0,1,1.31-1.34,3,3,0,0,1,2.08-.22q.8.29,1.5,2a14.82,14.82,0,0,1,.67,1.63l.8,2.27h19.9q6.66,0,6.66,6a12.43,12.43,0,0,1-.45,3.17,18,18,0,0,1-1.15,3.17,6.27,6.27,0,0,1-1.86,2.46,2.83,2.83,0,0,1-3.33-1.92A5.31,5.31,0,0,1,54,94.55,8.11,8.11,0,0,0,55.17,91q0-1.66-2.75-1.66H9.6q-1.28,0-1.28,1.73v5.7a2.76,2.76,0,0,1-.67,2,2.4,2.4,0,0,1-1.82.7,2.46,2.46,0,0,1-2-.64,2.9,2.9,0,0,1-.54-1.92v-5.7A7,7,0,0,1,5,86.3a5.66,5.66,0,0,1,4.35-1.79Z"/>
    <path class="cls-1" d="M60.16,215.51a2.14,2.14,0,0,1-1.47,1.31,6.06,6.06,0,0,1-3-.8q-4.86-2.24-10.34-4.51T34,206.94a65,65,0,0,1-12.64,5.66,79.68,79.68,0,0,1-16,3.3q-2.43.32-3.23-.26a2.5,2.5,0,0,1-.86-2,2.3,2.3,0,0,1,.9-2.14,8.11,8.11,0,0,1,3.58-.93,58.48,58.48,0,0,0,5.92-.86q3.1-.61,6.11-1.38t5.7-1.7a48.66,48.66,0,0,0,4.74-1.89q-4-1.54-7.84-3l-7.52-2.78q-2.88-1.09-3.14-2.78t1.66-3.62q1.66-1.6,3.23-3.3t3-3.49h-14a2.07,2.07,0,0,1-1.63-.61,2.36,2.36,0,0,1-.54-1.63q0-2.3,2.18-2.3H21.44q2-2.69,3.94-5.5T29,170a6.13,6.13,0,0,1,1.76-2,2,2,0,0,1,2.21.1,2.38,2.38,0,0,1,1.41,1.7,4.35,4.35,0,0,1-.83,2.59q-1.34,2.18-2.85,4.38t-3.1,4.38H60.16a2,2,0,0,1,2.24,2.3,2.28,2.28,0,0,1-.58,1.63,2.18,2.18,0,0,1-1.66.61H51.39a80.25,80.25,0,0,1-6.21,10.46,46.24,46.24,0,0,1-6.21,7.2q5.06,2,9.86,3.9T58,211.1a4.34,4.34,0,0,1,2.46,2A3,3,0,0,1,60.16,215.51Zm-.45-39.3a4.48,4.48,0,0,1-1.47,2.14,2.48,2.48,0,0,1-2.3,0,1.93,1.93,0,0,1-1.28-1.18,5.27,5.27,0,0,1,.64-3,18.62,18.62,0,0,0,.9-2.75,9.61,9.61,0,0,0,.26-2,2.49,2.49,0,0,0-.42-1.66,1.72,1.72,0,0,0-1.31-.45H10.82a2.48,2.48,0,0,0-1.73.45,2.48,2.48,0,0,0-.45,1.73v6.72a2.44,2.44,0,0,1-.61,1.7,2.34,2.34,0,0,1-1.82.67,2,2,0,0,1-1.66-.74A2.58,2.58,0,0,1,4,176.15v-7.3a14.89,14.89,0,0,1,.26-3,4.07,4.07,0,0,1,.93-2,3.59,3.59,0,0,1,1.89-1,14,14,0,0,1,3.14-.29H29.82l-.64-1.76q-.32-.86-.64-1.57a3.09,3.09,0,0,1-.26-2.24,2.31,2.31,0,0,1,1.41-1.34,2.37,2.37,0,0,1,2.14,0,3.28,3.28,0,0,1,1.5,1.86q.38,1.09.74,2.3l.8,2.75H55.1q6.15,0,6.14,6.34a17.81,17.81,0,0,1-.45,3.58A22.88,22.88,0,0,1,59.71,176.22ZM17.09,195.35q4,1.47,8.19,2.94t8.32,3.07a37.31,37.31,0,0,0,6.82-6.78,65.06,65.06,0,0,0,5.73-8.83H24.06q-1.73,2.18-3.55,4.19t-3.68,3.94Q15.81,194.91,17.09,195.35Z"/>
    <path class="cls-1" d="M32.06,250.14H16.38a3.43,3.43,0,0,1-1.86-.38q-.58-.38-.58-2t.58-1.86a3.44,3.44,0,0,1,1.86-.38H32.06V243a2.17,2.17,0,0,1,.06-.7H11.07q-.51,0-.51.7v16.51q0,5.57-.22,10t-.7,7.87a52.74,52.74,0,0,1-1.25,6.37,47.8,47.8,0,0,1-1.79,5.44,6,6,0,0,1-2,2.94,2.12,2.12,0,0,1-2.24,0,2.15,2.15,0,0,1-1.25-1.7,6.5,6.5,0,0,1,.93-3.1A26.6,26.6,0,0,0,3.65,283a40.83,40.83,0,0,0,1.18-5.66q.48-3.3.7-7.74t.22-10.4v-16A12.74,12.74,0,0,1,6,240.44a3.9,3.9,0,0,1,.86-1.79,3.2,3.2,0,0,1,1.7-.93,12.34,12.34,0,0,1,2.75-.26H30.08a6.7,6.7,0,0,0-.38-.58,2.47,2.47,0,0,1-.32-.58,3.82,3.82,0,0,1-.61-1.89,2.73,2.73,0,0,1,1.12-1.7,2.36,2.36,0,0,1,2.18-.51,3.49,3.49,0,0,1,1.92,2q.32.64.64,1.44t.64,1.82H58.88a2.42,2.42,0,0,1,2,.61,3,3,0,0,1,.48,1.89,2,2,0,0,1-2.43,2.37h-22a1.79,1.79,0,0,0,0,.35,1.78,1.78,0,0,1,0,.35v2.5H49.86a18.94,18.94,0,0,1,3.26.22,3.21,3.21,0,0,1,1.86.93,3.86,3.86,0,0,1,.83,2.11A28.66,28.66,0,0,1,56,252.5v1.41h4.35q2.69,0,2.69,2.37a2.35,2.35,0,0,1-.7,1.92,3.06,3.06,0,0,1-2,.58H56v1.86a27.11,27.11,0,0,1-.19,3.65,4,4,0,0,1-.83,2.08,3.11,3.11,0,0,1-1.86,1,18.74,18.74,0,0,1-3.26.22H36.93v.32A45.75,45.75,0,0,0,39.39,272a34.25,34.25,0,0,0,2.85,3.68q.25-.13.51-.29l.58-.35q2.88-1.47,5.44-3a42.6,42.6,0,0,0,4.61-3.23,4.7,4.7,0,0,1,2.37-1.34,2.16,2.16,0,0,1,1.73.83q1.86,2-.83,4.16-.9.7-2.14,1.6t-2.69,1.82q-1.44.93-3,1.79t-3,1.5a44.13,44.13,0,0,0,13.06,7.36q2.43.9,3,1.86a2.36,2.36,0,0,1,.1,2.11,1.93,1.93,0,0,1-1.66,1.38A8.31,8.31,0,0,1,57,291.1a55.08,55.08,0,0,1-11.68-6.3,36.92,36.92,0,0,1-8.35-8.35v9.66q0,4-2.18,5.76a9.1,9.1,0,0,1-5.82,1.73,21.35,21.35,0,0,1-2.75-.19,20.06,20.06,0,0,1-3-.64,5.16,5.16,0,0,1-2.82-1.57,2.12,2.12,0,0,1-.13-2.14,2,2,0,0,1,1.22-1.12,4.23,4.23,0,0,1,2.62.16,19,19,0,0,0,3.26.7,10.87,10.87,0,0,0,3-.19,1.81,1.81,0,0,0,1.31-.74,3.85,3.85,0,0,0,.42-2.08V267.54H16.26a4,4,0,0,1-2-.38q-.67-.38-.67-1.92t.67-1.89a3.74,3.74,0,0,1,2-.42H32.06v-4.1H14a2.64,2.64,0,0,1-1.79-.51,2.31,2.31,0,0,1-.58-1.79Q11.65,254,14,254h18Zm-5.82,27.14a4.29,4.29,0,0,1,2.24-1.09,2.61,2.61,0,0,1,2.37,2.91q-.19,1-2.24,2.46T25,284.06q-1.63,1.09-3.2,2t-3.23,1.63q-1.66.77-3.78,1.6a8.73,8.73,0,0,1-3.26.83q-1-.06-1.6-1.47-1.09-2.5,2.75-3.78a40.47,40.47,0,0,0,7.26-3.23A45,45,0,0,0,26.24,277.27Zm-3.07-3.78a3.53,3.53,0,0,1,1.57,2,2.39,2.39,0,0,1-.35,1.92,2,2,0,0,1-1.92,1.06,5,5,0,0,1-2.3-1.25,31.13,31.13,0,0,0-2.85-2q-1.5-1-3.74-2.18-2.5-1.34-1.34-3.52a1.69,1.69,0,0,1,1.5-1,4.87,4.87,0,0,1,2.21.54q2,1,3.68,2A35.69,35.69,0,0,1,23.17,273.5Zm13.76-23.36v3.78H51.2v-2.24q0-1.54-1-1.54Zm13.25,12.8q1,0,1-1.47v-2.69H36.93v4.16Z"/>
  </g>
</svg>
