<svg id="Layer_1" data-name="Layer 1" xmlns="http://www.w3.org/2000/svg" viewBox="0 0 64 296">
  <defs>
    <style>
      .cls-1 {
        fill: #fff;
      }
    </style>
  </defs>
  <title>sc05-text-white-07b</title>
  <g>
    <path class="cls-1" d="M11.71,18.89q-.13,4.8-.42,8.9t-.77,8Q10,39.63,9.31,43.44t-1.82,8Q6.91,53.64,6,54.09A2.68,2.68,0,0,1,3.78,54,1.89,1.89,0,0,1,2.4,52.46a8.48,8.48,0,0,1,.48-3,123.82,123.82,0,0,0,2.78-14.4,124.28,124.28,0,0,0,1-16.38,5.27,5.27,0,0,1,.51-2.78,2.56,2.56,0,0,1,2-.86,2,2,0,0,1,2,.77A5,5,0,0,1,11.71,18.89Zm40,26.3q.06.9.06,1.7v1.5a31.63,31.63,0,0,1-.38,5.38,11.3,11.3,0,0,1-1.25,3.68,7.74,7.74,0,0,1-2.27,2.5,15.39,15.39,0,0,1-3.46,1.76v-.06a10,10,0,0,1-1.5.38,19.82,19.82,0,0,1-2.27.29q-1.28.1-2.75.16t-2.94.06q-2.62,0-5.06-.22a21.77,21.77,0,0,1-3.78-.61,9.51,9.51,0,0,1-2.91-1.44,10.4,10.4,0,0,1-2.4-2.43,12.44,12.44,0,0,1-1.63-3.23,11.65,11.65,0,0,1-.61-3.78V13.58A2.15,2.15,0,0,1,21,11.15a2.18,2.18,0,0,1,2.5,2.43V50.19a9.06,9.06,0,0,0,1.06,4.54A4.58,4.58,0,0,0,27.71,57a25.87,25.87,0,0,0,3.07.35q2.18.16,4.61.16,1.86,0,3.55-.1a22.24,22.24,0,0,0,2.72-.29,6,6,0,0,0,4-2.62q1.22-2,1.22-6.21V47q0-.67-.06-1.44a2.84,2.84,0,0,1,.38-2,2.7,2.7,0,0,1,2-.8,2.4,2.4,0,0,1,1.7.51A2.71,2.71,0,0,1,51.71,45.2Zm-11.2-8.26a5.55,5.55,0,0,1-.19,3.23,2.26,2.26,0,0,1-2.11.86,2.19,2.19,0,0,1-1.92-.74,5.85,5.85,0,0,1-.7-2.59q-.51-4.48-1.12-8.32T33.06,22q-.8-3.58-1.82-7.14T28.8,7.31a4,4,0,0,1-.38-2.43,2.39,2.39,0,0,1,1.34-1.22,2.12,2.12,0,0,1,1.92-.1,3.27,3.27,0,0,1,1.47,2q1.41,4.16,2.56,7.9t2,7.49q.9,3.74,1.57,7.65T40.51,36.94ZM61.12,49.49A6.77,6.77,0,0,1,61,52.94a2.4,2.4,0,0,1-2.08,1.22A1.84,1.84,0,0,1,57,53.33a9.77,9.77,0,0,1-.9-3.46,156.8,156.8,0,0,0-3-16.67q-1.86-7.71-4.48-15.39A4.79,4.79,0,0,1,48.26,15a2,2,0,0,1,1.09-1.25,2.88,2.88,0,0,1,2.14-.06q1.06.38,1.76,2.43,1.41,4.16,2.56,8t2.08,7.81q.93,4,1.73,8.26T61.12,49.49Z"/>
    <path class="cls-1" d="M5,93.39a2.77,2.77,0,0,1-1.89-.54A2.35,2.35,0,0,1,2.5,91,2.18,2.18,0,0,1,5,88.59H15V81.81A2.22,2.22,0,0,1,15.65,80a2.61,2.61,0,0,1,1.7-.54A2.61,2.61,0,0,1,19,80a2.22,2.22,0,0,1,.67,1.82v6.78h7.87q2.56,0,2.56,2.43a2.28,2.28,0,0,1-.64,1.82,2.9,2.9,0,0,1-1.92.54H21q2.18,2.43,4.16,4.83t3.78,4.9a6.51,6.51,0,0,1,1.28,2.5,2.28,2.28,0,0,1-.77,1.86,2.39,2.39,0,0,1-1.86.83q-1-.06-2.3-1.92l-2.5-3.26q-1.47-1.92-3.07-3.9v16.45a2.22,2.22,0,0,1-.67,1.82,2.61,2.61,0,0,1-1.7.54,2.6,2.6,0,0,1-1.7-.54,2.22,2.22,0,0,1-.67-1.82V100.81A66,66,0,0,1,10.56,107q-2.3,2.85-4.93,5.6a2.72,2.72,0,0,1-2.24,1,2.46,2.46,0,0,1-1.92-1.12q-1-1.54,1-3.58a66.69,66.69,0,0,0,6-6.94,77.82,77.82,0,0,0,5.57-8.54Zm7.55,29.44a68.25,68.25,0,0,1-2.18,7.42,50.88,50.88,0,0,1-2.75,6.4,3.5,3.5,0,0,1-1.76,1.82,2.39,2.39,0,0,1-2.08-.29q-2-1.15-.32-4.16a32.53,32.53,0,0,0,2.46-5.73q1.12-3.36,1.89-6.56a4.46,4.46,0,0,1,1.09-2.3,2.16,2.16,0,0,1,2-.32Q13.44,119.57,12.54,122.83Zm38.72,5.82a27.91,27.91,0,0,1-.42,5.41,6.88,6.88,0,0,1-1.38,3.14A4.88,4.88,0,0,1,47,138.73a21,21,0,0,1-3.68.61q-1.92.13-4.16.19t-4.51.06q-2.27,0-4.45-.1t-4-.22a19.67,19.67,0,0,1-3.68-.61,4.52,4.52,0,0,1-3.42-3.62,16.58,16.58,0,0,1-.32-3.58v-11.2q0-2.94,2.43-2.94a2.47,2.47,0,0,1,1.82.67,3.15,3.15,0,0,1,.67,2.27V132a2.68,2.68,0,0,0,.58,1.86,3.57,3.57,0,0,0,2.37.77q1.86.19,4.06.29t4.35.1q2.14,0,4.06-.06a30.91,30.91,0,0,0,3.26-.26,15,15,0,0,0,2-.32,2,2,0,0,0,1.18-.77,3.67,3.67,0,0,0,.54-1.73,30.86,30.86,0,0,0,.13-3.2,4.44,4.44,0,0,1,.48-2.27,2,2,0,0,1,1.89-.8,2.41,2.41,0,0,1,2,.77A3.69,3.69,0,0,1,51.26,128.65ZM39.62,128q1.34,2.43-.7,3.65-2.24,1.28-3.71-1.47-.45-.83-1.22-2.14t-1.66-2.75l-1.76-2.82q-.86-1.38-1.5-2.34-1.79-2.62.45-3.9a2.68,2.68,0,0,1,1.82-.42A2.92,2.92,0,0,1,33,117.2q1.66,2.5,3.46,5.41T39.62,128Zm18.56-17A6.25,6.25,0,0,1,57,115.21q-1.15,1.28-4.1,1.28h-17q-3,0-4.06-1.28A6.66,6.66,0,0,1,30.78,111V88a6.66,6.66,0,0,1,1.06-4.22q1.06-1.28,4.06-1.28h17q2.94,0,4.1,1.28A6.25,6.25,0,0,1,58.18,88ZM53.44,88.4q0-1.09-.9-1.09H36.29q-.77,0-.77,1.09v3.78H53.44Zm0,8.38H35.52v4.93H53.44Zm0,9.54H35.52v4.29a1.41,1.41,0,0,0,.22.83.65.65,0,0,0,.54.32H52.54q.9,0,.9-1.15ZM61,132.62a4.81,4.81,0,0,1,.61,2.43,2.11,2.11,0,0,1-1.31,1.6,2.44,2.44,0,0,1-2.08.19A3.49,3.49,0,0,1,56.58,135a67.27,67.27,0,0,0-3.26-6.21A69.07,69.07,0,0,0,49.47,123q-2.18-2.94-.32-4.16a2.73,2.73,0,0,1,2.14-.67,3.92,3.92,0,0,1,1.89,1.63q2,2.69,4.06,6.14T61,132.62Z"/>
    <path class="cls-1" d="M34.88,161.1H58.3q2.5,0,2.5,2.18a2.21,2.21,0,0,1-2.5,2.5H34.88v3.14H50.11A6.42,6.42,0,0,1,54.24,170q1.31,1.09,1.31,4v2.5q0,2.94-1.31,4a6.56,6.56,0,0,1-4.13,1.06H34.88V185H51.07a12.24,12.24,0,0,1,2.56.22,3.29,3.29,0,0,1,1.66.86,3.55,3.55,0,0,1,.9,1.73,12.71,12.71,0,0,1,.26,2.82v3.07h3.33a2.46,2.46,0,0,1,1.7.54,2.17,2.17,0,0,1,.61,1.7,2.24,2.24,0,0,1-.61,1.79,2.55,2.55,0,0,1-1.7.51H56.45v3a13.58,13.58,0,0,1-.22,2.69,3.84,3.84,0,0,1-.8,1.76,3.18,3.18,0,0,1-1.63,1,10.63,10.63,0,0,1-2.72.29H34.88v3.71a11.64,11.64,0,0,1-.32,2.82,4.75,4.75,0,0,1-3.33,3.55,11.07,11.07,0,0,1-3.52.48,26.58,26.58,0,0,1-3.65-.29,48.42,48.42,0,0,1-4.86-1A4,4,0,0,1,17,215a2.25,2.25,0,0,1-.06-2c.3-.85.74-1.34,1.31-1.47a5.22,5.22,0,0,1,2.34.19q2.43.64,4.19,1a17.14,17.14,0,0,0,3,.32q1.54,0,2-.54a3.2,3.2,0,0,0,.42-1.89V207H8.26a2.36,2.36,0,0,1-1.63-.54A2.25,2.25,0,0,1,6,204.69a2.13,2.13,0,0,1,.61-1.76,2.56,2.56,0,0,1,1.63-.48H30.08v-4.16H4.16a2.44,2.44,0,0,1-1.63-.51A2.24,2.24,0,0,1,1.92,196a2.16,2.16,0,0,1,.61-1.7,2.36,2.36,0,0,1,1.63-.54H30.08v-4.16H8.51a2,2,0,0,1-2.24-2.24,2.27,2.27,0,0,1,.61-1.73A2.27,2.27,0,0,1,8.51,185H30.08v-3.46H13.63a6.4,6.4,0,0,1-4.13-1.06q-1.25-1.06-1.25-4V174q0-2.94,1.25-4a6.26,6.26,0,0,1,4.13-1.09H30.08v-3.14H5.7a2.21,2.21,0,0,1-2.5-2.5q0-2.18,2.5-2.18H30.08V159q0-2.56,2.43-2.56T34.88,159Zm-22,15.23q0,.83,1.22.83H30.08v-3.84H14.14q-1.22,0-1.22,1Zm38-2q0-1-1.28-1H34.88v3.84H49.6q1.28,0,1.28-.83Zm-16,15.3v4.16H51.65v-2.88q0-1.28-1.09-1.28Zm15.49,12.86a1.28,1.28,0,0,0,.9-.35,1.65,1.65,0,0,0,.38-1.25v-2.56H34.88v4.16Z"/>
    <path class="cls-1" d="M36.16,236.43q.13,1.66.35,3.29T37,243H49.41q-.9-.58-2-1.15t-2.24-1.12l-2.08-1-1.54-.7a3.57,3.57,0,0,1-2-1.54,2.78,2.78,0,0,1,.16-2.11q.51-1.28,1.44-1.44a4.44,4.44,0,0,1,2.27.35q.77.32,1.82.83t2.18,1.09q1.12.58,2.24,1.18t2.08,1.06q1.66.9,1.92,1.63a2.81,2.81,0,0,1-.26,2,3.74,3.74,0,0,1-.64,1h5.38a3.49,3.49,0,0,1,2,.51,2.27,2.27,0,0,1,.74,2q0,2.5-2.75,2.5H37.76a110.13,110.13,0,0,0,3,12.16,95.64,95.64,0,0,0,4.38,11.39,48,48,0,0,0,5.7-18,3.61,3.61,0,0,1,.9-2.43,2.5,2.5,0,0,1,1.92-.45,2.3,2.3,0,0,1,1.89,1,5.1,5.1,0,0,1,.1,2.85,71.87,71.87,0,0,1-3.1,12.22,45.31,45.31,0,0,1-4.9,9.86,59.82,59.82,0,0,0,3.23,5.57q1.76,2.69,3.74,5.38.77,1,1.12.86t.67-1.63a40.31,40.31,0,0,0,.67-4q.22-2,.35-4.48a3.26,3.26,0,0,1,.8-2,2.24,2.24,0,0,1,2-.58,2.29,2.29,0,0,1,1.92.9,4.35,4.35,0,0,1,.32,2.43q-.13,1.79-.32,3.36t-.45,3.07q-.26,1.5-.61,3t-.8,3.1A5,5,0,0,1,58.85,294a3.79,3.79,0,0,1-2.24,1,4.63,4.63,0,0,1-2.59-.64,8,8,0,0,1-2.5-2.27,120.57,120.57,0,0,1-7.36-11q-7,7.55-19.33,12.42a6,6,0,0,1-3,.58,2,2,0,0,1-1.57-1.54,2.6,2.6,0,0,1,.06-2.21,4.29,4.29,0,0,1,2.37-1.5q12.1-4,19.07-12.29-1.54-3.07-2.82-6.27t-2.37-6.69q-1.09-3.49-2-7.36t-1.7-8.22H11.78c-.34,0-.51.23-.51.7v6.53H25.34a14.66,14.66,0,0,1,2.4.16,2.78,2.78,0,0,1,1.47.67,2.66,2.66,0,0,1,.74,1.44,12.25,12.25,0,0,1,.19,2.4q0,2.63-.06,5.34t-.19,5.09a46,46,0,0,1-1.31,8.83,15.17,15.17,0,0,1-2.27,5.09,5.89,5.89,0,0,1-3,2.24,8.86,8.86,0,0,1-3.62.22,15.88,15.88,0,0,1-2.59-.58,26,26,0,0,1-3.74-1.54,3.45,3.45,0,0,1-2-1.7,2.64,2.64,0,0,1,.26-2.08,2.42,2.42,0,0,1,1.54-1.41,3.57,3.57,0,0,1,2.11.32,21.42,21.42,0,0,0,4.48,1.63,3,3,0,0,0,2.78-.61,6.41,6.41,0,0,0,1.57-3.49,58.34,58.34,0,0,0,.83-7.07q.13-2.18.22-4.26t.1-4.13a2.21,2.21,0,0,0-.26-1.28,1.18,1.18,0,0,0-1-.32H11.26v6.14A68.88,68.88,0,0,1,10,279.47a70.87,70.87,0,0,1-3.49,12.19A4.37,4.37,0,0,1,4.86,294,2.46,2.46,0,0,1,2.75,294q-2.18-.9-.77-4.42a68.16,68.16,0,0,0,3.17-11A64.69,64.69,0,0,0,6.27,266V248.72a6.56,6.56,0,0,1,1.22-4.32Q8.7,243,11.78,243H32q-.26-1.47-.48-2.94t-.42-3a4.91,4.91,0,0,1,.19-2.75,2.41,2.41,0,0,1,2-1.09,2.28,2.28,0,0,1,2,.61A4.28,4.28,0,0,1,36.16,236.43Z"/>
  </g>
</svg>
