<?xml version="1.0" encoding="utf-8"?>
<!-- Generator: Adobe Illustrator 16.0.3, SVG Export Plug-In . SVG Version: 6.00 Build 0)  -->
<!DOCTYPE svg PUBLIC "-//W3C//DTD SVG 1.1//EN" "http://www.w3.org/Graphics/SVG/1.1/DTD/svg11.dtd" [
	<!ENTITY ns_flows "http://ns.adobe.com/Flows/1.0/">
	<!ENTITY ns_extend "http://ns.adobe.com/Extensibility/1.0/">
	<!ENTITY ns_ai "http://ns.adobe.com/AdobeIllustrator/10.0/">
	<!ENTITY ns_graphs "http://ns.adobe.com/Graphs/1.0/">
]>
<svg version="1.1" id="Layer_1" xmlns:x="&ns_extend;" xmlns:i="&ns_ai;" xmlns:graph="&ns_graphs;"
	 xmlns="http://www.w3.org/2000/svg" xmlns:xlink="http://www.w3.org/1999/xlink" xmlns:a="http://ns.adobe.com/AdobeSVGViewerExtensions/3.0/"
	 x="0px" y="0px" width="64px" height="296px" viewBox="0 0 64 296" enable-background="new 0 0 64 296" xml:space="preserve">
<g>
	<g>
		<path fill="#FFFFFF" d="M34.879,7.501h23.424c1.664,0,2.496,0.726,2.496,2.176c0,1.664-0.832,2.496-2.496,2.496H34.879v3.136
			h15.232c1.877,0,3.253,0.363,4.128,1.088c0.874,0.726,1.312,2.07,1.312,4.032v2.496c0,1.963-0.438,3.296-1.312,4
			c-0.875,0.704-2.251,1.056-4.128,1.056H34.879v3.456h16.192c1.024,0,1.877,0.075,2.56,0.224c0.683,0.15,1.238,0.438,1.664,0.864
			c0.426,0.427,0.726,1.003,0.896,1.728c0.17,0.726,0.256,1.664,0.256,2.816v3.072h3.328c0.725,0,1.29,0.182,1.695,0.544
			c0.406,0.363,0.609,0.928,0.609,1.696c0,0.854-0.203,1.451-0.609,1.792c-0.405,0.342-0.971,0.512-1.695,0.512h-3.328v3.008
			c0,1.067-0.074,1.963-0.224,2.688c-0.15,0.726-0.416,1.312-0.8,1.76c-0.385,0.448-0.928,0.768-1.633,0.96
			c-0.703,0.192-1.611,0.288-2.72,0.288H34.879v3.712c0,1.024-0.106,1.962-0.319,2.816c-0.214,0.853-0.587,1.578-1.12,2.176
			c-0.534,0.597-1.27,1.056-2.208,1.376c-0.938,0.32-2.112,0.48-3.521,0.48c-1.066,0-2.283-0.096-3.647-0.288
			c-1.366-0.192-2.987-0.523-4.864-0.992c-1.152-0.342-1.898-0.768-2.24-1.28c-0.342-0.512-0.362-1.195-0.063-2.048
			c0.298-0.854,0.735-1.344,1.312-1.472s1.354-0.064,2.336,0.192c1.621,0.426,3.019,0.746,4.192,0.96
			c1.173,0.213,2.165,0.32,2.976,0.32c1.024,0,1.674-0.182,1.953-0.544c0.276-0.363,0.416-0.992,0.416-1.888v-3.52H8.256
			c-0.684,0-1.228-0.182-1.633-0.544c-0.406-0.362-0.607-0.949-0.607-1.76c0-0.853,0.201-1.44,0.607-1.76
			c0.405-0.32,0.949-0.48,1.633-0.48H30.08v-4.16H4.16c-0.684,0-1.228-0.17-1.633-0.512c-0.406-0.341-0.607-0.938-0.607-1.792
			c0-0.768,0.201-1.333,0.607-1.696c0.405-0.362,0.949-0.544,1.633-0.544h25.92v-4.16H8.512c-1.494,0-2.24-0.746-2.24-2.24
			c0-0.768,0.202-1.344,0.607-1.728c0.406-0.384,0.949-0.576,1.633-0.576H30.08v-3.456H13.631c-1.92,0-3.295-0.352-4.127-1.056
			c-0.832-0.704-1.248-2.037-1.248-4V20.43c0-1.962,0.416-3.306,1.248-4.032c0.832-0.725,2.207-1.088,4.127-1.088H30.08v-3.136
			H5.695c-1.664,0-2.496-0.832-2.496-2.496c0-1.45,0.832-2.176,2.496-2.176H30.08V5.39c0-1.706,0.81-2.56,2.432-2.56
			c1.578,0,2.367,0.854,2.367,2.56V7.501z M12.928,22.733c0,0.555,0.404,0.832,1.216,0.832H30.08v-3.84H14.144
			c-0.812,0-1.216,0.32-1.216,0.96V22.733z M50.879,20.686c0-0.64-0.426-0.96-1.279-0.96H34.879v3.84H49.6
			c0.854,0,1.279-0.277,1.279-0.832V20.686z M34.879,35.981v4.16h16.769v-2.88c0-0.853-0.363-1.28-1.088-1.28H34.879z
			 M50.367,48.846c0.342,0,0.641-0.117,0.896-0.352c0.256-0.234,0.384-0.65,0.384-1.248v-2.56H34.879v4.16H50.367z"/>
		<path fill="#FFFFFF" d="M60.159,134.669c0.896,0,1.505,0.192,1.824,0.576c0.319,0.384,0.479,0.96,0.479,1.728
			c0,0.725-0.17,1.301-0.512,1.728c-0.342,0.426-0.939,0.64-1.792,0.64H3.52c-0.854,0-1.43-0.214-1.729-0.64
			c-0.299-0.427-0.447-1.003-0.447-1.728c0-0.768,0.138-1.344,0.416-1.728c0.277-0.384,0.863-0.576,1.76-0.576h18.368V82.637
			c0-0.938,0.256-1.546,0.768-1.824c0.513-0.277,1.066-0.416,1.664-0.416c0.597,0,1.152,0.16,1.664,0.48
			c0.513,0.32,0.769,0.907,0.769,1.76v52.032H37.76V83.021c0-0.938,0.256-1.546,0.768-1.824c0.512-0.277,1.066-0.416,1.664-0.416
			s1.152,0.16,1.664,0.48c0.512,0.32,0.768,0.907,0.768,1.76v51.648H60.159z M17.088,125.325c0.213,1.622,0.213,2.72,0,3.296
			c-0.215,0.576-0.875,0.928-1.984,1.056c-0.428,0.042-0.8,0.042-1.12,0c-0.319-0.043-0.587-0.182-0.8-0.416
			c-0.214-0.234-0.395-0.586-0.544-1.056c-0.15-0.469-0.288-1.109-0.416-1.92c-0.854-6.442-1.761-12.266-2.72-17.472
			c-0.961-5.205-1.996-10.005-3.104-14.4c-0.342-1.365-0.459-2.346-0.353-2.944c0.106-0.597,0.586-1.045,1.44-1.344
			c1.024-0.341,1.781-0.33,2.272,0.032c0.49,0.363,0.906,1.206,1.248,2.528c1.279,4.95,2.41,10.059,3.392,15.328
			C15.381,113.283,16.276,119.053,17.088,125.325z M58.176,94.286c-0.854,5.632-1.91,11.072-3.168,16.32
			c-1.26,5.248-2.784,10.475-4.576,15.68c-0.428,1.238-0.928,2.059-1.504,2.464c-0.576,0.406-1.398,0.395-2.465-0.032
			c-0.854-0.341-1.301-0.81-1.344-1.408c-0.043-0.597,0.129-1.45,0.512-2.56c0.811-2.304,1.601-4.736,2.369-7.296
			c0.768-2.56,1.481-5.205,2.144-7.936c0.661-2.73,1.269-5.472,1.823-8.224s1.045-5.472,1.473-8.16
			c0.213-1.408,0.521-2.325,0.928-2.752c0.405-0.426,1.098-0.576,2.08-0.448c0.98,0.128,1.568,0.512,1.76,1.152
			C58.399,91.726,58.389,92.792,58.176,94.286z"/>
		<path fill="#FFFFFF" d="M36.16,159.63c0.084,1.11,0.201,2.208,0.352,3.296c0.148,1.088,0.309,2.166,0.479,3.232h12.416
			c-0.598-0.385-1.271-0.768-2.016-1.152c-0.747-0.385-1.494-0.758-2.24-1.121c-0.747-0.361-1.44-0.691-2.08-0.99
			s-1.151-0.533-1.536-0.705c-1.109-0.469-1.781-0.98-2.016-1.535s-0.182-1.259,0.16-2.113c0.341-0.852,0.82-1.332,1.439-1.439
			c0.618-0.105,1.377,0.012,2.272,0.352c0.512,0.215,1.12,0.492,1.823,0.832c0.705,0.343,1.43,0.705,2.177,1.088
			c0.745,0.385,1.493,0.779,2.239,1.185c0.746,0.406,1.44,0.759,2.08,1.056c1.109,0.599,1.75,1.143,1.92,1.633
			s0.086,1.143-0.256,1.951c-0.213,0.428-0.427,0.748-0.64,0.961h5.376c0.854,0,1.525,0.17,2.016,0.512s0.736,1.002,0.736,1.984
			c0,1.664-0.918,2.496-2.752,2.496H37.76c0.81,4.223,1.824,8.277,3.039,12.16c1.217,3.883,2.678,7.68,4.385,11.391
			c2.9-5.033,4.8-11.049,5.695-18.047c0.129-1.238,0.426-2.049,0.896-2.432c0.469-0.385,1.109-0.533,1.92-0.449
			c0.98,0.129,1.609,0.459,1.889,0.992c0.276,0.533,0.309,1.482,0.096,2.848c-0.768,4.523-1.803,8.598-3.104,12.225
			s-2.934,6.912-4.896,9.855c0.98,1.92,2.058,3.775,3.232,5.568c1.172,1.791,2.42,3.584,3.743,5.375
			c0.513,0.684,0.886,0.971,1.12,0.865c0.234-0.107,0.458-0.65,0.672-1.633c0.299-1.365,0.521-2.709,0.672-4.031
			c0.149-1.322,0.266-2.816,0.352-4.48c0.086-0.854,0.353-1.514,0.801-1.984c0.447-0.469,1.098-0.66,1.952-0.576
			c0.981,0.086,1.62,0.385,1.92,0.896c0.298,0.512,0.405,1.324,0.319,2.432c-0.086,1.195-0.191,2.316-0.319,3.361
			s-0.278,2.068-0.448,3.072c-0.171,1.002-0.374,2.004-0.607,3.008c-0.235,1.002-0.502,2.037-0.801,3.104
			c-0.299,1.109-0.779,1.951-1.439,2.527c-0.662,0.576-1.408,0.896-2.24,0.961c-0.832,0.063-1.695-0.15-2.592-0.641
			s-1.729-1.248-2.496-2.271c-2.773-3.713-5.227-7.383-7.359-11.008c-4.652,5.033-11.095,9.172-19.328,12.416
			c-1.281,0.512-2.295,0.703-3.041,0.576c-0.746-0.129-1.27-0.641-1.567-1.537c-0.3-0.896-0.278-1.631,0.063-2.207
			s1.131-1.078,2.368-1.504c8.063-2.646,14.421-6.742,19.072-12.289c-1.024-2.047-1.963-4.139-2.815-6.271
			c-0.854-2.133-1.644-4.361-2.369-6.688s-1.397-4.779-2.016-7.361c-0.619-2.58-1.184-5.322-1.695-8.223H11.775
			c-0.342,0-0.512,0.234-0.512,0.703v6.527h14.08c0.98,0,1.781,0.055,2.4,0.16c0.617,0.107,1.108,0.332,1.471,0.672
			c0.363,0.344,0.608,0.822,0.736,1.441c0.129,0.619,0.192,1.418,0.192,2.398c0,1.75-0.022,3.531-0.063,5.346
			c-0.043,1.813-0.107,3.51-0.192,5.088c-0.257,3.67-0.694,6.613-1.312,8.832c-0.619,2.219-1.377,3.914-2.273,5.088
			c-0.896,1.172-1.909,1.92-3.039,2.24c-1.131,0.318-2.336,0.393-3.616,0.223c-0.726-0.086-1.59-0.277-2.592-0.576
			c-1.003-0.299-2.251-0.811-3.744-1.535c-1.11-0.512-1.771-1.078-1.983-1.695c-0.215-0.619-0.129-1.313,0.256-2.08
			c0.426-0.811,0.938-1.281,1.535-1.408c0.598-0.129,1.301-0.021,2.112,0.32c1.834,0.854,3.328,1.396,4.479,1.631
			c1.152,0.234,2.08,0.033,2.785-0.607c0.703-0.641,1.226-1.803,1.567-3.488c0.341-1.686,0.618-4.043,0.832-7.072
			c0.085-1.449,0.16-2.869,0.224-4.256c0.064-1.387,0.096-2.762,0.096-4.127c0-0.641-0.086-1.066-0.256-1.281
			c-0.17-0.213-0.49-0.32-0.959-0.32H11.264v6.145c0,4.48-0.416,8.863-1.248,13.152c-0.832,4.287-1.995,8.352-3.488,12.191
			c-0.512,1.281-1.066,2.068-1.664,2.369c-0.598,0.297-1.302,0.275-2.111-0.064c-1.451-0.598-1.707-2.07-0.769-4.416
			c1.365-3.584,2.421-7.264,3.168-11.041c0.746-3.775,1.12-7.945,1.12-12.512v-17.279c0-1.92,0.404-3.359,1.216-4.32
			c0.81-0.959,2.24-1.439,4.288-1.439H32c-0.172-0.982-0.332-1.963-0.48-2.943c-0.15-0.982-0.288-1.985-0.416-3.01
			c-0.171-1.236-0.107-2.153,0.191-2.752c0.299-0.596,0.981-0.959,2.049-1.088c0.853-0.084,1.514,0.119,1.984,0.608
			C35.797,157.465,36.073,158.35,36.16,159.63z"/>
		<path fill="#FFFFFF" d="M4.287,245.518c-0.854,0-1.461-0.234-1.824-0.703c-0.362-0.471-0.543-1.047-0.543-1.729
			c0-0.725,0.181-1.313,0.543-1.76c0.363-0.449,0.971-0.672,1.824-0.672H22.08c0.853,0,1.481,0.223,1.887,0.672
			c0.406,0.447,0.609,1.035,0.609,1.76c0,0.682-0.203,1.258-0.609,1.729c-0.405,0.469-1.034,0.703-1.887,0.703h-6.4v34.432
			c1.322-0.682,2.527-1.344,3.615-1.984c1.088-0.639,2.08-1.258,2.977-1.855c0.98-0.682,1.813-0.928,2.496-0.736
			c0.682,0.193,1.216,0.566,1.6,1.121c0.469,0.682,0.576,1.387,0.32,2.111c-0.256,0.727-0.727,1.26-1.408,1.6
			c-1.023,0.641-2.336,1.377-3.936,2.209s-3.297,1.684-5.088,2.559c-1.793,0.875-3.596,1.719-5.408,2.529
			c-1.814,0.809-3.446,1.471-4.896,1.984c-1.023,0.383-1.92,0.488-2.688,0.318s-1.26-0.746-1.473-1.727
			c-0.17-0.855-0.043-1.547,0.385-2.08c0.426-0.535,1.193-0.992,2.304-1.377c1.108-0.383,2.187-0.768,3.231-1.152
			c1.045-0.383,2.059-0.789,3.041-1.215v-36.736H4.287z M53.055,244.301c1.365,0,2.529,0.129,3.488,0.385
			c0.961,0.256,1.738,0.693,2.336,1.313s1.024,1.451,1.28,2.496c0.257,1.045,0.384,2.357,0.384,3.936
			c0.043,6.23-0.149,11.744-0.576,16.543c-0.426,4.801-1.002,9.078-1.728,12.832c-0.812,3.926-2.103,6.838-3.872,8.736
			c-1.771,1.898-4.277,2.848-7.52,2.848c-1.408,0-2.752-0.191-4.032-0.576c-1.28-0.383-2.944-0.938-4.992-1.662
			c-0.726-0.301-1.247-0.813-1.567-1.537c-0.32-0.727-0.246-1.494,0.224-2.305c0.384-0.598,0.832-0.959,1.344-1.088
			c0.513-0.127,1.28-0.021,2.304,0.32c1.664,0.555,2.944,0.98,3.84,1.281c0.896,0.297,1.856,0.447,2.881,0.447
			c1.748,0,3.093-0.588,4.031-1.76c0.938-1.174,1.75-3.104,2.433-5.793c0.683-2.645,1.205-6.004,1.567-10.08
			c0.362-4.072,0.545-8.521,0.545-13.344c0-0.938,0-1.865,0-2.783s-0.022-1.867-0.064-2.848c-0.043-0.982-0.225-1.633-0.544-1.953
			s-0.907-0.479-1.761-0.479H41.855c-0.128,5.033-0.619,9.695-1.473,13.982c-0.854,4.289-2.069,8.268-3.647,11.938
			c-1.579,3.67-3.542,7.029-5.888,10.078c-2.348,3.051-5.1,5.857-8.256,8.416c-0.854,0.727-1.654,1.066-2.4,1.025
			c-0.747-0.043-1.334-0.428-1.76-1.152c-0.342-0.555-0.416-1.195-0.225-1.92c0.192-0.727,0.672-1.408,1.44-2.049
			c5.418-4.65,9.558-10.271,12.416-16.863s4.458-14.41,4.8-23.455h-8.64c-1.75,0-2.624-0.789-2.624-2.369
			c0-0.768,0.201-1.387,0.607-1.855c0.405-0.469,1.078-0.705,2.017-0.705h8.704v-8.576c0-0.98,0.191-1.652,0.576-2.016
			c0.383-0.361,1.045-0.543,1.983-0.543c0.81,0,1.418,0.182,1.824,0.543c0.405,0.363,0.608,1.035,0.608,2.016v8.576H53.055z"/>
	</g>
</g>
</svg>
