<?xml version="1.0" encoding="utf-8"?>
<!-- Generator: Adobe Illustrator 16.0.3, SVG Export Plug-In . SVG Version: 6.00 Build 0)  -->
<!DOCTYPE svg PUBLIC "-//W3C//DTD SVG 1.1//EN" "http://www.w3.org/Graphics/SVG/1.1/DTD/svg11.dtd" [
	<!ENTITY ns_flows "http://ns.adobe.com/Flows/1.0/">
	<!ENTITY ns_extend "http://ns.adobe.com/Extensibility/1.0/">
	<!ENTITY ns_ai "http://ns.adobe.com/AdobeIllustrator/10.0/">
	<!ENTITY ns_graphs "http://ns.adobe.com/Graphs/1.0/">
]>
<svg version="1.1" id="Layer_1" xmlns:x="&ns_extend;" xmlns:i="&ns_ai;" xmlns:graph="&ns_graphs;"
	 xmlns="http://www.w3.org/2000/svg" xmlns:xlink="http://www.w3.org/1999/xlink" xmlns:a="http://ns.adobe.com/AdobeSVGViewerExtensions/3.0/"
	 x="0px" y="0px" width="64px" height="296px" viewBox="0 0 64 296" enable-background="new 0 0 64 296" xml:space="preserve">
<g>
	<g>
		<path fill="#F6EB16" d="M4.032,29.262c-0.854,0-1.462-0.192-1.824-0.576c-0.363-0.384-0.544-0.981-0.544-1.792
			c0-0.853,0.16-1.472,0.479-1.856c0.32-0.384,0.949-0.576,1.889-0.576h6.592c0-0.085-0.011-0.16-0.032-0.224
			S10.56,24.1,10.56,24.014c-0.256-1.024-0.587-2.112-0.991-3.264c-0.406-1.152-0.801-2.218-1.185-3.2
			C8.128,16.825,8,16.153,8,15.534c0-0.618,0.426-1.098,1.28-1.44c0.682-0.298,1.301-0.352,1.855-0.16s1.066,0.822,1.536,1.888
			c0.298,0.726,0.618,1.6,0.96,2.624c0.341,1.024,0.789,2.368,1.344,4.032c0.257,0.896,0.362,1.558,0.32,1.984h7.808
			c0.555-1.237,1.089-2.549,1.601-3.936c0.512-1.386,0.874-2.57,1.088-3.552c0.298-1.237,0.682-2.101,1.152-2.592
			c0.469-0.49,1.193-0.608,2.176-0.352c0.896,0.214,1.461,0.662,1.696,1.344c0.233,0.683,0.116,1.686-0.353,3.008
			c-0.256,0.726-0.587,1.622-0.992,2.688c-0.405,1.067-0.843,2.198-1.312,3.392h5.567c0.938,0,1.568,0.192,1.889,0.576
			c0.319,0.384,0.479,1.003,0.479,1.856c0,0.811-0.182,1.408-0.544,1.792c-0.363,0.384-0.971,0.576-1.824,0.576H21.824v6.4h11.2
			c0.896,0,1.504,0.192,1.823,0.576c0.32,0.384,0.48,0.982,0.48,1.792c0,0.811-0.16,1.408-0.48,1.792
			c-0.319,0.384-0.928,0.576-1.823,0.576h-11.2v17.28c0,2.048-0.513,3.573-1.536,4.576c-1.024,1.002-2.496,1.504-4.416,1.504
			c-1.579,0-3.456-0.384-5.632-1.152c-1.707-0.598-2.283-1.6-1.729-3.008c0.598-1.494,1.621-1.942,3.072-1.344
			c0.81,0.341,1.514,0.597,2.112,0.768c0.597,0.17,1.13,0.256,1.6,0.256c1.28,0,1.92-0.619,1.92-1.856V40.397H5.568
			c-0.854,0-1.462-0.192-1.824-0.576C3.381,39.438,3.2,38.84,3.2,38.03c0-0.81,0.181-1.408,0.544-1.792
			c0.362-0.384,0.97-0.576,1.824-0.576h11.647v-6.4H4.032z M12.288,41.678c1.621,0.342,2.069,1.6,1.344,3.776
			c-0.896,2.603-1.824,4.864-2.784,6.784c-0.96,1.92-2.016,3.797-3.168,5.632c-0.683,1.024-1.344,1.664-1.983,1.92
			c-0.641,0.256-1.238,0.17-1.792-0.256c-0.641-0.47-1.003-1.003-1.088-1.6c-0.086-0.598,0.17-1.366,0.768-2.304
			c1.109-1.835,2.101-3.669,2.976-5.504c0.874-1.834,1.675-3.861,2.4-6.08c0.384-1.109,0.821-1.834,1.313-2.176
			C10.762,41.529,11.434,41.464,12.288,41.678z M31.872,8.718c0.853,0,1.461,0.192,1.824,0.576c0.361,0.384,0.544,1.003,0.544,1.856
			c0,0.811-0.183,1.408-0.544,1.792c-0.363,0.384-0.972,0.576-1.824,0.576H6.4c-1.707,0-2.561-0.81-2.561-2.432
			c0-0.81,0.181-1.408,0.544-1.792C4.746,8.91,5.376,8.718,6.272,8.718h10.815c-0.171-0.469-0.342-0.938-0.512-1.408
			c-0.171-0.469-0.342-0.917-0.512-1.344c-0.343-0.938-0.374-1.717-0.097-2.336c0.277-0.618,0.842-1.034,1.696-1.248
			c1.45-0.298,2.538,0.448,3.264,2.24c0.555,1.366,0.981,2.731,1.28,4.096H31.872z M31.04,53.39c0.298,1.066,0.32,1.856,0.063,2.368
			c-0.256,0.512-0.811,0.896-1.663,1.152c-0.896,0.256-1.568,0.202-2.017-0.16c-0.448-0.363-0.779-0.971-0.992-1.824
			c-0.342-1.536-0.758-3.136-1.248-4.8s-1.014-3.328-1.567-4.992c-0.384-1.109-0.471-1.92-0.256-2.432
			c0.213-0.512,0.703-0.896,1.472-1.152c0.81-0.256,1.45-0.266,1.92-0.032c0.469,0.235,0.938,0.971,1.408,2.208
			c0.469,1.366,0.917,2.763,1.344,4.192C29.93,49.348,30.442,51.171,31.04,53.39z M41.6,32.397c0,3.968-0.171,7.446-0.512,10.432
			c-0.342,2.987-0.864,5.632-1.568,7.936c-0.703,2.304-1.6,4.352-2.688,6.144s-2.379,3.456-3.872,4.992
			c-1.75,1.792-3.222,1.92-4.416,0.384C27.989,61.56,27.808,60.888,28,60.27c0.192-0.619,0.629-1.27,1.312-1.952
			c2.433-2.39,4.267-5.312,5.505-8.768c1.236-3.456,1.855-7.765,1.855-12.928v-22.08c0-1.237,0.074-2.261,0.224-3.072
			c0.149-0.81,0.373-1.461,0.673-1.952c0.298-0.49,0.692-0.842,1.184-1.056c0.49-0.213,1.077-0.362,1.76-0.448
			c2.518-0.298,5.152-0.736,7.904-1.312s5.194-1.29,7.328-2.144c1.151-0.469,2.122-0.618,2.912-0.448
			c0.789,0.171,1.29,0.704,1.504,1.6c0.213,0.896,0.138,1.568-0.225,2.016c-0.362,0.448-1.034,0.864-2.016,1.248
			c-1.11,0.384-2.294,0.758-3.552,1.12c-1.259,0.363-2.55,0.694-3.872,0.992c-1.323,0.299-2.614,0.555-3.872,0.768
			c-1.259,0.214-2.4,0.384-3.424,0.512c-0.684,0.086-1.12,0.235-1.313,0.448c-0.191,0.214-0.288,0.576-0.288,1.088v9.472h19.328
			c0.938,0,1.568,0.192,1.888,0.576c0.32,0.384,0.48,0.982,0.48,1.792c0,0.896-0.16,1.536-0.48,1.92
			c-0.319,0.384-0.949,0.576-1.888,0.576h-6.016v33.6c0,0.938-0.225,1.6-0.672,1.984c-0.448,0.384-1.015,0.576-1.696,0.576
			c-0.854,0-1.483-0.192-1.888-0.576c-0.406-0.384-0.608-1.046-0.608-1.984v-33.6H41.6V32.397z"/>
		<path fill="#F6EB16" d="M7.872,102.35c-1.28,1.195-2.294,1.824-3.04,1.888c-0.747,0.064-1.376-0.224-1.888-0.864
			c-0.556-0.682-0.727-1.386-0.513-2.112c0.213-0.725,0.917-1.6,2.112-2.624c2.176-1.962,4.128-4.266,5.856-6.912
			c1.728-2.645,2.997-5.482,3.808-8.512c0.256-0.853,0.521-1.536,0.8-2.048c0.277-0.512,0.576-0.885,0.896-1.12
			c0.319-0.234,0.672-0.362,1.056-0.384c0.384-0.021,0.768,0.032,1.152,0.16c0.81,0.214,1.333,0.726,1.567,1.536
			c0.234,0.811,0.011,2.112-0.672,3.904l-0.384,0.96h39.744c1.834,0,2.752,0.811,2.752,2.432c0,1.579-0.918,2.368-2.752,2.368H38.4
			v10.368h17.407c0.854,0,1.504,0.171,1.952,0.512c0.448,0.342,0.672,0.939,0.672,1.792c0,1.622-0.875,2.432-2.624,2.432H38.4
			v14.592h21.376c1.748,0,2.623,0.811,2.623,2.432c0,0.726-0.202,1.323-0.607,1.792c-0.406,0.47-1.078,0.704-2.016,0.704H38.4
			v12.864c0,1.024-0.192,1.749-0.576,2.176c-0.385,0.426-1.024,0.64-1.92,0.64c-1.152,0-1.878-0.224-2.177-0.672
			c-0.299-0.448-0.447-1.163-0.447-2.144v-12.864H4.224c-0.938,0-1.6-0.224-1.983-0.672c-0.384-0.448-0.576-1.034-0.576-1.76
			c0-0.853,0.192-1.482,0.576-1.888c0.384-0.405,1.045-0.608,1.983-0.608h7.616v-13.952c0-1.962,0.362-3.349,1.088-4.16
			c0.726-0.81,2.09-1.216,4.097-1.216H33.28V91.021H16.256c-1.238,2.304-2.582,4.438-4.032,6.4
			C10.773,99.384,9.322,101.027,7.872,102.35z M16.832,120.717H33.28v-14.592H17.664c-0.555,0-0.832,0.384-0.832,1.152V120.717z"/>
		<path fill="#F6EB16" d="M47.552,180.877c-0.512,2.305-1.216,4.864-2.112,7.68h10.816c0.938,0,1.568,0.225,1.888,0.672
			c0.32,0.449,0.48,1.057,0.48,1.824c0,0.769-0.183,1.344-0.544,1.729c-0.363,0.384-0.971,0.576-1.824,0.576H34.56v8.576h24.32
			c0.938,0,1.568,0.234,1.888,0.703c0.32,0.471,0.48,1.067,0.48,1.793s-0.183,1.312-0.544,1.76
			c-0.363,0.447-0.972,0.672-1.824,0.672H34.56v8.768c0,0.938-0.224,1.568-0.672,1.889c-0.448,0.319-1.056,0.479-1.824,0.479
			c-0.726,0-1.344-0.16-1.855-0.479c-0.512-0.32-0.768-0.951-0.768-1.889v-8.768H4.48c-0.854,0-1.463-0.225-1.824-0.672
			c-0.363-0.448-0.544-1.034-0.544-1.76s0.16-1.322,0.479-1.793c0.32-0.469,0.949-0.703,1.889-0.703h24.96v-8.576H7.872
			c-0.854,0-1.462-0.192-1.824-0.576c-0.363-0.385-0.544-0.96-0.544-1.729c0-0.768,0.16-1.375,0.48-1.824
			c0.319-0.447,0.948-0.672,1.888-0.672h10.56c-0.299-1.236-0.64-2.484-1.023-3.744c-0.384-1.258-0.769-2.441-1.152-3.551
			c-0.384-0.896-0.47-1.643-0.256-2.24H3.84c-0.854,0-1.462-0.213-1.824-0.641c-0.362-0.426-0.544-1.002-0.544-1.728
			s0.16-1.312,0.48-1.761c0.32-0.447,0.949-0.672,1.888-0.672H29.44v-6.463H8.256c-0.854,0-1.462-0.225-1.824-0.672
			c-0.362-0.449-0.544-1.014-0.544-1.697c0-0.725,0.16-1.312,0.48-1.76c0.319-0.447,0.949-0.672,1.888-0.672H29.44v-4.416
			c0-0.938,0.233-1.568,0.703-1.888c0.47-0.32,1.089-0.479,1.856-0.479c0.725,0,1.322,0.159,1.792,0.479
			c0.469,0.319,0.704,0.95,0.704,1.888v4.416h21.376c0.938,0,1.567,0.225,1.888,0.672c0.32,0.448,0.48,1.035,0.48,1.76
			c0,0.684-0.183,1.248-0.544,1.697c-0.363,0.447-0.972,0.672-1.824,0.672H34.496v6.463h25.6c0.938,0,1.568,0.225,1.889,0.672
			c0.319,0.449,0.479,1.035,0.479,1.761s-0.182,1.302-0.544,1.728c-0.363,0.428-0.971,0.641-1.824,0.641H47.616
			c0.128,0.47,0.085,1.109-0.128,1.92L47.552,180.877z M21.056,180.174c0.385,1.151,0.801,2.485,1.248,4
			c0.448,1.514,0.842,2.976,1.185,4.383H40.32c0.469-1.492,0.885-2.933,1.248-4.319c0.361-1.386,0.692-2.763,0.991-4.128
			c0.085-0.426,0.213-0.789,0.385-1.088H20.608c0.085,0.171,0.159,0.352,0.224,0.544C20.896,179.758,20.97,179.96,21.056,180.174z"
			/>
		<path fill="#F6EB16" d="M21.824,253.325c-0.727,1.366-1.451,2.667-2.176,3.903c-0.727,1.238-1.473,2.433-2.24,3.584
			c1.065,0.982,2.08,1.932,3.04,2.849c0.96,0.918,1.865,1.803,2.72,2.655c0.81,0.854,1.216,1.633,1.216,2.336
			c0,0.705-0.256,1.291-0.768,1.761c-1.238,1.151-2.519,0.875-3.84-0.832c-1.11-1.28-2.24-2.538-3.393-3.776v26.561
			c0,0.938-0.203,1.578-0.607,1.92c-0.406,0.341-0.929,0.512-1.568,0.512c-0.726,0-1.302-0.171-1.729-0.512
			c-0.427-0.342-0.64-0.982-0.64-1.92V267.98c-0.854,0.939-1.75,1.889-2.688,2.849c-0.939,0.96-1.963,1.952-3.072,2.976
			c-0.939,0.896-1.75,1.344-2.432,1.344c-0.684,0-1.28-0.319-1.792-0.959c-0.428-0.555-0.556-1.142-0.385-1.76
			c0.17-0.619,0.704-1.334,1.601-2.145c3.156-2.816,5.94-5.813,8.352-8.992c2.41-3.178,4.384-6.281,5.92-9.313
			c0.384-0.682,0.192-1.023-0.576-1.023H4.672c-0.854,0-1.482-0.191-1.888-0.576c-0.406-0.384-0.608-1.023-0.608-1.92
			c0-0.938,0.225-1.568,0.672-1.888c0.448-0.32,1.057-0.479,1.824-0.479H17.92c2.602,0,4.192,0.672,4.768,2.016
			C23.264,249.453,22.976,251.191,21.824,253.325z M15.36,241.293c0.469,0.896,0.649,1.632,0.544,2.208
			c-0.107,0.576-0.523,1.078-1.248,1.504c-1.451,0.812-2.582,0.406-3.393-1.216c-0.555-1.152-1.066-2.145-1.536-2.977
			s-1.066-1.801-1.792-2.912c-0.64-0.98-0.938-1.791-0.896-2.432c0.042-0.64,0.426-1.216,1.152-1.728
			c1.321-0.938,2.517-0.576,3.584,1.088c0.725,1.237,1.376,2.358,1.951,3.36C14.304,239.191,14.848,240.227,15.36,241.293z
			 M62.016,239.564c0,0.727-0.191,1.291-0.576,1.697c-0.384,0.405-1.023,0.607-1.92,0.607H25.984c-0.939,0-1.568-0.202-1.889-0.607
			c-0.319-0.406-0.479-0.971-0.479-1.697c0-0.725,0.16-1.289,0.479-1.695c0.32-0.405,0.949-0.607,1.889-0.607H59.52
			c0.896,0,1.536,0.202,1.92,0.607C61.824,238.275,62.016,238.84,62.016,239.564z M60.096,287.373c0,1.962-0.352,3.37-1.056,4.225
			c-0.704,0.852-2.06,1.279-4.064,1.279H30.08c-2.006,0-3.382-0.428-4.128-1.279c-0.747-0.854-1.12-2.263-1.12-4.225v-19.137
			c0-1.961,0.373-3.381,1.12-4.256c0.746-0.873,2.122-1.312,4.128-1.312h24.896c2.005,0,3.36,0.438,4.064,1.312
			c0.704,0.875,1.056,2.295,1.056,4.256V287.373z M57.728,255.309c0,2.006-0.438,3.36-1.312,4.064
			c-0.875,0.704-2.294,1.057-4.256,1.057H32.896c-1.963,0-3.37-0.353-4.224-1.057s-1.28-2.059-1.28-4.064v-5.76
			c0-2.005,0.427-3.349,1.28-4.031s2.261-1.024,4.224-1.024H52.16c1.962,0,3.381,0.342,4.256,1.024
			c0.874,0.683,1.312,2.026,1.312,4.031V255.309z M40.256,267.213h-9.792c-0.555,0-0.832,0.385-0.832,1.152v6.72h10.624V267.213z
			 M40.256,279.564H29.632v7.681c0,0.725,0.277,1.088,0.832,1.088h9.792V279.564z M52.928,249.869c0-0.598-0.384-0.896-1.151-0.896
			H33.344c-0.768,0-1.151,0.299-1.151,0.896v5.248c0,0.555,0.384,0.832,1.151,0.832h18.433c0.341,0,0.617-0.086,0.831-0.256
			s0.32-0.362,0.32-0.576V249.869z M55.296,268.365c0-0.342-0.075-0.618-0.224-0.832c-0.15-0.213-0.331-0.32-0.544-0.32h-9.473
			v7.872h10.24V268.365z M55.296,279.564h-10.24v8.769h9.473c0.512,0,0.768-0.363,0.768-1.088V279.564z"/>
	</g>
</g>
</svg>
