<?xml version="1.0" encoding="utf-8"?>
<!-- Generator: Adobe Illustrator 16.0.3, SVG Export Plug-In . SVG Version: 6.00 Build 0)  -->
<!DOCTYPE svg PUBLIC "-//W3C//DTD SVG 1.1//EN" "http://www.w3.org/Graphics/SVG/1.1/DTD/svg11.dtd" [
	<!ENTITY ns_flows "http://ns.adobe.com/Flows/1.0/">
	<!ENTITY ns_extend "http://ns.adobe.com/Extensibility/1.0/">
	<!ENTITY ns_ai "http://ns.adobe.com/AdobeIllustrator/10.0/">
	<!ENTITY ns_graphs "http://ns.adobe.com/Graphs/1.0/">
]>
<svg version="1.1" id="Layer_1" xmlns:x="&ns_extend;" xmlns:i="&ns_ai;" xmlns:graph="&ns_graphs;"
	 xmlns="http://www.w3.org/2000/svg" xmlns:xlink="http://www.w3.org/1999/xlink" xmlns:a="http://ns.adobe.com/AdobeSVGViewerExtensions/3.0/"
	 x="0px" y="0px" width="64px" height="296px" viewBox="0 0 64 296" enable-background="new 0 0 64 296" xml:space="preserve">
<g>
	<path fill="#FFFFFF" d="M4.033,29.262c-0.854,0-1.462-0.192-1.824-0.576c-0.363-0.384-0.544-0.981-0.544-1.792
		c0-0.853,0.16-1.472,0.48-1.856s0.949-0.576,1.888-0.576h6.592c0-0.085-0.011-0.16-0.032-0.224
		c-0.022-0.064-0.032-0.138-0.032-0.224c-0.256-1.024-0.587-2.112-0.992-3.264c-0.406-1.152-0.8-2.218-1.184-3.2
		C8.128,16.825,8,16.153,8,15.534c0-0.618,0.426-1.098,1.28-1.44c0.682-0.298,1.301-0.352,1.856-0.16
		c0.554,0.192,1.066,0.822,1.536,1.888c0.298,0.726,0.618,1.6,0.96,2.624c0.341,1.024,0.789,2.368,1.344,4.032
		c0.256,0.896,0.362,1.558,0.32,1.984h7.808c0.554-1.237,1.088-2.549,1.6-3.936c0.512-1.386,0.874-2.57,1.088-3.552
		c0.298-1.237,0.682-2.101,1.152-2.592c0.469-0.49,1.194-0.608,2.176-0.352c0.896,0.214,1.461,0.662,1.696,1.344
		c0.234,0.683,0.117,1.686-0.352,3.008c-0.256,0.726-0.587,1.622-0.992,2.688c-0.406,1.067-0.843,2.198-1.312,3.392h5.568
		c0.938,0,1.568,0.192,1.888,0.576c0.32,0.384,0.479,1.003,0.479,1.856c0,0.811-0.182,1.408-0.543,1.792
		c-0.363,0.384-0.971,0.576-1.824,0.576H21.824v6.4h11.2c0.896,0,1.504,0.192,1.824,0.576c0.319,0.384,0.479,0.982,0.479,1.792
		c0,0.811-0.16,1.408-0.479,1.792c-0.32,0.384-0.929,0.576-1.824,0.576h-11.2v17.28c0,2.048-0.512,3.573-1.536,4.576
		c-1.024,1.002-2.496,1.504-4.416,1.504c-1.579,0-3.456-0.384-5.632-1.152c-1.707-0.598-2.283-1.6-1.728-3.008
		c0.597-1.494,1.621-1.942,3.072-1.344c0.81,0.341,1.514,0.597,2.112,0.768c0.597,0.17,1.13,0.256,1.6,0.256
		c1.28,0,1.92-0.619,1.92-1.856V40.397H5.568c-0.854,0-1.462-0.192-1.824-0.576c-0.363-0.384-0.544-0.981-0.544-1.792
		c0-0.81,0.181-1.408,0.544-1.792c0.362-0.384,0.97-0.576,1.824-0.576h11.648v-6.4H4.033z M12.289,41.678
		c1.621,0.342,2.069,1.6,1.344,3.776c-0.896,2.603-1.824,4.864-2.784,6.784c-0.96,1.92-2.016,3.797-3.168,5.632
		c-0.683,1.024-1.344,1.664-1.984,1.92c-0.64,0.256-1.238,0.17-1.792-0.256c-0.64-0.47-1.003-1.003-1.088-1.6
		c-0.086-0.598,0.17-1.366,0.768-2.304c1.109-1.835,2.101-3.669,2.976-5.504c0.874-1.834,1.674-3.861,2.4-6.08
		c0.384-1.109,0.821-1.834,1.312-2.176C10.763,41.529,11.435,41.464,12.289,41.678z M31.873,8.718c0.853,0,1.461,0.192,1.824,0.576
		c0.362,0.384,0.544,1.003,0.544,1.856c0,0.811-0.182,1.408-0.544,1.792c-0.362,0.384-0.971,0.576-1.824,0.576H6.4
		c-1.707,0-2.56-0.81-2.56-2.432c0-0.81,0.181-1.408,0.544-1.792C4.747,8.91,5.376,8.718,6.272,8.718h10.816
		c-0.171-0.469-0.342-0.938-0.512-1.408c-0.171-0.469-0.342-0.917-0.512-1.344c-0.342-0.938-0.374-1.717-0.096-2.336
		c0.277-0.618,0.842-1.034,1.696-1.248c1.45-0.298,2.538,0.448,3.264,2.24c0.554,1.366,0.981,2.731,1.28,4.096H31.873z
		 M31.041,53.39c0.298,1.066,0.32,1.856,0.064,2.368c-0.256,0.512-0.811,0.896-1.664,1.152c-0.896,0.256-1.568,0.202-2.016-0.16
		c-0.448-0.363-0.779-0.971-0.992-1.824c-0.342-1.536-0.758-3.136-1.248-4.8c-0.491-1.664-1.014-3.328-1.568-4.992
		c-0.384-1.109-0.47-1.92-0.256-2.432c0.213-0.512,0.704-0.896,1.472-1.152c0.81-0.256,1.45-0.266,1.92-0.032
		c0.469,0.235,0.938,0.971,1.408,2.208c0.469,1.366,0.917,2.763,1.344,4.192C29.931,49.348,30.442,51.171,31.041,53.39z
		 M41.601,32.397c0,3.968-0.171,7.446-0.513,10.432c-0.342,2.987-0.863,5.632-1.567,7.936c-0.704,2.304-1.601,4.352-2.688,6.144
		s-2.379,3.456-3.872,4.992c-1.75,1.792-3.222,1.92-4.416,0.384C27.989,61.56,27.809,60.888,28,60.27
		c0.192-0.619,0.629-1.27,1.312-1.952c2.432-2.39,4.266-5.312,5.504-8.768c1.236-3.456,1.855-7.765,1.855-12.928v-22.08
		c0-1.237,0.074-2.261,0.225-3.072c0.148-0.81,0.373-1.461,0.672-1.952c0.298-0.49,0.693-0.842,1.184-1.056
		c0.49-0.213,1.078-0.362,1.76-0.448c2.518-0.298,5.152-0.736,7.904-1.312s5.195-1.29,7.328-2.144
		c1.152-0.469,2.123-0.618,2.912-0.448c0.789,0.171,1.291,0.704,1.504,1.6s0.139,1.568-0.225,2.016
		c-0.361,0.448-1.033,0.864-2.016,1.248c-1.109,0.384-2.293,0.758-3.551,1.12c-1.26,0.363-2.551,0.694-3.873,0.992
		c-1.322,0.299-2.613,0.555-3.871,0.768c-1.26,0.214-2.4,0.384-3.425,0.512c-0.683,0.086-1.12,0.235-1.312,0.448
		c-0.192,0.214-0.288,0.576-0.288,1.088v9.472h19.327c0.939,0,1.568,0.192,1.889,0.576c0.32,0.384,0.48,0.982,0.48,1.792
		c0,0.896-0.16,1.536-0.48,1.92s-0.949,0.576-1.889,0.576h-6.016v33.6c0,0.938-0.225,1.6-0.672,1.984
		c-0.447,0.384-1.014,0.576-1.695,0.576c-0.854,0-1.483-0.192-1.889-0.576c-0.406-0.384-0.607-1.046-0.607-1.984v-33.6h-8.448
		V32.397z"/>
	<path fill="#FFFFFF" d="M7.873,102.35c-1.28,1.195-2.294,1.824-3.04,1.888c-0.747,0.064-1.376-0.224-1.888-0.864
		c-0.555-0.682-0.726-1.386-0.512-2.112c0.213-0.725,0.917-1.6,2.112-2.624c2.176-1.962,4.128-4.266,5.856-6.912
		c1.728-2.645,2.997-5.482,3.808-8.512c0.256-0.853,0.522-1.536,0.8-2.048c0.277-0.512,0.576-0.885,0.896-1.12
		c0.32-0.234,0.672-0.362,1.056-0.384c0.384-0.021,0.768,0.032,1.152,0.16c0.81,0.214,1.333,0.726,1.568,1.536
		c0.234,0.811,0.01,2.112-0.672,3.904l-0.384,0.96h39.745c1.834,0,2.752,0.811,2.752,2.432c0,1.579-0.918,2.368-2.752,2.368H38.4
		v10.368h17.408c0.854,0,1.504,0.171,1.951,0.512c0.449,0.342,0.672,0.939,0.672,1.792c0,1.622-0.875,2.432-2.623,2.432H38.4v14.592
		h21.377c1.748,0,2.623,0.811,2.623,2.432c0,0.726-0.203,1.323-0.607,1.792c-0.406,0.47-1.078,0.704-2.016,0.704H38.4v12.864
		c0,1.024-0.191,1.749-0.576,2.176c-0.384,0.426-1.023,0.64-1.92,0.64c-1.152,0-1.878-0.224-2.176-0.672
		c-0.299-0.448-0.448-1.163-0.448-2.144v-12.864H4.225c-0.939,0-1.6-0.224-1.984-0.672c-0.384-0.448-0.576-1.034-0.576-1.76
		c0-0.853,0.192-1.482,0.576-1.888c0.384-0.405,1.045-0.608,1.984-0.608h7.616v-13.952c0-1.962,0.362-3.349,1.088-4.16
		c0.725-0.81,2.09-1.216,4.096-1.216H33.28V91.021H16.256c-1.238,2.304-2.582,4.438-4.032,6.4
		C10.773,99.384,9.322,101.027,7.873,102.35z M16.833,120.717H33.28v-14.592H17.665c-0.555,0-0.832,0.384-0.832,1.152V120.717z"/>
	<path fill="#FFFFFF" d="M9.152,170.829c-0.043,1.366-0.128,2.859-0.256,4.48c-0.128,1.622-0.288,3.307-0.48,5.056
		c-0.192,1.75-0.427,3.52-0.704,5.312c-0.278,1.792-0.566,3.499-0.864,5.12c-0.256,1.323-0.587,2.283-0.992,2.88
		c-0.406,0.599-1.099,0.769-2.08,0.513c-0.939-0.256-1.483-0.726-1.632-1.408c-0.15-0.682-0.075-1.706,0.224-3.072
		c0.384-1.749,0.704-3.509,0.96-5.28c0.256-1.77,0.48-3.487,0.672-5.151s0.341-3.232,0.448-4.704c0.106-1.472,0.181-2.805,0.224-4
		c0.085-1.536,0.277-2.57,0.576-3.104c0.298-0.532,0.874-0.8,1.728-0.8c0.981,0,1.61,0.278,1.888,0.832
		C9.142,168.057,9.237,169.165,9.152,170.829z M15.36,215.245c0,0.768-0.171,1.397-0.512,1.888c-0.342,0.49-0.918,0.736-1.728,0.736
		c-1.536,0-2.304-0.875-2.304-2.624v-55.872c0-1.792,0.768-2.688,2.304-2.688c0.81,0,1.386,0.246,1.728,0.735
		c0.341,0.491,0.512,1.143,0.512,1.952V215.245z M22.913,184.461c0.128,1.451,0.042,2.454-0.256,3.008
		c-0.299,0.556-0.832,0.875-1.6,0.96c-0.854,0.087-1.494-0.073-1.92-0.479c-0.427-0.405-0.683-1.354-0.768-2.848
		c-0.043-0.896-0.128-1.931-0.256-3.104c-0.128-1.173-0.278-2.378-0.448-3.616c-0.171-1.236-0.352-2.453-0.544-3.647
		c-0.192-1.194-0.374-2.282-0.544-3.265c-0.427-2.218,0.149-3.455,1.728-3.712c0.853-0.128,1.493,0.022,1.92,0.448
		c0.426,0.427,0.746,1.28,0.96,2.561c0.128,0.896,0.277,1.909,0.448,3.04c0.17,1.131,0.33,2.304,0.48,3.52
		c0.149,1.216,0.298,2.443,0.448,3.68C22.709,182.243,22.827,183.396,22.913,184.461z M44.416,193.293
		c1.152,2.305,2.305,4.363,3.457,6.176c1.151,1.814,2.389,3.479,3.711,4.992c1.322,1.516,2.752,2.901,4.289,4.16
		c1.535,1.258,3.242,2.506,5.119,3.744c0.811,0.512,1.396,1.109,1.76,1.792c0.363,0.682,0.203,1.493-0.48,2.432
		c-0.512,0.683-1.131,0.981-1.855,0.896c-0.727-0.086-1.664-0.513-2.816-1.28c-2.006-1.408-3.83-2.848-5.471-4.32
		c-1.644-1.472-3.18-3.104-4.608-4.896c-1.431-1.792-2.806-3.786-4.128-5.984c-1.323-2.196-2.646-4.746-3.969-7.647
		c-0.598,2.646-1.354,5.056-2.271,7.231c-0.918,2.177-2.006,4.203-3.264,6.08c-1.259,1.877-2.699,3.626-4.32,5.248
		c-1.622,1.621-3.456,3.178-5.504,4.672c-2.134,1.578-3.712,1.643-4.736,0.192c-0.555-0.769-0.672-1.494-0.352-2.176
		c0.32-0.684,1.013-1.388,2.08-2.112c3.541-2.432,6.368-5.184,8.48-8.256c2.112-3.072,3.721-6.72,4.833-10.944H23.937
		c-0.982,0-1.643-0.256-1.984-0.768c-0.342-0.513-0.512-1.088-0.512-1.729c0-0.682,0.17-1.226,0.512-1.632
		c0.341-0.405,1.002-0.607,1.984-0.607h11.456c0.213-1.024,0.384-2.091,0.512-3.2s0.256-2.261,0.385-3.456
		c0.084-1.237,0.148-2.73,0.191-4.48c0.042-1.749,0.085-3.626,0.128-5.632h-8.384c-0.982,0-1.675-0.16-2.08-0.479
		c-0.406-0.32-0.608-0.929-0.608-1.824c0-0.981,0.213-1.632,0.64-1.952c0.426-0.32,1.109-0.479,2.048-0.479h8.447
		c0-1.322-0.01-2.613-0.031-3.872s-0.032-2.442-0.032-3.553c0-1.193,0.16-2.037,0.479-2.527c0.32-0.49,0.971-0.736,1.953-0.736
		c1.023,0,1.695,0.246,2.016,0.736s0.48,1.334,0.48,2.527v7.425h8.896c2.304,0,3.894,0.415,4.769,1.247
		c0.873,0.832,1.311,2.272,1.311,4.32v15.937h3.393c1.707,0,2.561,0.746,2.561,2.239c0,1.024-0.215,1.696-0.641,2.017
		c-0.428,0.319-1.066,0.479-1.92,0.479H44.416z M41.088,182.029c-0.213,2.304-0.469,4.479-0.768,6.528h11.456v-15.809
		c0-0.64-0.448-0.96-1.344-0.96h-8.96c-0.043,2.091-0.096,3.947-0.16,5.568C41.248,178.979,41.174,180.536,41.088,182.029z"/>
	<path fill="#FFFFFF" d="M28.608,268.557c-0.982,0-1.803-0.073-2.464-0.224c-0.662-0.149-1.184-0.416-1.568-0.8
		c-0.384-0.384-0.651-0.896-0.8-1.536c-0.15-0.64-0.224-1.45-0.224-2.432v-18.944c0-1.024,0.074-1.877,0.224-2.56
		c0.149-0.683,0.416-1.237,0.8-1.664c0.384-0.427,0.906-0.726,1.568-0.896c0.661-0.17,1.482-0.256,2.464-0.256h0.896
		c0.128-0.469,0.245-0.928,0.352-1.376c0.106-0.448,0.202-0.906,0.288-1.376c0.128-1.152,0.352-1.952,0.672-2.4
		c0.32-0.447,0.97-0.607,1.952-0.479c1.024,0.128,1.632,0.459,1.823,0.992c0.193,0.533,0.203,1.354,0.033,2.464
		c-0.086,0.256-0.183,0.565-0.289,0.928c-0.106,0.363-0.224,0.779-0.352,1.248h0.96c1.962,0,3.349,0.384,4.16,1.152
		c0.81,0.768,1.216,2.176,1.216,4.224v18.432c0,2.006-0.406,3.424-1.216,4.256c-0.812,0.832-2.198,1.248-4.16,1.248h-3.008
		c0.64,0.043,1.151,0.225,1.536,0.544c0.384,0.32,0.576,0.887,0.576,1.696v1.856h24.639c0.854,0,1.451,0.203,1.793,0.607
		c0.342,0.406,0.512,0.992,0.512,1.76c0,1.451-0.768,2.177-2.305,2.177H40c1.664,1.279,3.297,2.399,4.896,3.359
		s3.178,1.804,4.736,2.528c1.557,0.725,3.113,1.376,4.672,1.952c1.557,0.576,3.146,1.12,4.768,1.632
		c1.365,0.426,2.271,0.853,2.721,1.28c0.447,0.426,0.564,1.065,0.352,1.92c-0.215,0.98-0.662,1.578-1.344,1.792
		c-0.684,0.213-1.855,0.085-3.52-0.384c-2.008-0.599-3.959-1.291-5.857-2.08c-1.898-0.79-3.787-1.729-5.664-2.816
		s-3.775-2.336-5.695-3.744s-3.926-3.05-6.016-4.928v14.336c0,0.853-0.225,1.45-0.672,1.792c-0.449,0.341-1.036,0.512-1.761,0.512
		c-0.854,0-1.472-0.16-1.856-0.479c-0.384-0.32-0.576-0.928-0.576-1.824v-12.928c-1.75,1.494-3.488,2.848-5.216,4.063
		s-3.552,2.336-5.472,3.36s-3.947,1.962-6.08,2.816c-2.134,0.853-4.459,1.663-6.976,2.432c-1.238,0.341-2.112,0.373-2.624,0.096
		c-0.512-0.277-0.854-0.779-1.024-1.504c-0.427-1.622,0.384-2.73,2.432-3.328c4.138-1.151,7.914-2.57,11.328-4.256
		c3.413-1.685,6.442-3.552,9.088-5.6H5.121c-1.494,0-2.24-0.726-2.24-2.177c0-0.768,0.16-1.354,0.48-1.76
		c0.32-0.404,0.906-0.607,1.76-0.607h24.064v-1.856c0-0.853,0.149-1.429,0.448-1.728c0.298-0.299,0.789-0.47,1.472-0.513H28.608z
		 M15.681,259.981c-0.512-0.811-0.715-1.45-0.608-1.921c0.106-0.469,0.437-0.874,0.992-1.216c0.469-0.341,1.034-0.437,1.696-0.288
		c0.661,0.15,1.29,0.673,1.888,1.568c0.768,1.238,1.429,2.443,1.984,3.616c0.554,1.174,1.13,2.442,1.728,3.808
		c0.17,0.512,0.202,1.143,0.096,1.888c-0.107,0.747-0.438,1.248-0.992,1.505c-1.494,0.64-2.603,0.063-3.328-1.729
		c-0.128-0.298-0.256-0.586-0.384-0.864c-0.128-0.276-0.235-0.564-0.32-0.863c-2.091,0.299-4.075,0.544-5.952,0.735
		c-1.878,0.192-3.712,0.374-5.504,0.544c-1.195,0.128-2.091-0.01-2.688-0.416c-0.598-0.404-0.896-1.013-0.896-1.823
		c0-0.938,0.426-1.898,1.28-2.881c1.237-1.364,2.378-2.655,3.424-3.871c1.045-1.217,2.016-2.379,2.912-3.488
		c-0.598,0.086-1.184,0.128-1.76,0.128s-1.206,0.021-1.888,0.063c-1.067,0.043-1.942-0.17-2.624-0.64
		c-0.683-0.469-1.024-1.13-1.024-1.984c0-0.469,0.085-0.97,0.256-1.504c0.17-0.532,0.469-1.033,0.896-1.504
		c0.768-0.896,1.493-1.77,2.176-2.624c0.682-0.853,1.344-1.717,1.984-2.592c0.64-0.874,1.28-1.781,1.92-2.72
		c0.64-0.938,1.322-1.962,2.048-3.072c0.597-0.938,1.109-1.493,1.536-1.664c0.426-0.17,1.002-0.105,1.728,0.192
		c0.853,0.384,1.333,0.875,1.44,1.472c0.106,0.598-0.16,1.387-0.8,2.368c-0.726,1.024-1.366,1.931-1.92,2.72
		c-0.555,0.79-1.067,1.494-1.536,2.112c-0.47,0.619-0.928,1.206-1.376,1.76c-0.448,0.555-0.928,1.131-1.44,1.729
		c-0.384,0.47-0.512,0.768-0.384,0.896c0.128,0.128,0.533,0.171,1.216,0.128c0.64-0.042,1.226-0.074,1.76-0.096
		c0.533-0.021,1.056-0.074,1.568-0.16c0.512-0.725,0.992-1.418,1.44-2.08c0.448-0.661,0.906-1.312,1.376-1.952
		c1.024-1.749,2.154-2.324,3.392-1.728c0.64,0.342,1.034,0.822,1.184,1.439c0.149,0.619-0.182,1.526-0.992,2.721
		c-1.622,2.347-3.371,4.715-5.248,7.104c-1.878,2.39-3.648,4.48-5.312,6.272c-0.299,0.342-0.406,0.555-0.32,0.64
		c0.085,0.086,0.469,0.086,1.152,0c0.341,0,1.002-0.053,1.984-0.16c0.981-0.105,1.962-0.224,2.944-0.352
		c-0.128-0.213-0.256-0.416-0.384-0.608C15.873,260.397,15.766,260.195,15.681,259.981z M35.776,244.685
		c0-0.597-0.235-0.896-0.704-0.896h-6.528c-0.384,0-0.576,0.299-0.576,0.896v6.784h7.808V244.685z M35.072,264.077
		c0.469,0,0.704-0.384,0.704-1.152v-7.104h-7.808v7.104c0,0.769,0.192,1.152,0.576,1.152H35.072z M53.504,258.957
		c-0.512-0.81-0.725-1.44-0.639-1.888c0.084-0.448,0.404-0.843,0.959-1.185c0.469-0.341,1.023-0.469,1.664-0.384
		c0.641,0.086,1.258,0.576,1.855,1.472c0.77,1.238,1.482,2.476,2.145,3.712c0.66,1.238,1.248,2.539,1.76,3.904
		c0.256,0.727,0.32,1.387,0.191,1.984c-0.127,0.598-0.533,1.066-1.215,1.408c-0.727,0.342-1.322,0.362-1.793,0.063
		c-0.469-0.298-0.875-0.874-1.215-1.728c-0.086-0.214-0.172-0.405-0.256-0.576c-0.086-0.17-0.172-0.362-0.256-0.576
		c-2.176,0.342-4.268,0.619-6.272,0.832c-2.007,0.214-3.947,0.406-5.824,0.576c-1.194,0.128-2.091-0.01-2.688-0.416
		c-0.598-0.405-0.896-1.014-0.896-1.824c0-0.938,0.426-1.898,1.28-2.88c1.236-1.322,2.367-2.592,3.392-3.809
		c1.024-1.216,1.983-2.378,2.88-3.487c-0.598,0.086-1.205,0.139-1.824,0.16s-1.291,0.054-2.016,0.096
		c-1.066,0.043-1.941-0.17-2.624-0.64s-1.024-1.131-1.024-1.984c0-0.469,0.086-0.97,0.256-1.504c0.171-0.533,0.47-1.034,0.896-1.504
		c0.768-0.896,1.493-1.771,2.176-2.624s1.334-1.717,1.953-2.592c0.617-0.874,1.236-1.781,1.855-2.721
		c0.617-0.938,1.289-1.962,2.016-3.071c0.598-0.938,1.12-1.504,1.568-1.696c0.447-0.192,1.033-0.138,1.76,0.16
		c0.854,0.384,1.334,0.886,1.439,1.504c0.107,0.619-0.16,1.419-0.799,2.399c-0.727,1.024-1.367,1.942-1.92,2.752
		c-0.556,0.812-1.068,1.536-1.537,2.177c-0.47,0.64-0.928,1.248-1.375,1.823c-0.449,0.576-0.929,1.163-1.44,1.761
		c-0.384,0.47-0.513,0.768-0.384,0.896c0.127,0.128,0.533,0.171,1.216,0.128c0.64-0.042,1.237-0.074,1.792-0.096
		c0.554-0.021,1.088-0.074,1.6-0.16c0.555-0.725,1.088-1.45,1.6-2.176c0.512-0.725,1.002-1.45,1.473-2.176
		c1.066-1.792,2.219-2.368,3.455-1.729c0.641,0.342,1.035,0.822,1.186,1.44c0.148,0.619-0.184,1.525-0.992,2.72
		c-1.623,2.347-3.361,4.704-5.217,7.072s-3.615,4.448-5.279,6.24c-0.299,0.342-0.428,0.565-0.385,0.672s0.405,0.117,1.088,0.031
		c0.17,0,0.459-0.021,0.865-0.063c0.404-0.042,0.863-0.096,1.375-0.16s1.045-0.128,1.6-0.192c0.555-0.063,1.088-0.138,1.602-0.224
		c-0.172-0.341-0.344-0.661-0.514-0.96C53.846,259.619,53.674,259.299,53.504,258.957z"/>
</g>
</svg>
